<?xml version="1.0" standalone="no"?>
<!DOCTYPE svg PUBLIC "-//W3C//DTD SVG 1.1//EN" "http://www.w3.org/Graphics/SVG/1.1/DTD/svg11.dtd" >
<svg xmlns="http://www.w3.org/2000/svg" xmlns:xlink="http://www.w3.org/1999/xlink" version="1.1">
<metadata></metadata>
<defs>
<font id="adaniextralight" horiz-adv-x="1286" >
<font-face units-per-em="2048" ascent="1536" descent="-512" />
<missing-glyph horiz-adv-x="536" />
<glyph unicode="&#xfb01;" horiz-adv-x="1269" d="M104 993q0 16 12.5 27.5t28.5 11.5h93v113q0 68 16 125t51 98t88 63.5t129 22.5q51 0 92 -6t66 -14q35 -10 35 -39q0 -10 -9.5 -22.5t-29.5 -12.5t-55 9t-99 9q-117 0 -163 -62.5t-46 -170.5v-113h328q16 0 28.5 -11t12.5 -28q0 -16 -12.5 -26.5t-28.5 -10.5h-328v-923 q0 -16 -11 -28.5t-28 -12.5q-16 0 -26 12t-10 29v923h-93q-16 0 -28.5 10.5t-12.5 26.5zM936 1360q0 29 19.5 48t47.5 19q29 0 47.5 -19t18.5 -48t-18.5 -48.5t-47.5 -19.5t-48 19.5t-19 48.5zM964 33v981q0 16 10.5 28.5t26.5 12.5t27.5 -12.5t11.5 -28.5v-981 q0 -16 -11 -28.5t-28 -12.5q-16 0 -26.5 12t-10.5 29z" />
<glyph horiz-adv-x="0" />
<glyph unicode="&#xd;" horiz-adv-x="536" />
<glyph unicode=" "  horiz-adv-x="536" />
<glyph unicode="&#x09;" horiz-adv-x="536" />
<glyph unicode="&#xa0;" horiz-adv-x="536" />
<glyph unicode="!" horiz-adv-x="399" d="M160 1386q0 16 11 28.5t30 12.5q39 0 39 -41l-9 -888q0 -37 -30 -37q-14 0 -23.5 10t-9.5 27zM162 18v218q0 16 10 27t27 11q16 0 27.5 -11t11.5 -27v-218q0 -16 -11.5 -27t-27.5 -11t-26.5 11t-10.5 27z" />
<glyph unicode="&#x22;" horiz-adv-x="645" d="M172 1083v312q0 16 10.5 27.5t26.5 11.5t27.5 -11.5t11.5 -27.5v-312q0 -16 -11.5 -27.5t-27.5 -11.5t-26.5 11.5t-10.5 27.5zM397 1083v312q0 16 10.5 27.5t26.5 11.5t27.5 -11.5t11.5 -27.5v-312q0 -16 -11 -27.5t-28 -11.5q-16 0 -26.5 11.5t-10.5 27.5z" />
<glyph unicode="#" horiz-adv-x="1206" d="M121 510q0 18 12 28.5t29 10.5h164l118 362h-147q-16 0 -28.5 10.5t-12.5 26.5q0 18 12.5 28.5t28.5 10.5h172l141 434q12 29 37 29t34 -18.5t1 -36.5l-133 -408h272l142 434q12 29 36 29q25 0 34 -18.5t1 -36.5l-133 -408h143q16 0 28.5 -11t12.5 -28q0 -16 -12 -26.5 t-29 -10.5h-167l-119 -362h151q16 0 28.5 -11.5t12.5 -27.5t-12 -26.5t-29 -10.5h-176l-153 -467q-6 -25 -35 -24q-23 0 -32 18t-3 35l143 438h-272l-154 -467q-6 -25 -34 -24q-23 0 -32 18t-3 35l143 438h-139q-16 0 -28.5 10.5t-12.5 26.5zM406 549h272l119 362h-273z" />
<glyph unicode="$" horiz-adv-x="1245" d="M170 213q0 27 23.5 35t44.5 -8q72 -53 176 -91t227 -38q172 0 275.5 71.5t103.5 216.5q0 55 -19.5 98.5t-68.5 79t-134 63.5t-216 52q-219 41 -313.5 127t-94.5 223q0 164 108.5 252t303.5 97v180q0 18 11 29.5t28 11.5q16 0 26.5 -11.5t10.5 -29.5v-180 q98 -10 170.5 -40t123.5 -71q16 -12 17 -29q0 -18 -11.5 -27.5t-23.5 -9.5q-8 0 -15.5 2.5t-17.5 10.5q-53 39 -131 64.5t-162 25.5q-111 0 -180.5 -24.5t-110 -64.5t-56 -89t-15.5 -99q0 -117 92 -179t246 -91q143 -27 240.5 -59.5t156.5 -77.5t85 -103.5t26 -134.5 q0 -84 -35 -151.5t-94.5 -113.5t-138 -70.5t-166.5 -24.5v-176q0 -16 -11.5 -28.5t-27.5 -12.5t-26.5 12t-10.5 29v180q-123 8 -219.5 46t-173.5 91q-23 16 -23 37z" />
<glyph unicode="%" horiz-adv-x="1376" d="M94 1118.5q0 30.5 2 55.5q2 57 25.5 108t62.5 89t90.5 59.5t110.5 21.5t110.5 -21.5t90.5 -59.5t62.5 -89t25.5 -108q2 -25 2 -56t-2 -55q-2 -59 -25.5 -109.5t-62.5 -88.5t-90.5 -59.5t-110.5 -21.5t-110.5 21.5t-90.5 59.5t-62.5 88.5t-25.5 109.5q-2 25 -2 55.5z M168 1065q4 -96 66.5 -154.5t150.5 -58.5t150.5 58.5t66.5 154.5q2 51 0 106q-4 96 -66.5 154.5t-150.5 58.5t-150.5 -58t-66.5 -155q-2 -55 0 -106zM228.5 227.5q0.5 16.5 11.5 28.5l858 983q10 12 26.5 14t26.5 -6q12 -10 13 -26.5t-9 -26.5l-862 -987 q-10 -12 -25.5 -14.5t-27.5 8.5q-12 10 -11.5 26.5zM711 325.5q0 30.5 2 55.5q2 57 25.5 108.5t62.5 89t90 59t110 21.5t110.5 -21.5t90.5 -59t62.5 -89t25.5 -108.5q2 -25 2 -55.5t-2 -55.5q-2 -59 -25.5 -109t-62.5 -88t-90.5 -59.5t-110.5 -21.5t-110 21.5t-90 59.5 t-62.5 88t-25.5 109q-2 25 -2 55.5zM784 272q4 -96 66.5 -154.5t150.5 -58.5t150.5 58.5t67.5 154.5q2 51 0 107q-4 96 -67 154.5t-151 58.5t-150.5 -58.5t-66.5 -154.5q-2 -55 0 -107z" />
<glyph unicode="&#x26;" horiz-adv-x="1388" d="M115 356q0 139 87 226.5t240 128.5q-115 66 -176 146.5t-61 207.5q0 76 30.5 143.5t87 116.5t134.5 78t172 29q98 0 177 -28t134 -77t85 -116.5t30 -147.5q0 -88 -24.5 -150.5t-78 -108.5t-137.5 -77t-203 -53q-119 -23 -199.5 -51.5t-130 -67.5t-71 -87t-21.5 -112 q0 -135 115 -216t326 -81q106 0 188 31t138.5 86t86 129t33.5 160v33q0 35 18.5 55t61.5 20h189q16 0 29.5 -10t13.5 -26q0 -18 -12.5 -28.5t-28.5 -10.5h-195q0 -123 -38 -218.5t-106.5 -161t-163.5 -100t-210 -34.5q-127 0 -224.5 28.5t-163 77.5t-99 117.5t-33.5 148.5z M281 1063q0 -68 24.5 -119t61 -90t82 -67.5t88.5 -51.5q131 23 217 50.5t136 65.5t69.5 89t19.5 123q0 55 -19.5 108.5t-61.5 94.5t-107.5 65.5t-159.5 24.5q-90 0 -155.5 -23.5t-108.5 -63.5t-64.5 -93.5t-21.5 -112.5z" />
<glyph unicode="'" horiz-adv-x="419" d="M172 1083v312q0 16 10.5 27.5t26.5 11.5t27.5 -11.5t11.5 -27.5v-312q0 -16 -11.5 -27.5t-27.5 -11.5t-26.5 11.5t-10.5 27.5z" />
<glyph unicode="(" horiz-adv-x="702" d="M205 633q0 137 25.5 272t77.5 261t131 240t186 208q12 12 28 12t26.5 -11t10.5 -26q0 -16 -16 -33q-104 -92 -178 -202.5t-122 -230t-70.5 -244.5t-22.5 -246t22.5 -246t70.5 -244.5t121.5 -230.5t178.5 -203q16 -16 16 -33q0 -14 -10 -25t-27 -11q-16 0 -28 12 q-106 94 -185.5 207.5t-131.5 239.5t-77.5 261.5t-25.5 272.5z" />
<glyph unicode=")" horiz-adv-x="702" d="M12 -324q0 16 17 33q104 92 178 203t122 230.5t70.5 244.5t22.5 246t-22.5 246t-70.5 244.5t-122 230t-178 202.5q-16 16 -17 33q0 14 10.5 25.5t26.5 11.5t29 -12q106 -94 185 -208t131 -240t78 -261t26 -272t-26 -272.5t-78 -261.5t-131 -239.5t-185 -207.5 q-13 -12 -29 -12t-26.5 11t-10.5 25z" />
<glyph unicode="*" horiz-adv-x="749" d="M80 938q0 20 22 33l205 119l-205 118q-20 13 -20 33q0 23 18.5 33t38.5 -2l201 -123v237q0 16 10 28.5t27 12.5q16 0 26.5 -12t10.5 -29v-237l200 123q18 10 38 2t20 -33q0 -20 -21 -33l-207 -118l207 -119q20 -12 21 -33q0 -25 -19.5 -33t-38.5 2l-200 121v-235 q0 -16 -10.5 -28.5t-26.5 -12.5t-26.5 12t-10.5 29v235l-201 -121q-18 -10 -38.5 -1t-20.5 32z" />
<glyph unicode="+" d="M123 717q0 18 12 28.5t31 10.5h442v440q0 18 10.5 30.5t26.5 12.5q18 0 28.5 -12.5t10.5 -30.5v-440h434q18 0 31.5 -10.5t13.5 -28.5q0 -16 -14 -26.5t-31 -10.5h-434v-442q0 -18 -10 -30.5t-29 -12.5q-37 0 -37 43v442h-442q-18 0 -30.5 10t-12.5 27z" />
<glyph unicode="," horiz-adv-x="407" d="M113 -154q0 10 3 15.5t5 9.5q39 55 48 89t9 87v109q0 16 10.5 27.5t26.5 11.5t27.5 -11.5t11.5 -27.5v-119q0 -68 -19.5 -115t-50.5 -92q-4 -6 -13 -13t-21 -7q-16 0 -26.5 11t-10.5 25z" />
<glyph unicode="-" horiz-adv-x="716" d="M133 586q0 18 12.5 28.5t28.5 10.5h369q16 0 28.5 -10.5t12.5 -26.5t-12.5 -27.5t-28.5 -11.5h-369q-16 0 -28.5 10t-12.5 27z" />
<glyph unicode="." horiz-adv-x="520" d="M166 16v217q0 16 10 27.5t27 11.5q16 0 27.5 -11t11.5 -28v-217q0 -16 -11.5 -27.5t-27.5 -11.5t-26.5 11.5t-10.5 27.5z" />
<glyph unicode="/" horiz-adv-x="653" d="M0 -12l584 1482q16 41 51 27q16 -6 21.5 -21.5t-1.5 -31.5l-585 -1485q-4 -14 -18.5 -21.5t-31.5 -0.5q-16 6 -20 21t0 30z" />
<glyph unicode="0" horiz-adv-x="1394" d="M187 726q1 108 3 192q2 117 41 214t105.5 168.5t159 111.5t200.5 40q111 0 202 -39t157.5 -110.5t103.5 -171t41 -218.5q2 -41 2 -90v-100v-100.5t-2 -90.5q-4 -119 -42 -220t-103.5 -175t-156.5 -114.5t-202 -40.5t-202 40.5t-157.5 114.5t-104 175.5t-42.5 219.5 q-4 86 -3 194zM264 723q0 -55 1 -108.5t5 -98.5q8 -102 40 -186t87.5 -144.5t130 -94.5t168.5 -34t170 34t130.5 94.5t86 144.5t39.5 186q4 45 5 98.5t1 108.5t-2 107.5t-4 97.5q-6 100 -37.5 183t-87 142.5t-131 91t-170.5 31.5q-94 0 -169.5 -31.5t-131 -91t-87.5 -142.5 t-38 -183q-2 -45 -4 -97.5t-2 -107.5z" />
<glyph unicode="1" horiz-adv-x="858" d="M117 1194q0 23 22 35l314 190q23 14 43 15q23 0 39 -14.5t16 -49.5v-1337q0 -41 -39 -41q-16 0 -26.5 11t-10.5 30v1306l-295 -176q-16 -8 -26 -8q-14 0 -25.5 11.5t-11.5 27.5z" />
<glyph unicode="2" horiz-adv-x="1173" d="M131 66v20q0 68 18.5 126t56.5 112.5t97 108.5t139 114q133 98 223.5 164.5t144.5 123t77.5 111.5t23.5 133q0 53 -19.5 106.5t-62.5 95.5t-110.5 68.5t-163.5 26.5q-117 0 -200 -49t-140 -125q-6 -8 -15.5 -14t-21.5 -6t-24.5 10t-12.5 27q0 12 11 28q25 37 62.5 73 t88.5 65.5t114.5 48t137.5 18.5q106 0 187 -29.5t136.5 -81t83 -119t27.5 -143.5q0 -98 -30.5 -167.5t-91 -132t-151.5 -129t-214 -154.5q-100 -74 -158.5 -128.5t-89.5 -101.5t-39 -92t-8 -98h770q16 0 28.5 -10.5t12.5 -28.5q0 -16 -12.5 -26.5t-28.5 -10.5h-774 q-31 0 -50.5 18.5t-21.5 47.5z" />
<glyph unicode="3" horiz-adv-x="1183" d="M104 1391q0 16 12.5 26t28.5 10h699q31 0 49 -17t18 -46t-24 -55l-369 -414q14 2 26.5 2h26.5q90 0 168 -27.5t135.5 -79t90 -123t32.5 -159.5q0 -244 -196.5 -378t-571.5 -134q-20 0 -38.5 1t-38.5 1q-18 0 -32 10t-14 31q0 16 12.5 27.5t28.5 9.5q29 -2 55.5 -3 t53.5 -1q150 0 272.5 27.5t210.5 83t135.5 136t47.5 189.5q0 74 -27 132t-74 98t-111.5 61.5t-138.5 21.5q-39 0 -64.5 -1t-29.5 -1q-31 0 -45 14.5t-14 34.5q0 25 14 39l389 445h-676q-16 0 -28.5 11t-12.5 28z" />
<glyph unicode="4" horiz-adv-x="1345" d="M131 436q0 12 4 25.5t19 32.5l710 890q16 23 32.5 36.5t45.5 13.5t44 -17.5t15 -42.5v-925h189q16 0 26.5 -10.5t10.5 -26.5t-11.5 -27.5t-25.5 -11.5h-189v-340q0 -16 -10 -28.5t-28 -12.5q-16 0 -26.5 12t-10.5 29v340h-729q-16 0 -41 14t-25 49zM213 449h713v890z" />
<glyph unicode="5" horiz-adv-x="1216" d="M166 27q0 39 43 39q176 0 321.5 28.5t249 85t159.5 142.5t56 202q0 63 -22.5 123t-68.5 104t-113.5 70.5t-157.5 26.5q-92 0 -178 -30t-158 -81q-29 -18 -58.5 -3.5t-29.5 52.5v570q0 39 21.5 55t50.5 16h659q16 0 28.5 -11t12.5 -27q0 -18 -12.5 -27.5t-28.5 -9.5h-655 v-537q78 51 166 80t176 29q111 0 193.5 -33t138 -87t83 -125t27.5 -149q0 -260 -219 -400t-639 -140q-45 0 -45 37z" />
<glyph unicode="6" horiz-adv-x="1343" d="M190 686q0 375 162 574.5t471 199.5q59 0 113.5 -4t83.5 -10q39 -6 39 -39q0 -16 -10.5 -27.5t-30.5 -11.5q-18 0 -64.5 7t-130.5 7q-258 0 -396 -152.5t-159 -455.5q68 33 173.5 69t252.5 36q109 0 198 -27t151.5 -81t97.5 -136t35 -193q0 -96 -30 -180t-89.5 -148.5 t-148.5 -101.5t-208 -37q-129 0 -225 48.5t-159.5 139.5t-94.5 223t-31 300zM266 688q0 -311 105.5 -474t328.5 -163q102 0 178 31t125.5 84t73 123.5t23.5 152.5q0 176 -99.5 268.5t-306.5 92.5q-141 0 -245.5 -36t-182.5 -79z" />
<glyph unicode="7" horiz-adv-x="1048" d="M86 1389q0 16 12.5 27t28.5 11h793q31 0 50 -15t19 -42q0 -23 -16 -49q-133 -221 -235.5 -398.5t-179.5 -329t-128 -289.5t-80 -279q-4 -18 -15 -26.5t-24 -8.5q-27 0 -33 18.5t-2 34.5q33 143 79 272t118 275.5t176.5 329t253.5 432.5h-776q-16 0 -28.5 10t-12.5 27z " />
<glyph unicode="8" horiz-adv-x="1370" d="M176 387q0 76 22.5 136.5t61.5 105.5t90 75.5t107 47.5q-49 18 -93.5 45.5t-78 68.5t-54 95.5t-20.5 121.5q0 80 29.5 147.5t88 117t146.5 77t203 27.5t203 -27.5t146 -77t88 -117t30 -147.5q0 -68 -20.5 -122t-54.5 -95t-78 -68.5t-93 -45.5q55 -16 106.5 -47t90.5 -76 t61.5 -105.5t22.5 -136.5q0 -180 -127 -290.5t-375 -110.5q-250 0 -376 110.5t-126 290.5zM254 387q0 -68 24.5 -126t76 -103t132 -71t191.5 -26t191.5 26t132 71t76 103t24.5 126q0 143 -105.5 234.5t-318.5 91.5t-318.5 -91.5t-105.5 -234.5zM291 1083q0 -141 104.5 -218 t282.5 -77t282.5 77t104.5 218q0 57 -21.5 110.5t-67.5 94.5t-120 64.5t-178 23.5t-178 -23.5t-120 -64.5t-67.5 -94t-21.5 -111z" />
<glyph unicode="9" horiz-adv-x="1327" d="M166 989q0 94 29.5 179t89 149.5t148.5 101.5t208 37q260 0 380 -160.5t120 -507.5q0 -225 -55.5 -373.5t-162 -240.5t-263 -134t-359.5 -50q-23 -2 -34 10t-11 27q0 35 41 39q184 8 321.5 43.5t231.5 104.5t145.5 175.5t63.5 257.5q-35 -16 -76 -36.5t-92 -37 t-112.5 -27.5t-133.5 -11q-223 0 -351 116.5t-128 337.5zM242 989q0 -176 99 -277.5t304 -101.5q70 0 129.5 11.5t109.5 28t93 38t82 43.5q2 23 2 44.5v41.5q0 154 -26.5 261.5t-80 174t-131.5 97t-182 30.5q-102 0 -178 -30.5t-125 -84t-72.5 -124t-23.5 -152.5z" />
<glyph unicode=":" horiz-adv-x="589" d="M258 16v217q0 16 10.5 27.5t26.5 11.5t27.5 -11t11.5 -28v-217q0 -16 -11.5 -27.5t-27.5 -11.5t-26.5 11.5t-10.5 27.5zM258 756v217q0 16 10.5 27.5t26.5 11.5t27.5 -11.5t11.5 -27.5v-217q0 -16 -11.5 -27.5t-27.5 -11.5t-26.5 11t-10.5 28z" />
<glyph unicode=";" horiz-adv-x="589" d="M229 -154q0 10 3.5 15.5t5.5 9.5q39 55 48 89t9 87v109q0 16 10 27.5t27 11.5q16 0 27.5 -11.5t11.5 -27.5v-119q0 -68 -19.5 -115t-50.5 -92q-4 -6 -13 -13t-22 -7q-16 0 -26.5 11t-10.5 25zM295 756v217q0 16 10 27.5t27 11.5q16 0 27.5 -11.5t11.5 -27.5v-217 q0 -16 -11.5 -27.5t-27.5 -11.5t-26.5 11t-10.5 28z" />
<glyph unicode="&#x3c;" d="M233 717q0 35 18.5 59.5t41.5 42.5l612 502q15 10 27 10q14 0 25.5 -10t11.5 -27q0 -20 -17 -32l-604 -496q-20 -18 -28.5 -27.5t-8.5 -21.5t7.5 -22.5t29.5 -26.5l606 -496q16 -12 17 -33q0 -16 -11.5 -26.5t-25.5 -10.5q-12 0 -27 11l-614 501q-23 18 -41.5 43 t-18.5 60z" />
<glyph unicode="=" d="M137 549q0 18 12.5 28.5t30.5 10.5h924q18 0 31.5 -10.5t13.5 -28.5q0 -16 -14.5 -26.5t-30.5 -10.5h-924q-18 0 -30.5 10t-12.5 27zM137 883q0 18 12.5 28.5t30.5 10.5h924q18 0 31.5 -10.5t13.5 -28.5q0 -16 -14.5 -26.5t-30.5 -10.5h-924q-18 0 -30.5 10t-12.5 27z " />
<glyph unicode="&#x3e;" d="M326 139q0 20 16 33l606 496q20 18 28.5 27.5t8.5 21.5t-7 22.5t-30 26.5l-604 496q-16 12 -16 32q0 16 11 26.5t26 10.5q12 0 26 -10l613 -502q23 -18 41 -42.5t18 -59.5t-18.5 -59.5t-40.5 -43.5l-615 -501q-15 -11 -27 -11q-14 0 -25 10.5t-11 26.5z" />
<glyph unicode="?" horiz-adv-x="1153" d="M143 1225q0 12 11 28q72 98 178 147.5t254 49.5q190 0 297.5 -104.5t107.5 -278.5q0 -98 -26.5 -167t-80 -124t-136 -102t-195.5 -103q-16 -8 -31 -8q-16 0 -27.5 11.5t-11.5 27.5q0 29 33 41q117 51 194.5 96t123 92.5t63.5 103.5t18 130q0 141 -87 225t-242 84 q-139 0 -221 -42t-150 -128q-10 -14 -20.5 -16t-14.5 -2q-14 0 -25.5 10t-11.5 29zM485 16v217q0 16 10.5 27.5t26.5 11.5t27.5 -11t11.5 -28v-217q0 -16 -11 -27.5t-28 -11.5q-16 0 -26.5 11.5t-10.5 27.5z" />
<glyph unicode="@" horiz-adv-x="1726" d="M158 547.5q0 62.5 1 121t5 99.5q10 141 65.5 263t147.5 212t216 141.5t271 51.5t274.5 -52.5t221.5 -144.5t148.5 -220t54.5 -280v-374q0 -49 -17.5 -89t-47.5 -69t-67.5 -45.5t-80.5 -16.5t-82 16.5t-69 45.5t-47 68.5t-17 89.5v258q0 55 -19.5 104t-55.5 88t-85 61.5 t-107 22.5q-117 0 -193.5 -73.5t-76.5 -202.5v-136q0 -63 20.5 -114t57.5 -88t86 -56.5t106 -19.5q61 0 129 24q15 7 29 7q16 0 26.5 -10.5t10.5 -26.5q0 -25 -31 -39q-39 -16 -78 -23.5t-86 -7.5q-72 0 -135 24.5t-110.5 70.5t-74 113t-26.5 148v136q0 74 25.5 137 t72 111.5t110 75t138.5 26.5q74 0 136.5 -26.5t108.5 -75t71.5 -112t25.5 -136.5v-267q0 -57 40 -98t100 -41q59 0 98 41t39 96v371q0 141 -48 258t-132 200t-198 129t-245 46q-125 0 -233.5 -43t-191.5 -121t-135 -186.5t-64 -237.5q-10 -106 -10.5 -229t10.5 -224 q12 -145 69.5 -252.5t143.5 -178t190.5 -105.5t210.5 -35q125 0 244 51q18 8 37.5 0t19.5 -30q0 -25 -27 -37q-53 -27 -126.5 -42.5t-145.5 -15.5q-121 0 -238.5 39t-214 119t-162 203t-77.5 291q-4 43 -5 101t-1 120.5z" />
<glyph unicode="A" horiz-adv-x="1357" d="M63 55l463 1266q23 59 59 93t93 34q55 0 92 -34t59 -93l463 -1266q6 -20 -4 -37.5t-33 -17.5q-25 0 -34 27l-187 512h-712l-187 -512q-10 -25 -37 -25q-23 0 -32 17.5t-3 35.5zM350 614h656l-256 703q-20 57 -72 57q-31 0 -46.5 -15.5t-25.5 -41.5z" />
<glyph unicode="B" horiz-adv-x="1368" d="M242 76v1276q0 31 18.5 53t56.5 22h469q199 0 301.5 -94t102.5 -264q0 -68 -18.5 -121t-47 -94t-65.5 -69.5t-74 -43.5q43 -16 87 -43.5t79 -69.5t57.5 -100.5t22.5 -134.5q0 -186 -109.5 -289.5t-308.5 -103.5h-496q-39 0 -57 21.5t-18 54.5zM317 76h488q178 0 263 85 t85 230q0 70 -24.5 127t-67.5 97t-101.5 61.5t-125.5 21.5h-517v-622zM317 774h486q145 0 227 80t82 213q0 143 -81 214t-228 71h-486v-578z" />
<glyph unicode="C" horiz-adv-x="1355" d="M160 702q0 92 6 195q8 113 52 213t118 175t173 118t218 43q84 0 161 -24.5t141.5 -68.5t114.5 -104.5t81 -130.5q10 -23 10 -37q0 -16 -11.5 -26.5t-25.5 -10.5q-16 0 -25.5 9.5t-13.5 21.5q-25 66 -67.5 120t-99 94t-124 61.5t-141.5 21.5q-98 0 -182 -36t-148.5 -99 t-104.5 -150.5t-48 -189.5q-7 -90 -7 -180t7 -180q8 -102 47 -190.5t101.5 -153t147.5 -100.5t187 -36q74 0 141.5 21.5t124 61.5t99.5 94.5t67 119.5q4 12 13.5 21.5t25.5 9.5q14 0 25.5 -10t11.5 -27q0 -14 -10 -37q-31 -70 -81 -130t-114.5 -104t-141.5 -68.5t-163 -24.5 q-117 0 -216 43t-173 116.5t-118 175t-52 218.5q-6 82 -6 165z" />
<glyph unicode="D" horiz-adv-x="1474" d="M242 76v1276q0 33 19.5 54t53.5 21h381q147 0 259 -46t189 -126.5t118 -191.5t47 -242q2 -53 2 -113.5t-4 -111.5q-6 -127 -48 -236.5t-119 -189.5t-188.5 -125t-255.5 -45h-381q-37 0 -55 22.5t-18 53.5zM317 76h373q135 0 234.5 38t166 105.5t101.5 162.5t41 212 q4 53 4 122.5t-4 123.5q-6 115 -42 209t-102.5 161.5t-166 104.5t-232.5 37h-373v-1276z" />
<glyph unicode="E" horiz-adv-x="1273" d="M242 76v1276q0 31 18.5 53t56.5 22h752q39 0 39 -38q0 -16 -11.5 -26.5t-27.5 -10.5h-752v-594h736q16 0 27.5 -10.5t11.5 -26.5t-11.5 -27.5t-27.5 -11.5h-736v-606h756q16 0 27.5 -11.5t11.5 -27.5t-11 -26.5t-28 -10.5h-756q-39 0 -57 21.5t-18 54.5z" />
<glyph unicode="F" horiz-adv-x="1200" d="M242 31v1323q0 29 18.5 51t54.5 22h760q39 0 39 -38q0 -16 -11 -26.5t-28 -10.5h-758v-615h719q39 0 39 -39q0 -16 -11 -26t-28 -10h-719v-631q0 -16 -10 -27.5t-26 -11.5t-27.5 11t-11.5 28z" />
<glyph unicode="G" horiz-adv-x="1437" d="M168 549q-6 83 -6 166.5t6 167.5q8 119 54 221t120 178t173 120t214 44q178 0 308 -80t200 -236q6 -14 8 -23t2 -13q0 -16 -11 -26.5t-26 -10.5q-16 0 -25 9t-14 21q-25 68 -69.5 121.5t-103 89t-127 55t-142.5 19.5q-96 0 -180 -37t-148.5 -101.5t-105.5 -150.5 t-49 -186q-7 -90 -7 -179.5t7 -178.5q8 -102 48 -189.5t104.5 -152t149.5 -101.5t183 -37q96 0 181 29t147.5 82t98.5 129t36 168v182h-381q-16 0 -28.5 11.5t-12.5 27.5t12.5 27.5t28.5 11.5h377q41 0 60.5 -22.5t19.5 -57.5v-168q0 -92 -36 -181t-104.5 -158.5 t-168 -112.5t-224.5 -43q-119 0 -219 43t-175 118.5t-121 179t-54 224.5z" />
<glyph unicode="H" horiz-adv-x="1554" d="M242 33v1366q0 16 10 27.5t27 11.5q39 0 38 -39v-643h920v643q0 16 11.5 27.5t27.5 11.5q37 0 37 -39v-1368q0 -39 -37 -39q-16 0 -27.5 11t-11.5 28v649h-920v-647q0 -16 -11 -28.5t-27 -12.5q-37 0 -37 41z" />
<glyph unicode="I" horiz-adv-x="559" d="M242 31v1368q0 16 10 27.5t27 11.5q39 0 38 -39v-1368q0 -39 -38 -39q-37 0 -37 39z" />
<glyph unicode="J" horiz-adv-x="1005" d="M86 203q0 14 10 25.5t27 11.5q23 0 37 -23q41 -70 102.5 -114t149.5 -44q57 0 108 20.5t91 59.5t63.5 97.5t23.5 136.5v1026q0 16 10.5 27.5t26.5 11.5q39 0 39 -39v-1034q0 -86 -28.5 -156t-78 -120t-115 -77.5t-138.5 -27.5q-104 0 -188.5 53t-127.5 131q-4 10 -8 16 t-4 19z" />
<glyph unicode="K" horiz-adv-x="1263" d="M242 31v1368q0 16 10 27.5t27 11.5q39 0 38 -39v-635h17q18 0 31.5 1t25.5 6t26.5 15.5t35.5 28.5l665 608q18 14 31 15q14 0 25 -13q11 -12 11 -24q0 -16 -18 -33l-702 -639l727 -670q12 -10 12 -26.5t-10 -28.5q-12 -12 -27 -12q-16 0 -26 10l-688 635q-37 35 -59.5 43 t-59.5 8h-17v-657q0 -39 -38 -39q-16 0 -26.5 11t-10.5 28z" />
<glyph unicode="L" horiz-adv-x="1122" d="M242 76v1323q0 16 10 27.5t27 11.5q39 0 38 -39v-1323h754q16 0 28.5 -10.5t12.5 -26.5t-12.5 -27.5t-28.5 -11.5h-754q-37 0 -56 21.5t-19 54.5z" />
<glyph unicode="M" horiz-adv-x="1857" d="M143 37l199 1317q8 47 39 74.5t72 27.5q47 0 72.5 -28.5t35.5 -63.5l342 -1266q6 -25 29 -24q23 0 29 24l333 1266q10 35 36 63.5t73 28.5q41 0 71.5 -27.5t38.5 -74.5l205 -1317q4 -16 -6 -31.5t-31 -15.5q-33 0 -39 30l-204 1326q-4 18 -14.5 26t-20.5 8q-27 0 -35 -32 l-330 -1256q-10 -41 -34.5 -67.5t-71.5 -26.5q-49 0 -72.5 27.5t-34.5 66.5l-338 1256q-8 33 -34 32q-14 0 -22.5 -10t-10.5 -24l-203 -1326q-4 -16 -14 -23t-21 -7q-25 0 -34 15t-5 32z" />
<glyph unicode="N" horiz-adv-x="1576" d="M242 33v1329q0 35 18.5 56.5t52.5 21.5q33 0 49.5 -16.5t26.5 -30.5l866 -1317h5v1323q0 16 10 27.5t26 11.5q39 0 39 -39v-1325q0 -35 -18.5 -56.5t-52.5 -21.5q-33 0 -49.5 16.5t-26.5 30.5l-866 1313h-5v-1323q0 -39 -38 -39q-16 0 -26.5 11t-10.5 28z" />
<glyph unicode="O" horiz-adv-x="1484" d="M168 549q-6 83 -6 166.5t6 167.5q8 119 54 221t122 178t177.5 120t219.5 44q119 0 220.5 -43t177 -119t123 -179.5t55.5 -221.5q6 -82 6 -168t-6 -166q-8 -121 -55.5 -224.5t-123 -179t-177 -118.5t-220.5 -43t-219 43t-176 118.5t-123 179t-55 224.5zM246 535 q10 -102 51 -189.5t105.5 -151t150.5 -99.5t188 -36q100 0 187.5 36t153 99.5t106.5 150.5t51 190q9 90 9 179.5t-9 178.5q-10 102 -51 189t-106.5 151.5t-152.5 100.5t-188 36q-102 0 -188 -36t-150.5 -100.5t-105.5 -151.5t-51 -189q-9 -89 -9 -178.5t9 -179.5z" />
<glyph unicode="P" horiz-adv-x="1310" d="M242 31v1321q0 31 19.5 53t55.5 22h441q96 0 176 -28.5t136 -81.5t88 -132t32 -177q0 -203 -121 -311.5t-328 -108.5h-424v-557q0 -16 -11 -27.5t-27 -11.5t-26.5 11t-10.5 28zM317 664h433q98 0 167.5 25.5t112.5 70.5t63.5 108.5t20.5 137.5q0 76 -21.5 139t-64.5 109 t-109.5 72t-156.5 26h-445v-688z" />
<glyph unicode="Q" horiz-adv-x="1486" d="M168 549q-6 83 -6 166.5t6 167.5q8 119 54 221t122 178t177.5 120t219.5 44q119 0 220.5 -43t177 -119t123 -179.5t55.5 -221.5q6 -82 6 -168t-6 -166q-10 -139 -68.5 -253t-152.5 -190l217 -268q10 -14 10 -28q0 -16 -11.5 -27.5t-27.5 -11.5q-20 0 -33 16l-221 272 q-127 -75 -285 -75h-4q-119 0 -219 43t-176 118.5t-123 179t-55 224.5zM246 535q10 -102 51 -189.5t105.5 -151t150.5 -99.5t188 -36q133 0 240 60l-244 303q-10 14 -8 30.5t14 26.5t28.5 8t27.5 -14l250 -309q80 66 129 160t61 211q9 90 9 179.5t-9 178.5q-10 102 -51 189 t-106.5 151.5t-152.5 100.5t-188 36q-102 0 -188 -36t-150.5 -100.5t-105.5 -151.5t-51 -189q-9 -89 -9 -178.5t9 -179.5z" />
<glyph unicode="R" horiz-adv-x="1388" d="M242 33v1319q0 31 19.5 53t55.5 22h439q205 0 321.5 -108.5t116.5 -306.5q0 -188 -107.5 -282.5t-293.5 -115.5l440 -557q14 -18 6 -40.5t-33 -22.5q-23 0 -32 14l-429 541q-27 35 -48 49t-64 14h-316v-579q0 -16 -11 -27.5t-27 -11.5t-26.5 11t-10.5 28zM317 688h416 q104 0 177 23.5t119 65.5t67.5 101.5t21.5 133.5q0 76 -22.5 138t-65.5 107.5t-108.5 70t-151.5 24.5h-453v-664z" />
<glyph unicode="S" horiz-adv-x="1241" d="M143 166q0 16 10.5 27.5t28.5 11.5q12 0 29 -10q82 -59 182.5 -97.5t251.5 -38.5q199 0 310.5 86t111.5 246q0 74 -31.5 123t-88 82t-132.5 53.5t-164 38.5q-90 18 -176 45t-154.5 70t-110.5 108.5t-42 161.5q0 172 125 272.5t346 100.5q111 0 211 -32t166 -85 q16 -12 16 -31q0 -18 -10 -28t-27 -10q-4 0 -13 2t-24 12q-59 41 -143 68.5t-176 27.5q-109 0 -184.5 -24.5t-122.5 -66.5t-67.5 -95.5t-20.5 -110.5q0 -80 35.5 -131t94 -86t135.5 -55.5t159 -38.5q94 -20 180 -45t151.5 -66t104.5 -103.5t39 -156.5q0 -186 -128 -296.5 t-362 -110.5q-158 0 -271.5 37.5t-215.5 105.5q-23 14 -23 39z" />
<glyph unicode="T" horiz-adv-x="1198" d="M49 1391q0 16 12.5 26t28.5 10h1018q16 0 28.5 -10t12.5 -26t-12.5 -27.5t-28.5 -11.5h-469v-1319q0 -16 -11.5 -28.5t-27.5 -12.5q-37 0 -37 41v1319h-473q-16 0 -28.5 11t-12.5 28z" />
<glyph unicode="U" horiz-adv-x="1531" d="M219 553v846q0 16 10.5 27.5t26.5 11.5q39 0 39 -39v-830q0 -117 36 -211t98.5 -160.5t148.5 -102.5t188 -36q100 0 187 36t150.5 102.5t99.5 161t36 210.5v830q0 16 10.5 27.5t26.5 11.5q39 0 39 -39v-846q0 -127 -41 -231.5t-115 -180t-174 -116.5t-219 -41t-219.5 41 t-173 116.5t-113.5 180t-41 231.5z" />
<glyph unicode="V" horiz-adv-x="1327" d="M61 1384q-6 18 3.5 36t31.5 18q27 0 37 -27l500 -1329q8 -23 31 -23t30 23l500 1327q4 16 15.5 21.5t21.5 5.5q23 0 34 -17.5t3 -40.5l-494 -1300q-18 -47 -43.5 -70.5t-66.5 -23.5t-67 23.5t-44 70.5z" />
<glyph unicode="W" horiz-adv-x="1855" d="M92 1391q-4 18 6.5 33.5t30.5 15.5q29 0 37 -29l303 -1337q4 -14 16.5 -14t16.5 14l366 1284q10 35 31 56.5t57 21.5q35 0 55.5 -21.5t30.5 -56.5l357 -1284q4 -14 16 -14t17 14l313 1335q4 14 14 22.5t23 8.5q20 0 29.5 -12.5t9.5 -24.5q0 -4 -1 -6t-1 -6l-312 -1336 q-8 -35 -33.5 -53t-58.5 -18q-31 0 -55.5 19.5t-34.5 53.5l-364 1295q-2 6 -7.5 6t-7.5 -6l-368 -1297q-10 -35 -35 -53t-58 -18q-31 0 -55 19.5t-35 53.5z" />
<glyph unicode="X" horiz-adv-x="1292" d="M82 29q0 16 10 28l502 656l-504 659q-14 18 -5 41t34 23q18 0 28 -15l496 -649l496 649q10 14 28 15q25 0 34 -22.5t-5 -41.5l-506 -661l504 -654q10 -12 10 -28t-10 -25.5t-27 -9.5q-23 0 -30 14l-496 639l-491 -639q-8 -14 -31 -14q-16 0 -26.5 9t-10.5 26z" />
<glyph unicode="Y" horiz-adv-x="1302" d="M43 1403q0 14 11.5 24.5t25.5 10.5q18 0 29 -13l542 -675l543 675q11 15 29 15q16 0 27.5 -10.5t11.5 -26.5q0 -12 -11 -27l-526 -651q-23 -29 -29 -48.5t-6 -43.5v-602q0 -16 -11 -27.5t-28 -11.5q-16 0 -26.5 11t-10.5 28v602q0 25 -8 44t-31 48l-524 653q-8 10 -8 25z " />
<glyph unicode="Z" horiz-adv-x="1185" d="M139 66q0 29 17 51l858 1235h-834q-16 0 -28.5 10t-12.5 27q0 16 12.5 27t28.5 11h834q37 0 58.5 -19t21.5 -46q0 -29 -17 -51l-858 -1235h834q16 0 28.5 -10.5t12.5 -26.5t-12.5 -27.5t-28.5 -11.5h-834q-37 0 -58.5 19.5t-21.5 46.5z" />
<glyph unicode="[" horiz-adv-x="694" d="M231 -283v1833q0 29 19.5 51.5t56.5 22.5h322q16 0 28.5 -10t12.5 -27q0 -16 -12.5 -27.5t-28.5 -11.5h-322v-1831h322q18 0 29.5 -10t11.5 -26t-12.5 -27.5t-28.5 -11.5h-320q-39 0 -58.5 23.5t-19.5 51.5z" />
<glyph unicode="\" horiz-adv-x="638" d="M-11 1475.5q5 15.5 21 21.5q35 14 51 -27l584 -1482q4 -14 0 -29.5t-20 -21.5t-30.5 1t-19.5 21l-585 1485q-6 16 -1 31.5z" />
<glyph unicode="]" horiz-adv-x="694" d="M27 -319q0 16 11 26t30 10h321v1831h-321q-16 0 -28.5 11.5t-12.5 27.5t12 26.5t29 10.5h321q37 0 56.5 -22.5t19.5 -51.5v-1833q0 -29 -19.5 -52t-58.5 -23h-319q-16 0 -28.5 11.5t-12.5 27.5z" />
<glyph unicode="^" horiz-adv-x="1384" d="M342 801l240 569q23 55 52.5 76.5t57.5 21.5q29 0 58.5 -21.5t52.5 -76.5l239 -569q8 -18 -3 -35.5t-33 -17.5q-29 0 -37 24l-248 598q-4 8 -10 16.5t-19 8.5q-12 0 -18 -8.5t-10 -16.5l-248 -598q-10 -25 -37 -24q-23 0 -34 17t-3 36z" />
<glyph unicode="_" horiz-adv-x="966" d="M0 -315h967v-76h-967v76z" />
<glyph unicode="`" horiz-adv-x="659" d="M154 1726q0 16 11 26.5t25 10.5q12 0 25 -6l277 -141q25 -12 24 -37q0 -16 -11 -26.5t-26 -10.5q-12 0 -24 6l-277 142q-25 12 -24 36z" />
<glyph unicode="a" horiz-adv-x="1159" d="M150 319q0 139 103 227.5t288 88.5q143 0 344 -55v133q0 147 -79 213.5t-228 66.5q-78 0 -153 -20.5t-130 -46.5q-23 -10 -42.5 1t-19.5 34q0 25 25 38q49 27 137 48.5t183 21.5q174 0 278.5 -83t104.5 -271v-572q0 -14 -4.5 -24t-18.5 -21q-53 -39 -149.5 -77.5 t-235.5 -38.5q-199 0 -301 90t-102 247zM225 319q0 -123 79 -192.5t249 -69.5q123 0 207 34t125 69v342q-100 29 -178 43t-168 14q-141 0 -227.5 -63.5t-86.5 -176.5z" />
<glyph unicode="b" horiz-adv-x="1232" d="M221 147v1254q0 18 11.5 30.5t27.5 12.5t26.5 -12.5t10.5 -30.5v-412q63 29 151.5 54.5t190.5 25.5q188 0 292 -101t120 -294q2 -29 3 -67t1 -79t-1 -78.5t-3 -64.5q-16 -193 -121 -298t-303 -105q-61 0 -124 14t-115 34.5t-91 40t-55 31.5q-16 10 -18.5 22.5t-2.5 22.5z M297 160q20 -14 58 -32.5t83 -34t94.5 -26t94.5 -10.5q162 0 245 80t99 234q2 29 4 71.5t2 87.5t-2 87t-4 71q-10 143 -87 224t-243 81q-53 0 -104.5 -8t-97.5 -21.5t-83 -28.5t-59 -28v-747z" />
<glyph unicode="c" horiz-adv-x="1138" d="M176 529q0 83 4 145q4 88 37 161.5t89 126t135 82t173 29.5q100 0 174 -36t120 -84t68.5 -98t22.5 -77q0 -18 -12 -28.5t-24 -10.5q-33 0 -41 37q-18 57 -51 99.5t-74 70t-88 39.5t-95 12q-156 0 -251 -87t-105 -230q-2 -25 -3 -65t-1 -84t1 -86t3 -68q4 -68 29.5 -126 t70.5 -101.5t108.5 -68t147.5 -24.5q47 0 94.5 12.5t88.5 40t73.5 68.5t51.5 101q8 37 41 36q12 0 24 -10t12 -29q0 -29 -22.5 -77.5t-68.5 -97t-119.5 -84t-174.5 -35.5q-98 0 -177 30.5t-135 85t-88 128t-34 159.5q-4 61 -4 144z" />
<glyph unicode="d" horiz-adv-x="1228" d="M176 528q0 41 1 79t3 67q16 193 119.5 294t292.5 101q102 0 190 -25.5t152 -54.5v412q0 18 10 30.5t27 12.5q16 0 27.5 -12.5t11.5 -30.5v-1254q0 -10 -2 -22t-19 -23q-16 -12 -55 -31.5t-91 -40t-114.5 -34.5t-124.5 -14q-199 0 -303 105.5t-121 297.5q-2 27 -3 64.5 t-1 78.5zM254 530q0 -45 1 -87.5t5 -71.5q16 -154 99 -234t245 -80q45 0 94.5 10.5t94.5 26t82.5 32.5t58.5 32v749q-23 12 -59.5 27.5t-83 29t-98.5 21.5t-103 8q-166 0 -243 -81t-87 -224q-2 -29 -4 -71t-2 -87z" />
<glyph unicode="e" horiz-adv-x="1175" d="M175 546q1 62 5 109q6 98 40 175t90.5 130.5t133 81t166.5 27.5q94 0 171 -32.5t131.5 -89t83 -134.5t28.5 -166v-55q0 -45 -25.5 -72.5t-80.5 -27.5h-666v-56q0 -180 100.5 -279.5t263.5 -99.5q55 0 125 12.5t158 49.5q8 4 21 4q16 0 26 -11.5t10 -25.5q0 -10 -6 -20.5 t-18 -16.5q-25 -12 -61.5 -24.5t-79.5 -21.5t-87.5 -15t-82.5 -6q-215 0 -326 121.5t-119 324.5q-1 37 -1 77v41zM252 567h663q31 0 33 33q1 14 1 27q1 76 -19 139q-22 74 -66.5 124t-109 76.5t-144.5 26.5q-184 -1 -273 -111q-85 -106 -85 -298v-17z" />
<glyph unicode="f" horiz-adv-x="727" d="M104 993q0 16 12.5 27.5t28.5 11.5h93v113q0 68 16 125t51 98t88 63.5t129 22.5q51 0 92 -6t66 -14q35 -10 35 -39q0 -10 -9.5 -22.5t-29.5 -12.5t-55 9t-99 9q-117 0 -163 -62.5t-46 -170.5v-113h328q16 0 28.5 -11t12.5 -28q0 -16 -12.5 -26.5t-28.5 -10.5h-328v-923 q0 -16 -11 -28.5t-28 -12.5q-16 0 -26 12t-10 29v923h-93q-16 0 -28.5 10.5t-12.5 26.5z" />
<glyph unicode="g" horiz-adv-x="1228" d="M172 538.5q0 36.5 1 70.5t3 57q12 197 122 300t304 103q57 0 112.5 -8t104.5 -22.5t89 -31t67 -34.5q18 -12 25.5 -24.5t7.5 -35.5v-827q0 -96 -27 -179t-79 -143.5t-129 -95.5t-177 -35q-121 0 -206 33t-130 62q-37 25 -37 47q0 39 39 39q10 0 22.5 -6.5t22.5 -14.5 q57 -41 133 -63.5t154 -22.5q76 0 137.5 26.5t106.5 75t69.5 116t24.5 151.5v16q-66 -35 -150 -61.5t-186 -26.5q-193 0 -300.5 108.5t-119.5 299.5q-2 23 -3 56.5t-1 70zM248 539q0 -39 2 -76t4 -66q6 -68 26.5 -126t61.5 -101t104.5 -66.5t153.5 -23.5q127 0 211 37 t121 67v725q-43 29 -134 56.5t-200 27.5q-88 0 -149.5 -22.5t-102.5 -63.5t-63.5 -98t-28.5 -127q-4 -29 -5 -66.5t-1 -76.5z" />
<glyph unicode="h" horiz-adv-x="1265" d="M221 31v1372q0 16 11.5 28.5t27.5 12.5t26.5 -12.5t10.5 -28.5v-508q33 37 76 68.5t92 56t102.5 38t106.5 13.5q82 0 153.5 -24.5t122.5 -74.5t81 -124t30 -172v-643q0 -18 -10.5 -29.5t-26.5 -11.5t-27.5 11t-11.5 30v639q0 147 -78 235t-229 88q-57 0 -112.5 -16 t-104.5 -44t-91 -64.5t-73 -79.5v-760q0 -39 -37 -39q-39 0 -39 39z" />
<glyph unicode="i" horiz-adv-x="534" d="M201 1360q0 29 19.5 48t47.5 19q29 0 47.5 -19t18.5 -48t-18.5 -48.5t-47.5 -19.5t-48 19.5t-19 48.5zM229 33v981q0 16 10.5 28.5t26.5 12.5t27.5 -12.5t11.5 -28.5v-981q0 -16 -11 -28.5t-28 -12.5q-16 0 -26.5 12t-10.5 29z" />
<glyph unicode="j" horiz-adv-x="514" d="M37 -356q0 18 12 30q45 49 76 94.5t49.5 94.5t26.5 106.5t8 128.5v916q0 16 10 28.5t27 12.5q16 0 27.5 -11.5t11.5 -27.5v-901q0 -92 -11.5 -162t-35 -126t-56 -105.5t-76.5 -98.5q-14 -16 -32 -16q-16 0 -26.5 10t-10.5 27zM180 1360q0 29 19.5 48t48.5 19t47 -19 t18 -48t-18.5 -48.5t-46.5 -19.5q-29 0 -48.5 19.5t-19.5 48.5z" />
<glyph unicode="k" horiz-adv-x="1048" d="M221 29v1376q0 16 10.5 27.5t26.5 11.5q39 0 39 -39v-821h51q47 0 69.5 11t53.5 42l428 412q14 14 31 14q14 0 25.5 -10.5t11.5 -26.5q0 -18 -17 -35l-463 -446l484 -482q14 -14 14 -30t-11 -27.5t-28 -11.5q-16 0 -28 12l-447 447q-31 31 -54.5 43t-70.5 12h-49v-477 q0 -39 -37 -39q-16 0 -27.5 10t-11.5 27z" />
<glyph unicode="l" horiz-adv-x="518" d="M221 33v1370q0 16 10.5 28.5t26.5 12.5q18 0 28.5 -12.5t10.5 -28.5v-1370q0 -16 -9 -28.5t-28 -12.5q-16 0 -27.5 12t-11.5 29z" />
<glyph unicode="m" horiz-adv-x="1818" d="M223 33v878q0 20 7.5 31.5t27.5 28.5q59 45 145 72.5t189 27.5q123 0 196.5 -41t114.5 -106q27 25 60.5 51t76.5 47.5t96.5 35t114.5 13.5q182 0 272.5 -97t90.5 -290v-651q0 -16 -11.5 -28.5t-27.5 -12.5t-26.5 12t-10.5 29v651q0 166 -74.5 238.5t-212.5 72.5 q-57 0 -106 -14t-90 -36.5t-72 -48.5t-49 -46q12 -41 17 -83t5 -89v-645q0 -16 -10 -28.5t-26 -12.5t-27.5 12t-11.5 29v653q0 162 -79 235.5t-210 73.5q-109 0 -180.5 -27.5t-112.5 -60.5v-874q0 -16 -10 -28.5t-29 -12.5q-16 0 -26.5 12t-10.5 29z" />
<glyph unicode="n" horiz-adv-x="1269" d="M225 33v874q0 23 6.5 35t28.5 25q20 12 57 30.5t87.5 34t112 26.5t134.5 11q188 0 300 -97.5t112 -295.5v-643q0 -16 -9.5 -28.5t-27.5 -12.5q-16 0 -27.5 12t-11.5 29v641q0 86 -24.5 146.5t-69.5 99t-106.5 56t-137.5 17.5q-104 0 -199.5 -28.5t-148.5 -63.5v-868 q0 -16 -10 -28.5t-29 -12.5q-16 0 -26.5 12t-10.5 29z" />
<glyph unicode="o" horiz-adv-x="1210" d="M174 530q0 82 4 144q2 88 36 160.5t90 125t134 81t168 28.5t166 -28.5t133.5 -81t90 -125t36.5 -160.5q4 -61 4 -143t-4 -144q-4 -88 -36.5 -161.5t-90 -128t-133.5 -85t-166 -30.5t-168 30.5t-134 85t-90 128t-36 161.5q-4 61 -4 143zM254 530q0 -43 1 -83.5t3 -71.5 q12 -143 105.5 -230.5t242.5 -87.5q147 0 240.5 87t105.5 231q2 31 4 71.5t2 82.5t-2 83t-4 72q-4 68 -29.5 124t-70.5 98t-107.5 64.5t-138.5 22.5q-78 0 -140.5 -22.5t-107.5 -64.5t-70.5 -98t-29.5 -124q-2 -31 -3 -71t-1 -83z" />
<glyph unicode="p" horiz-adv-x="1234" d="M221 -350v1253q0 10 2 22.5t19 22.5q16 12 55 31.5t91 40t114.5 35t124.5 14.5q199 0 303 -105.5t121 -297.5q2 -27 3 -65t1 -79t-1 -79.5t-3 -65.5q-16 -193 -120 -294t-292 -101q-102 0 -190.5 25.5t-151.5 53.5v-411q0 -18 -10.5 -30.5t-26.5 -12.5t-27.5 12t-11.5 31 zM299 143q23 -12 59.5 -27.5t81.5 -28.5t96.5 -21.5t104.5 -8.5q166 0 243 81t87 224q2 27 4 70t2 88t-2 88t-4 72q-16 154 -99.5 233.5t-244.5 79.5q-45 0 -94.5 -10t-94.5 -25.5t-82 -33t-57 -31.5v-750z" />
<glyph unicode="q" horiz-adv-x="1228" d="M178 522q0 41 1 79t3 65q16 193 121 298t303 105q61 0 124 -14.5t115 -35t91 -39.5t55 -32q16 -10 18.5 -22.5t2.5 -22.5v-1253q0 -18 -11.5 -30.5t-27.5 -12.5t-26.5 12t-10.5 31v411q-63 -29 -151.5 -54t-190.5 -25q-188 0 -292 101t-120 294q-2 27 -3 65.5t-1 79.5z M256 520q0 -45 2 -88t4 -70q10 -143 87 -224t243 -81q51 0 103.5 8.5t98.5 21.5t82.5 28.5t59.5 27.5v750q-20 14 -58 31.5t-83 33t-94.5 25.5t-94.5 10q-162 0 -245 -79.5t-99 -233.5q-4 -29 -5 -72t-1 -88z" />
<glyph unicode="r" horiz-adv-x="735" d="M213 31v735q0 147 80 225t229 78q53 0 96 -6t68 -12q35 -10 35 -39q0 -10 -9.5 -22.5t-25.5 -12.5q-23 0 -63.5 8t-100.5 8q-123 -2 -178 -56t-55 -173v-733q0 -39 -39 -39q-16 0 -26.5 11t-10.5 28z" />
<glyph unicode="s" horiz-adv-x="972" d="M133 131q0 16 10.5 27.5t26.5 11.5q14 0 31 -12q59 -49 140 -75t171 -26q127 0 201.5 65.5t74.5 162.5q0 76 -47 114.5t-116.5 63t-151.5 42t-151.5 46.5t-116.5 80t-47 143q0 135 95 215t255 80q82 0 152.5 -25.5t117.5 -58.5q21 -15 21 -32q0 -14 -13 -29 q-10 -12 -26.5 -11.5t-30.5 11.5q-101 69 -218 69h-3q-131 0 -203 -55t-72 -164q0 -72 47.5 -109.5t117 -60t151.5 -39t151.5 -47.5t116.5 -84t47 -149q0 -68 -24.5 -123.5t-69.5 -95t-110.5 -62t-145.5 -22.5q-217 0 -364 116q-17 10 -17 33z" />
<glyph unicode="t" horiz-adv-x="804" d="M209 272v949q0 16 11 27.5t28 11.5q37 0 37 -39v-189h354q16 0 28.5 -10t12.5 -27q0 -18 -12.5 -28.5t-28.5 -10.5h-354v-692q0 -86 45 -145.5t149 -59.5q41 0 88 12.5t88 28.5q20 10 40 1t20 -31q0 -27 -33 -41q-43 -20 -93 -32.5t-110 -12.5q-72 0 -123 22.5t-83.5 60 t-48 91t-15.5 114.5z" />
<glyph unicode="u" horiz-adv-x="1269" d="M205 375v641q0 16 12 27.5t27 11.5q16 0 26.5 -11.5t10.5 -27.5v-641q0 -74 25.5 -133.5t69.5 -100.5t106.5 -62.5t135.5 -21.5q123 0 207 34t144 75v848q0 16 10 28.5t27 12.5q16 0 27 -12.5t11 -28.5v-858q0 -33 -26 -50q-23 -14 -58.5 -35.5t-85 -41t-112 -33.5 t-139.5 -14q-88 0 -165 25.5t-133.5 75.5t-88 124t-31.5 168z" />
<glyph unicode="v" horiz-adv-x="1011" d="M55 1020q0 16 11.5 26.5t25.5 10.5q29 0 39 -29l367 -954q4 -10 12 -9t12 9l367 954q10 29 39 29q14 0 25.5 -10.5t11.5 -26.5q0 -6 -4 -19l-361 -940q-29 -73 -90 -73q-63 0 -90 73l-361 940q-4 12 -4 19z" />
<glyph unicode="w" horiz-adv-x="1669" d="M92 1008q-6 23 6.5 38t30.5 15q10 0 21.5 -6t15.5 -23l291 -975q4 -10 10 -10t10 10l273 928q20 76 88 76q63 0 84 -76l272 -928q4 -10 10 -10t10 10l291 975q4 16 15.5 22.5t21.5 6.5q18 0 30.5 -15.5t6.5 -37.5l-287 -965q-10 -37 -35.5 -55.5t-54.5 -18.5 q-63 0 -84 74l-272 932q-4 8 -10.5 8t-10.5 -8l-272 -932q-23 -74 -84 -74q-29 0 -54.5 18.5t-35.5 55.5z" />
<glyph unicode="x" horiz-adv-x="1091" d="M125 29q0 16 10 28l365 482l-340 450q-16 20 -5 42t33 22q18 0 29 -15l330 -438l327 438q10 14 29 15q23 0 35 -20.5t-4 -41.5l-340 -452l364 -480q11 -12 11 -28t-10.5 -25.5t-26.5 -9.5q-23 0 -31 14l-354 465l-354 -467q-8 -14 -31 -14q-16 0 -26.5 9t-10.5 26z" />
<glyph unicode="y" horiz-adv-x="1007" d="M66 995q-8 23 2 39.5t30 16.5q16 0 25.5 -8.5t13.5 -18.5l375 -844q6 -12 12 -12q4 0 11 12l342 842q6 12 13 20.5t23 8.5q18 0 28.5 -16.5t4.5 -33.5l-389 -970q-27 -68 -61.5 -129.5t-73.5 -113.5t-80 -92t-80 -61q-16 -8 -24.5 -10t-18.5 -2t-23.5 8.5t-13.5 28.5 q0 23 25 35q78 39 150.5 127t127.5 237z" />
<glyph unicode="z" horiz-adv-x="1052" d="M145 66q0 29 17 51l694 839h-633q-16 0 -28.5 10.5t-12.5 26.5t12.5 27.5t28.5 11.5h633q37 0 58.5 -19.5t21.5 -45.5q0 -33 -16 -52l-695 -839h654q16 0 28.5 -10.5t12.5 -26.5t-12.5 -27.5t-28.5 -11.5h-654q-37 0 -58.5 19.5t-21.5 46.5z" />
<glyph unicode="{" horiz-adv-x="688" d="M76 645q0 20 11 33.5t24 23.5q53 41 83.5 94.5t30.5 153.5v533q0 57 40 98t97 41h259q16 0 28.5 -10t12.5 -27q0 -16 -12.5 -27.5t-28.5 -11.5h-256q-27 0 -45.5 -18.5t-18.5 -44.5v-533q0 -66 -13.5 -117t-35 -87.5t-46 -61.5t-44.5 -39q20 -16 44.5 -40.5t46 -61.5 t35 -87t13.5 -116v-557q0 -27 18.5 -45.5t45.5 -18.5h256q16 0 28.5 -11t12.5 -27t-12.5 -26.5t-28.5 -10.5h-259q-57 0 -97 41t-40 98v559q0 94 -30.5 148.5t-83.5 95.5q-12 10 -23.5 23.5t-11.5 35.5z" />
<glyph unicode="|" horiz-adv-x="628" d="M270 -246v1915q0 16 10.5 28.5t26.5 12.5q18 0 28.5 -12t10.5 -29v-1915q0 -16 -11 -28.5t-28 -12.5q-16 0 -26.5 12.5t-10.5 28.5z" />
<glyph unicode="}" horiz-adv-x="688" d="M25 -319q0 16 12 27t29 11h256q27 0 45 18.5t18 45.5v557q0 66 13.5 116t35 87t45 61.5t45.5 40.5q-23 14 -46 39t-44.5 61.5t-35 88t-13.5 116.5v533q0 27 -18.5 45t-44.5 18h-256q-16 0 -28.5 11.5t-12.5 27.5t12 26.5t29 10.5h258q57 0 97 -41t40 -98v-533 q0 -100 30.5 -153.5t83.5 -94.5q12 -10 23.5 -23t11.5 -34q0 -23 -11 -36t-24 -23q-53 -41 -83.5 -95.5t-30.5 -148.5v-559q0 -57 -40 -98t-97 -41h-258q-16 0 -28.5 10t-12.5 27z" />
<glyph unicode="~" horiz-adv-x="1259" d="M184 694q0 18 10.5 28.5t24.5 16.5q68 31 117 46.5t94 15.5q57 0 106.5 -17.5t96.5 -37t95 -37t106 -17.5q41 0 82 14.5t96 43.5q14 8 26 8q16 0 26.5 -12.5t10.5 -24.5q0 -27 -31 -41q-78 -35 -128 -50.5t-87 -15.5q-59 0 -107 17.5t-95 37t-95.5 37t-105.5 17.5 q-43 0 -82 -12.5t-92 -40.5q-16 -8 -31 -8q-18 0 -27.5 11t-9.5 21z" />
<glyph unicode="&#xa1;" horiz-adv-x="399" d="M160 46q0 -16 11 -28.5t30 -12.5q39 0 39 41l-9 888q0 37 -30 37q-14 0 -23.5 -10t-9.5 -27zM162 1196q0 -16 10 -27t27 -11q16 0 27.5 11t11.5 27v218q0 16 -11.5 27t-27.5 11t-26.5 -11t-10.5 -27v-218z" />
<glyph unicode="&#xa2;" horiz-adv-x="1073" d="M240 666.5v60.5q0 25 1 50.5t3 49.5q14 154 104 252.5t238 114.5v217q0 18 11 29.5t28 11.5q16 0 27.5 -12.5t11.5 -28.5v-217q98 -10 179 -71.5t115 -143.5q6 -16 7 -29q0 -16 -10.5 -26.5t-26.5 -10.5t-26.5 10.5t-14.5 26.5q-29 72 -99.5 119t-160.5 47 q-137 0 -214 -81t-87 -210q-4 -59 -4 -110.5t4 -108.5q10 -129 86.5 -209t214.5 -80q90 0 160.5 47.5t99.5 118.5q4 16 14 26.5t27 10.5q16 0 26.5 -10t10.5 -27q0 -14 -7 -28q-16 -41 -45.5 -78t-68.5 -65.5t-85 -47t-95 -24.5v-217q0 -16 -11.5 -28.5t-27.5 -12.5 t-27.5 11t-11.5 30v217q-147 16 -237.5 114.5t-104.5 253.5q-4 29 -4 58.5z" />
<glyph unicode="&#xa3;" horiz-adv-x="1116" d="M27 668q0 16 12 26.5t29 10.5h139q-18 92 -40 181t-22 167q0 82 28 154.5t81 127t131 86t178 31.5q72 0 131.5 -14.5t105.5 -38t82 -52t62 -55.5q8 -8 15.5 -18t7.5 -21q0 -39 -39 -39q-10 0 -18.5 5.5t-14.5 11.5q-74 74 -147.5 109.5t-184.5 35.5q-94 0 -159.5 -29.5 t-105.5 -75.5t-57.5 -103.5t-17.5 -110.5q0 -82 20.5 -166t41.5 -186h362q16 0 28.5 -11.5t12.5 -25.5q0 -18 -12 -28.5t-29 -10.5h-348q4 -18 4 -37v-37q0 -117 -39 -239.5t-104 -239.5h813q16 0 28.5 -10.5t12.5 -28.5q0 -16 -11.5 -26.5t-29.5 -10.5h-836q-29 0 -45 17.5 t-16 39.5q0 29 16 56q27 43 51.5 97t43 111.5t29.5 116t11 113.5q0 41 -6 78h-153q-16 0 -28.5 11t-12.5 28z" />
<glyph unicode="&#xa4;" horiz-adv-x="1277" d="M111 229q0 16 12 29l203 207q-23 41 -38.5 90t-17.5 100q-2 61 0 125q2 51 17.5 102.5t38.5 92.5l-203 207q-12 12 -12 28q0 14 11 26.5t25 12.5q16 0 31 -14l197 -201q51 49 112.5 81t151.5 32t151.5 -32t112.5 -81l197 201q14 14 30 14q14 0 25.5 -12t11.5 -27 q0 -16 -12 -28l-203 -207q23 -41 38.5 -92.5t17.5 -102.5q2 -63 0 -125q-2 -51 -17.5 -100t-38.5 -90l203 -207q12 -12 12 -29q0 -14 -11 -26.5t-26 -12.5q-16 0 -30 15l-197 201q-51 -49 -112.5 -81t-151.5 -32t-151.5 31.5t-112.5 81.5l-197 -201q-14 -14 -31 -15 q-14 0 -25 12.5t-11 26.5zM343 720q1 -40 3 -75q4 -59 28.5 -109.5t63.5 -87t90.5 -58t110.5 -21.5t110.5 21.5t90.5 58t63.5 87t28.5 109.5q2 35 3 75t-3 75q-4 59 -28.5 109t-63.5 87t-90.5 58.5t-110.5 21.5t-110.5 -21.5t-90.5 -58.5t-63.5 -87t-28.5 -109 q-4 -35 -3 -75z" />
<glyph unicode="&#xa5;" horiz-adv-x="1302" d="M43 1403q0 14 11.5 24.5t25.5 10.5q18 0 29 -13l542 -675l543 675q11 15 29 15q16 0 27.5 -10.5t11.5 -26.5q0 -12 -11 -27l-526 -651q-23 -29 -29 -48.5t-6 -43.5v-43h320q16 0 27.5 -11.5t11.5 -27.5q0 -14 -10.5 -25.5t-30.5 -11.5h-318v-483q0 -16 -11 -27.5 t-28 -11.5q-16 0 -26.5 11t-10.5 28v483h-315q-20 0 -30.5 11.5t-10.5 25.5q0 16 11.5 27.5t27.5 11.5h317v43q0 25 -8 44t-31 48l-524 653q-8 10 -8 25z" />
<glyph unicode="&#xa6;" horiz-adv-x="628" d="M268 -246v842q0 16 10.5 28.5t26.5 12.5q18 0 28.5 -12.5t10.5 -28.5v-842q0 -16 -11 -28.5t-28 -12.5q-16 0 -26.5 12.5t-10.5 28.5zM268 827v842q0 16 10.5 28.5t26.5 12.5q18 0 28.5 -12t10.5 -29v-842q0 -16 -11 -28.5t-28 -12.5q-16 0 -26.5 12.5t-10.5 28.5z" />
<glyph unicode="&#xa7;" horiz-adv-x="1206" d="M195 -63q0 14 10 24t26 10q10 0 22.5 -7t22.5 -13q74 -47 164 -66.5t162 -19.5q88 0 149.5 24.5t100.5 63.5t57.5 87t18.5 95q0 74 -23.5 119t-68.5 73.5t-111 48t-147 40.5q-98 25 -164 52.5t-106 61t-57.5 75.5t-17.5 95q0 43 20.5 90.5t53.5 81.5q-84 82 -84 228 q0 76 30 140.5t82 111.5t124.5 72.5t161.5 25.5q131 0 226 -39t144 -78q6 -6 10.5 -13t4.5 -20q0 -14 -11.5 -24t-27.5 -10q-12 0 -21.5 7t-19.5 11q-147 90 -299 90q-86 0 -148.5 -24.5t-101.5 -63.5t-57.5 -87t-18.5 -93q0 -74 23.5 -121t67.5 -79t108.5 -52t146.5 -41 q98 -25 164 -51.5t105.5 -59t57 -75t17.5 -97.5q0 -41 -20.5 -89t-50.5 -83q47 -43 65.5 -94t18.5 -127t-30 -140.5t-82 -110.5t-125 -71.5t-161 -25.5q-66 0 -126 10.5t-112.5 27.5t-93.5 37.5t-65 41.5q-14 14 -14 31zM309 694q0 -33 12.5 -61.5t45 -53t89 -47 t142.5 -43.5q74 -16 140.5 -38t115.5 -45q23 20 40 57t17 74q0 33 -12 61.5t-45 53t-89 47t-142 42.5q-74 16 -140.5 39t-115.5 45q-23 -20 -40.5 -57t-17.5 -74z" />
<glyph unicode="&#xa8;" horiz-adv-x="659" d="M125 1626q0 25 17 42.5t42 17.5q27 0 44.5 -17.5t17.5 -42.5q0 -27 -17.5 -44t-44.5 -17q-25 0 -42 17t-17 44zM414 1626q0 25 17 42.5t44 17.5q25 0 42.5 -17.5t17.5 -42.5q0 -27 -17.5 -44t-42.5 -17q-27 0 -44 17t-17 44z" />
<glyph unicode="&#xa9;" horiz-adv-x="1683" d="M233 549q-12 166 0 334q8 119 59.5 221t133.5 178t188.5 120t225.5 44t225 -43t188 -119t134.5 -179.5t60.5 -221.5q6 -82 6 -168t-6 -166q-8 -121 -60.5 -224.5t-134.5 -179t-188 -118.5t-225 -43t-225.5 43t-188.5 118.5t-133 179t-60 224.5zM311 535 q10 -102 56.5 -189.5t117 -151t162 -99.5t193.5 -36q100 0 192 36t164 99.5t118 150.5t56 190q18 180 0 358q-10 102 -56 189t-118 151.5t-164 100.5t-192 36q-102 0 -193.5 -36t-162 -100.5t-116.5 -151.5t-57 -189q-18 -178 0 -358zM496 721q0 43 4 92q6 70 31.5 132.5 t70.5 107.5t104.5 71.5t133.5 26.5q96 0 182 -49t125 -137q4 -8 7 -18.5t3 -16.5q0 -18 -10 -28.5t-27 -10.5q-14 0 -23.5 8t-13.5 19q-29 66 -89 111.5t-154 45.5q-113 0 -183.5 -74.5t-81.5 -191.5q-4 -49 -4 -87t4 -87q10 -117 81 -191.5t184 -74.5q94 0 154.5 46 t88.5 111q4 10 13.5 18.5t23.5 8.5q16 0 26.5 -10.5t10.5 -28.5q0 -6 -3 -16.5t-7 -18.5q-39 -88 -125 -137t-182 -49q-74 0 -133.5 26.5t-104.5 71.5t-70.5 106.5t-31.5 133.5q-4 47 -4 90z" />
<glyph unicode="&#xaa;" horiz-adv-x="983" d="M104.5 1002.5q-0.5 68.5 4.5 119.5q8 147 96 234.5t244 87.5q59 0 111 -11.5t94 -26.5t74 -32.5t48 -30.5q6 -8 9 -13t3 -19v-398q0 -111 21.5 -173t52.5 -105q10 -17 10 -29q0 -16 -12 -27.5t-29 -11.5q-23 0 -34 19q-12 16 -28.5 51t-25.5 57q-57 -53 -136 -92 t-167 -39q-80 0 -140 23.5t-102 66.5t-63.5 101.5t-25.5 128.5q-4 51 -4.5 119.5zM180 1002.5q0 -29.5 1 -59.5t3 -50q4 -57 19.5 -103.5t46.5 -80t78.5 -52t117.5 -18.5q78 0 153 41t124 100q-10 61 -10 137v152v221q-31 27 -106 52.5t-161 25.5q-133 0 -193 -71.5 t-69 -186.5q-2 -20 -3 -49t-1 -58.5z" />
<glyph unicode="&#xab;" horiz-adv-x="1056" d="M113 709q0 35 18.5 59.5t40.5 42.5l266 238q31 25 56 -5q10 -14 7 -29.5t-16 -25.5l-258 -231q-20 -18 -28.5 -27.5t-8.5 -21.5t8.5 -21.5t28.5 -28.5l258 -231q12 -10 15.5 -25.5t-6.5 -29.5q-25 -29 -56 -4l-266 237q-23 18 -41 43t-18 60zM442 709q0 35 18.5 59.5 t41.5 42.5l266 238q15 10 27 10q14 0 25 -10.5t11 -26.5q0 -20 -16 -33l-258 -231q-20 -18 -28.5 -27.5t-8.5 -21.5t8.5 -21.5t28.5 -28.5l258 -231q16 -12 16 -33q0 -16 -11 -26.5t-25 -10.5q-12 0 -27 11l-266 237q-23 18 -41.5 43t-18.5 60z" />
<glyph unicode="&#xac;" d="M123 721q0 18 12 28.5t31 10.5h932q31 0 48 -18.5t17 -45.5v-456q0 -43 -37 -43q-16 0 -27.5 12t-11.5 31v444h-921q-18 0 -30.5 10.5t-12.5 26.5z" />
<glyph unicode="&#xad;" horiz-adv-x="716" d="M133 586q0 18 12.5 28.5t28.5 10.5h369q16 0 28.5 -10.5t12.5 -26.5t-12.5 -27.5t-28.5 -11.5h-369q-16 0 -28.5 10t-12.5 27z" />
<glyph unicode="&#xae;" horiz-adv-x="1251" d="M178 934q0 27 1 51.5t3 42.5q18 207 138 315.5t298 108.5t298 -108.5t139 -315.5q2 -18 2 -42.5v-51.5v-50.5t-2 -41.5q-18 -209 -138 -317.5t-299 -108.5q-178 0 -297.5 108.5t-138.5 317.5q-2 18 -3 41.5t-1 50.5zM244 934q0 -27 1 -52.5t3 -43.5q14 -178 116 -268.5 t254 -90.5t254.5 90t116.5 269q2 18 2 43.5v52.5v52.5t-2 43.5q-14 178 -116.5 268.5t-254.5 90.5t-254 -90.5t-116 -268.5q-2 -18 -3 -43.5t-1 -52.5zM430 686v473q0 23 14.5 40.5t42.5 17.5h162q72 0 126 -42t54 -124t-42 -116t-101 -48l158 -180q4 -4 7 -10.5t3 -14.5 q0 -12 -9 -20.5t-20 -8.5q-12 0 -19 6.5t-11 10.5l-164 192q-10 10 -17.5 15.5t-23.5 5.5h-98v-197q0 -12 -8.5 -21.5t-22.5 -9.5q-12 0 -21.5 9.5t-9.5 21.5zM492 942h151q63 0 93 29.5t30 77.5q0 47 -29.5 75.5t-89.5 28.5h-155v-211z" />
<glyph unicode="&#xaf;" horiz-adv-x="659" d="M123 1620q0 16 11 26.5t28 10.5h348q16 0 26.5 -10.5t10.5 -26.5t-10.5 -26.5t-26.5 -10.5h-348q-16 0 -27.5 10.5t-11.5 26.5z" />
<glyph unicode="&#xb0;" horiz-adv-x="790" d="M164 1202q0 47 18.5 90t50 75t73.5 50.5t89 18.5t89 -18.5t74 -50.5t50.5 -75t18.5 -90t-18.5 -89t-50.5 -72.5t-74 -49t-89 -18.5t-89 18.5t-73.5 49t-50 72.5t-18.5 89zM233 1202q0 -66 48.5 -114t113.5 -48q68 0 115 48.5t47 113.5q0 68 -47 116t-115 48 q-66 0 -114 -48t-48 -116z" />
<glyph unicode="&#xb1;" d="M123 37q0 18 12 28.5t31 10.5h952q18 0 31.5 -10.5t13.5 -28.5q0 -16 -14 -26.5t-31 -10.5h-952q-18 0 -30.5 10t-12.5 27zM123 717q0 18 12 28.5t31 10.5h442v440q0 18 10.5 30.5t26.5 12.5q18 0 28.5 -12.5t10.5 -30.5v-440h434q18 0 31.5 -10.5t13.5 -28.5 q0 -16 -14 -26.5t-31 -10.5h-434v-442q0 -18 -10 -30.5t-29 -12.5q-37 0 -37 43v442h-442q-18 0 -30.5 10t-12.5 27z" />
<glyph unicode="&#xb2;" horiz-adv-x="958" d="M174 567v11q0 53 13.5 96t42 81t71.5 73.5t102 74.5q55 35 105.5 63.5t88.5 59.5t61.5 69t23.5 93q0 39 -13.5 72.5t-40 59.5t-68.5 41t-99 15q-86 0 -133 -32.5t-78 -73.5q-18 -25 -39 -25q-10 0 -21.5 7.5t-11.5 25.5q0 12 10 31q33 51 99.5 96t171.5 45q147 0 222 -76 t75 -186q0 -49 -15.5 -90t-49.5 -79t-90 -77t-138 -86q-66 -37 -108 -72.5t-65.5 -69.5t-32.5 -68t-9 -68h483q18 0 30.5 -10.5t12.5 -26.5t-12 -26.5t-31 -10.5h-493q-29 0 -46.5 17.5t-17.5 45.5z" />
<glyph unicode="&#xb3;" horiz-adv-x="899" d="M150 1382q0 18 12 28.5t31 10.5h436q43 0 61.5 -17.5t18.5 -43.5q0 -33 -31 -64l-236 -225q14 2 27.5 3t26.5 1q59 0 108 -19.5t83 -53t52.5 -79.5t18.5 -98q0 -160 -131.5 -252t-360.5 -92h-36.5t-37 3t-27.5 11.5t-11 24.5q0 39 39 39q25 0 39 -2t28 -2q94 0 172 17.5 t134.5 52t87 84t30.5 114.5q0 86 -53 134.5t-139 48.5q-47 0 -61.5 -3.5t-37.5 -3.5q-20 0 -34.5 12.5t-14.5 35.5q0 16 7 26t16 21l256 252h-430q-18 0 -30.5 9t-12.5 27z" />
<glyph unicode="&#xb4;" horiz-adv-x="659" d="M154 1579q0 25 24 37l277 141q12 6 24 6q14 0 25.5 -10t11.5 -27q0 -25 -24 -36l-277 -142q-12 -6 -25 -6q-14 0 -25 10.5t-11 26.5z" />
<glyph unicode="&#xb5;" horiz-adv-x="1277" d="M205 -350v1366q0 16 12 27.5t27 11.5q16 0 26.5 -11.5t10.5 -27.5v-641q0 -74 25.5 -133.5t69.5 -100.5t106.5 -62.5t135.5 -21.5q123 0 207 34t144 75v848q0 16 10 28.5t27 12.5q16 0 27 -12.5t11 -28.5v-858q0 -33 -26 -50q-23 -14 -58.5 -35.5t-85 -41t-112 -33.5 t-139.5 -14q-111 0 -199 38.5t-143 114.5v-485q0 -18 -10.5 -30.5t-26.5 -12.5t-27.5 12t-11.5 31z" />
<glyph unicode="&#xb6;" horiz-adv-x="1366" d="M264 1010q0 98 35 176t94.5 132t138 83t166.5 29h344q53 0 67.5 -20.5t14.5 -55.5v-1706q0 -16 -11 -28.5t-28 -12.5q-16 0 -26 12t-10 29v1704h-189v-1704q0 -16 -10.5 -28.5t-26.5 -12.5t-27.5 12t-11.5 29v940h-79q-94 0 -175 27.5t-139.5 82t-92.5 132t-34 180.5z M346 1006q0 -70 20.5 -132.5t64.5 -108.5t111.5 -73.5t162.5 -27.5h79v688h-77q-96 0 -164 -28t-112 -75t-64.5 -110t-20.5 -133z" />
<glyph unicode="&#xb7;" horiz-adv-x="520" d="M223 647v217q0 16 10.5 27.5t26.5 11.5t27.5 -11t11.5 -28v-217q0 -16 -11.5 -27.5t-27.5 -11.5t-26.5 11.5t-10.5 27.5z" />
<glyph unicode="&#xb8;" horiz-adv-x="659" d="M217 -451q0 10 5 21.5t26 17.5q184 59 184 146q0 35 -24.5 55.5t-59.5 20.5q-20 0 -34.5 -7.5t-28.5 -7.5q-23 0 -35 16.5t-2 38.5l53 156q10 33 39 33q18 0 26.5 -10.5t8.5 -26.5q0 -6 -2 -13t-4 -12l-37 -100q72 6 123 -35t51 -106q0 -143 -236 -219q-20 -6 -36.5 5 t-16.5 27z" />
<glyph unicode="&#xb9;" horiz-adv-x="655" d="M113 1274q0 23 18 33l186 104q6 4 20.5 11.5t27.5 7.5q16 0 28.5 -11.5t12.5 -36.5v-843q0 -41 -37 -41q-16 0 -26.5 12t-10.5 29v794l-160 -88q-23 -12 -41 -4t-18 33z" />
<glyph unicode="&#xba;" horiz-adv-x="987" d="M137 1005.5q0 59.5 4 104.5q6 72 37 131t78 102t107.5 68t130.5 25t130 -25t107 -68t78 -102t37 -131q4 -45 4 -104.5t-4 -104.5q-6 -72 -36 -132t-77 -103t-108 -67t-131 -24t-131.5 24t-108.5 67t-77 103t-36 132q-4 45 -4 104.5zM213 1005.5q0 -51.5 4 -98.5 q10 -117 87 -186.5t190 -69.5t189.5 70t86.5 186q4 47 4 98.5t-4 98.5q-4 55 -26.5 102t-59.5 81t-86 53.5t-104 19.5t-104.5 -19.5t-86.5 -53.5t-59.5 -81t-26.5 -102q-4 -47 -4 -98.5z" />
<glyph unicode="&#xbb;" horiz-adv-x="1056" d="M227 395q0 20 17 33l258 231q20 18 28.5 27.5t8.5 22.5q0 12 -8.5 21t-28.5 28l-258 231q-16 12 -17 33q0 16 11.5 26.5t25.5 10.5q12 0 27 -10l266 -238q23 -18 41 -43t18 -59q0 -35 -18 -59.5t-41 -43.5l-266 -237q-15 -11 -27 -11q-14 0 -25.5 10.5t-11.5 26.5z M558 402.5q3 15.5 15 25.5l258 231q20 18 28.5 28t8.5 22t-8 21t-29 28l-258 231q-12 10 -15 25.5t7 29.5q25 29 56 5l266 -238q23 -18 41 -43t18 -59q0 -35 -18.5 -59.5t-40.5 -43.5l-266 -237q-31 -25 -56 4q-10 14 -7 29.5z" />
<glyph unicode="&#xbc;" horiz-adv-x="1904" d="M113 1274q0 23 18 33l186 104q6 4 20.5 11.5t27.5 7.5q16 0 28.5 -11.5t12.5 -36.5v-843q0 -41 -37 -41q-16 0 -26.5 12t-10.5 29v794l-160 -88q-23 -12 -41 -4t-18 33zM498 -4l583 1483q17 40 52 26q16 -6 21 -21.5t-1 -31.5l-586 -1485q-4 -14 -18 -21t-31 -1 q-16 6 -20 21.5t0 29.5zM977 281q0 10 4 22t20 31l455 555q18 23 34.5 35t39.5 12q35 0 48 -21.5t13 -44.5v-569h99q16 0 28.5 -10t12.5 -29q0 -16 -12.5 -25.5t-28.5 -9.5h-99v-186q0 -16 -8 -28.5t-27 -12.5q-39 0 -38 41v186h-488q-25 0 -39 15.5t-14 38.5zM1069 301h449 v549z" />
<glyph unicode="&#xbd;" horiz-adv-x="1857" d="M113 1274q0 23 18 33l186 104q6 4 20.5 11.5t27.5 7.5q16 0 28.5 -11.5t12.5 -36.5v-843q0 -41 -37 -41q-16 0 -26.5 12t-10.5 29v794l-160 -88q-23 -12 -41 -4t-18 33zM440 -12l584 1482q16 41 51 27q16 -6 21.5 -21.5t-0.5 -31.5l-586 -1485q-4 -14 -18.5 -21.5 t-30.5 -0.5q-16 6 -20.5 21t-0.5 30zM1075 63v11q0 53 13.5 96t42 81t71.5 73.5t103 74.5q55 35 105 64t88 59.5t61.5 68.5t23.5 93q0 39 -13.5 73t-40 59.5t-68.5 40.5t-99 15q-86 0 -133 -32.5t-78 -73.5q-18 -25 -39 -25q-10 0 -21.5 7.5t-11.5 25.5q0 12 11 31 q33 51 99 96t171 45q147 0 222 -75.5t75 -186.5q0 -49 -15.5 -90t-49 -79t-90 -77t-138.5 -86q-66 -37 -108 -72.5t-65.5 -69.5t-32.5 -67.5t-9 -68.5h483q18 0 30.5 -10.5t12.5 -26.5t-12 -26.5t-31 -10.5h-493q-29 0 -46.5 17.5t-17.5 45.5z" />
<glyph unicode="&#xbe;" horiz-adv-x="2166" d="M150 1382q0 18 12 28.5t31 10.5h436q43 0 61.5 -17.5t18.5 -43.5q0 -33 -31 -64l-236 -225q14 2 27.5 3t26.5 1q59 0 108 -19.5t83 -53t52.5 -79.5t18.5 -98q0 -160 -131.5 -252t-360.5 -92h-36.5t-37 3t-27.5 11.5t-11 24.5q0 39 39 39q25 0 39 -2t28 -2q94 0 172 17.5 t134.5 52t87 84t30.5 114.5q0 86 -53 134.5t-139 48.5q-47 0 -61.5 -3.5t-37.5 -3.5q-20 0 -34.5 12.5t-14.5 35.5q0 16 7 26t16 21l256 252h-430q-18 0 -30.5 9t-12.5 27zM739 -12l584 1482q16 41 51 27q16 -6 21.5 -21.5t-0.5 -31.5l-586 -1485q-4 -14 -18.5 -21.5 t-30.5 -0.5q-16 6 -20.5 21t-0.5 30zM1270 281q0 10 4 22t20 31l455 555q18 23 34.5 35t39.5 12q35 0 48 -21.5t13 -44.5v-569h98q16 0 28.5 -10t12.5 -29q0 -16 -12 -25.5t-29 -9.5h-98v-186q0 -16 -8 -28.5t-27 -12.5q-39 0 -39 41v186h-487q-25 0 -39 15.5t-14 38.5z M1362 301h448v549z" />
<glyph unicode="&#xbf;" horiz-adv-x="1153" d="M135 365q0 98 26.5 167t80 124t136 102t195.5 103q16 8 31 8q16 0 27.5 -11.5t11.5 -27.5q0 -29 -33 -41q-117 -51 -194.5 -96t-123 -92.5t-63.5 -103.5t-18 -130q0 -141 87 -225t242 -84q139 0 221 42t150 128q10 14 20.5 16t14.5 2q14 0 25.5 -10t11.5 -29 q0 -12 -11 -28q-72 -98 -178 -147.5t-254 -49.5q-190 0 -297.5 104.5t-107.5 278.5zM565 1199v217q0 16 11 27.5t28 11.5q16 0 26.5 -11.5t10.5 -27.5v-217q0 -16 -10.5 -27.5t-26.5 -11.5t-27.5 11t-11.5 28z" />
<glyph unicode="&#xc0;" horiz-adv-x="1357" d="M63 55l463 1266q23 59 59 93t93 34q55 0 92 -34t59 -93l463 -1266q6 -20 -4 -37.5t-33 -17.5q-25 0 -34 27l-187 512h-712l-187 -512q-10 -25 -37 -25q-23 0 -32 17.5t-3 35.5zM350 614h656l-256 703q-20 57 -72 57q-31 0 -46.5 -15.5t-25.5 -41.5zM445 1726 q0 16 11 26.5t25 10.5q12 0 25 -6l277 -141q25 -12 24 -37q0 -16 -11 -26.5t-26 -10.5q-12 0 -24 6l-277 142q-25 12 -24 36z" />
<glyph unicode="&#xc1;" horiz-adv-x="1357" d="M63 55l463 1266q23 59 59 93t93 34q55 0 92 -34t59 -93l463 -1266q6 -20 -4 -37.5t-33 -17.5q-25 0 -34 27l-187 512h-712l-187 -512q-10 -25 -37 -25q-23 0 -32 17.5t-3 35.5zM350 614h656l-256 703q-20 57 -72 57q-31 0 -46.5 -15.5t-25.5 -41.5zM555 1579q0 25 24 37 l277 141q12 6 24 6q14 0 25.5 -10t11.5 -27q0 -25 -24 -36l-277 -142q-12 -6 -25 -6q-14 0 -25 10.5t-11 26.5z" />
<glyph unicode="&#xc2;" horiz-adv-x="1357" d="M63 55l463 1266q23 59 59 93t93 34q55 0 92 -34t59 -93l463 -1266q6 -20 -4 -37.5t-33 -17.5q-25 0 -34 27l-187 512h-712l-187 -512q-10 -25 -37 -25q-23 0 -32 17.5t-3 35.5zM350 614h656l-256 703q-20 57 -72 57q-31 0 -46.5 -15.5t-25.5 -41.5zM446 1579 q0 12 6.5 19.5t10.5 11.5l166 123q25 18 49 18q25 0 49 -18l166 -123q4 -4 10 -11.5t6 -19.5q0 -16 -11 -27.5t-28 -11.5q-12 0 -26 8l-166 123l-166 -123q-14 -8 -27 -8q-16 0 -27.5 11.5t-11.5 27.5z" />
<glyph unicode="&#xc3;" horiz-adv-x="1357" d="M63 55l463 1266q23 59 59 93t93 34q55 0 92 -34t59 -93l463 -1266q6 -20 -4 -37.5t-33 -17.5q-25 0 -34 27l-187 512h-712l-187 -512q-10 -25 -37 -25q-23 0 -32 17.5t-3 35.5zM350 614h656l-256 703q-20 57 -72 57q-31 0 -46.5 -15.5t-25.5 -41.5zM424 1612q0 12 5 20 t11 14q29 23 64 39.5t69 16.5q35 0 63 -12.5t52.5 -26t46.5 -25.5t47 -12q18 0 34 7t29 16.5t25.5 17.5t24.5 8q14 0 25.5 -9t11.5 -26q0 -23 -23 -39q-29 -20 -61.5 -35.5t-67.5 -15.5t-64.5 12.5t-54 25.5t-47 25.5t-43.5 12.5q-18 0 -32.5 -8t-26.5 -17.5t-23.5 -17.5 t-25.5 -8q-18 0 -28.5 11t-10.5 26z" />
<glyph unicode="&#xc4;" horiz-adv-x="1357" d="M63 55l463 1266q23 59 59 93t93 34q55 0 92 -34t59 -93l463 -1266q6 -20 -4 -37.5t-33 -17.5q-25 0 -34 27l-187 512h-712l-187 -512q-10 -25 -37 -25q-23 0 -32 17.5t-3 35.5zM350 614h656l-256 703q-20 57 -72 57q-31 0 -46.5 -15.5t-25.5 -41.5zM473 1626 q0 25 17 42.5t42 17.5q27 0 44.5 -17.5t17.5 -42.5q0 -27 -17.5 -44t-44.5 -17q-25 0 -42 17t-17 44zM762 1626q0 25 17 42.5t44 17.5q25 0 42.5 -17.5t17.5 -42.5q0 -27 -17.5 -44t-42.5 -17q-27 0 -44 17t-17 44z" />
<glyph unicode="&#xc5;" horiz-adv-x="1357" d="M63 55l463 1266q23 59 59 93t93 34q55 0 92 -34t59 -93l463 -1266q6 -20 -4 -37.5t-33 -17.5q-25 0 -34 27l-187 512h-712l-187 -512q-10 -25 -37 -25q-23 0 -32 17.5t-3 35.5zM350 614h656l-256 703q-20 57 -72 57q-31 0 -46.5 -15.5t-25.5 -41.5zM508 1710 q0 68 50.5 117t119.5 49q68 0 117 -49.5t49 -116.5q0 -68 -49 -118t-117 -50q-35 0 -65.5 13.5t-54 37t-37 53t-13.5 64.5zM568 1710q0 -45 31.5 -78t78.5 -33q45 0 77 33t32 78t-32 76.5t-77 31.5q-47 0 -78.5 -31.5t-31.5 -76.5z" />
<glyph unicode="&#xc6;" horiz-adv-x="2091" d="M39 29q0 18 8 28l860 1286q37 53 81 68.5t97 15.5h801q39 0 39 -38q0 -16 -11 -26.5t-28 -10.5h-751v-594h735q16 0 27.5 -10.5t11.5 -26.5t-11.5 -27.5t-27.5 -11.5h-735v-606h755q16 0 27.5 -11.5t11.5 -27.5t-11 -26.5t-28 -10.5h-755q-39 0 -57.5 21.5t-18.5 54.5 v485h-584l-369 -551q-10 -16 -30 -16q-16 0 -26.5 9t-10.5 26zM524 633h535v719h-10q-18 0 -38 -7.5t-36 -27.5z" />
<glyph unicode="&#xc7;" horiz-adv-x="1355" d="M160 702q0 92 6 195q8 113 52 213t118 175t173 118t218 43q84 0 161 -24.5t141.5 -68.5t114.5 -104.5t81 -130.5q10 -23 10 -37q0 -16 -11.5 -26.5t-25.5 -10.5q-16 0 -25.5 9.5t-13.5 21.5q-25 66 -67.5 120t-99 94t-124 61.5t-141.5 21.5q-98 0 -182 -36t-148.5 -99 t-104.5 -150.5t-48 -189.5q-4 -47 -6 -91t-2 -89t2 -90t6 -90q8 -102 47 -190.5t101.5 -153t147.5 -100.5t187 -36q74 0 141.5 21.5t124 61.5t99.5 94.5t67 119.5q4 12 13.5 21.5t25.5 9.5q14 0 25.5 -10t11.5 -27q0 -14 -10 -37q-63 -139 -193.5 -231t-298.5 -96 q-2 -2 -2 -7l-37 -100q72 6 123 -35t51 -106q0 -143 -235 -219q-20 -6 -36.5 5t-16.5 27q0 10 5 21.5t25 17.5q184 59 185 146q0 35 -25 55.5t-59 20.5q-20 0 -34.5 -7.5t-29.5 -7.5q-23 0 -35 16.5t-2 38.5l47 138q-104 12 -191 58t-151.5 119t-103.5 168t-45 204 q-6 82 -6 165z" />
<glyph unicode="&#xc8;" horiz-adv-x="1273" d="M242 76v1276q0 31 18.5 53t56.5 22h752q39 0 39 -38q0 -16 -11.5 -26.5t-27.5 -10.5h-752v-594h736q16 0 27.5 -10.5t11.5 -26.5t-11.5 -27.5t-27.5 -11.5h-736v-606h756q16 0 27.5 -11.5t11.5 -27.5t-11 -26.5t-28 -10.5h-756q-39 0 -57 21.5t-18 54.5zM486 1726 q0 16 11 26.5t25 10.5q12 0 25 -6l277 -141q25 -12 24 -37q0 -16 -11 -26.5t-26 -10.5q-12 0 -24 6l-277 142q-25 12 -24 36z" />
<glyph unicode="&#xc9;" horiz-adv-x="1273" d="M242 76v1276q0 31 18.5 53t56.5 22h752q39 0 39 -38q0 -16 -11.5 -26.5t-27.5 -10.5h-752v-594h736q16 0 27.5 -10.5t11.5 -26.5t-11.5 -27.5t-27.5 -11.5h-736v-606h756q16 0 27.5 -11.5t11.5 -27.5t-11 -26.5t-28 -10.5h-756q-39 0 -57 21.5t-18 54.5zM424 1579 q0 25 24 37l277 141q12 6 24 6q14 0 25.5 -10t11.5 -27q0 -25 -24 -36l-277 -142q-12 -6 -25 -6q-14 0 -25 10.5t-11 26.5z" />
<glyph unicode="&#xca;" horiz-adv-x="1273" d="M242 76v1276q0 31 18.5 53t56.5 22h752q39 0 39 -38q0 -16 -11.5 -26.5t-27.5 -10.5h-752v-594h736q16 0 27.5 -10.5t11.5 -26.5t-11.5 -27.5t-27.5 -11.5h-736v-606h756q16 0 27.5 -11.5t11.5 -27.5t-11 -26.5t-28 -10.5h-756q-39 0 -57 21.5t-18 54.5zM450 1579 q0 12 6.5 19.5t10.5 11.5l166 123q25 18 49 18q25 0 49 -18l166 -123q4 -4 10 -11.5t6 -19.5q0 -16 -11 -27.5t-28 -11.5q-12 0 -26 8l-166 123l-166 -123q-14 -8 -27 -8q-16 0 -27.5 11.5t-11.5 27.5z" />
<glyph unicode="&#xcb;" horiz-adv-x="1273" d="M242 76v1276q0 31 18.5 53t56.5 22h752q39 0 39 -38q0 -16 -11.5 -26.5t-27.5 -10.5h-752v-594h736q16 0 27.5 -10.5t11.5 -26.5t-11.5 -27.5t-27.5 -11.5h-736v-606h756q16 0 27.5 -11.5t11.5 -27.5t-11 -26.5t-28 -10.5h-756q-39 0 -57 21.5t-18 54.5zM485 1626 q0 25 17 42.5t42 17.5q27 0 44.5 -17.5t17.5 -42.5q0 -27 -17.5 -44t-44.5 -17q-25 0 -42 17t-17 44zM774 1626q0 25 17 42.5t44 17.5q25 0 42.5 -17.5t17.5 -42.5q0 -27 -17.5 -44t-42.5 -17q-27 0 -44 17t-17 44z" />
<glyph unicode="&#xcc;" horiz-adv-x="565" d="M56 1726q0 16 11 26.5t25 10.5q12 0 25 -6l277 -141q25 -12 24 -37q0 -16 -11 -26.5t-26 -10.5q-12 0 -24 6l-277 142q-25 12 -24 36zM244 31v1368q0 16 10 27.5t27 11.5q39 0 38 -39v-1368q0 -39 -38 -39q-37 0 -37 39z" />
<glyph unicode="&#xcd;" horiz-adv-x="565" d="M154 1579q0 25 24 37l277 141q12 6 24 6q14 0 25.5 -10t11.5 -27q0 -25 -24 -36l-277 -142q-12 -6 -25 -6q-14 0 -25 10.5t-11 26.5zM244 31v1368q0 16 10 27.5t27 11.5q39 0 38 -39v-1368q0 -39 -38 -39q-37 0 -37 39z" />
<glyph unicode="&#xce;" horiz-adv-x="565" d="M55 1579q0 12 6.5 19.5t10.5 11.5l166 123q25 18 49 18q25 0 49 -18l166 -123q4 -4 10 -11.5t6 -19.5q0 -16 -11 -27.5t-28 -11.5q-12 0 -26 8l-166 123l-166 -123q-14 -8 -27 -8q-16 0 -27.5 11.5t-11.5 27.5zM244 31v1368q0 16 10 27.5t27 11.5q39 0 38 -39v-1368 q0 -39 -38 -39q-37 0 -37 39z" />
<glyph unicode="&#xcf;" horiz-adv-x="565" d="M78 1626q0 25 17 42.5t42 17.5q27 0 44.5 -17.5t17.5 -42.5q0 -27 -17.5 -44t-44.5 -17q-25 0 -42 17t-17 44zM244 31v1368q0 16 10 27.5t27 11.5q39 0 38 -39v-1368q0 -39 -38 -39q-37 0 -37 39zM367 1626q0 25 17 42.5t44 17.5q25 0 42.5 -17.5t17.5 -42.5 q0 -27 -17.5 -44t-42.5 -17q-27 0 -44 17t-17 44z" />
<glyph unicode="&#xd0;" horiz-adv-x="1474" d="M20 705q0 18 12.5 28t28.5 10h181v609q0 33 19.5 54t53.5 21h381q147 0 259 -46t189 -126.5t118 -191.5t47 -242q2 -53 2 -113.5t-4 -111.5q-6 -127 -48 -236.5t-119 -189.5t-188.5 -125t-255.5 -45h-381q-37 0 -55 22.5t-18 53.5v592h-181q-16 0 -28.5 10t-12.5 27z M317 76h373q135 0 234.5 38t166 105.5t101.5 162.5t41 212q4 53 4 122.5t-4 123.5q-6 115 -42 209t-102.5 161.5t-166 104.5t-232.5 37h-373v-609h404q16 0 28.5 -11t12.5 -27t-12.5 -26.5t-28.5 -10.5h-404v-592z" />
<glyph unicode="&#xd1;" horiz-adv-x="1576" d="M242 33v1329q0 35 18.5 56.5t52.5 21.5q33 0 49.5 -16.5t26.5 -30.5l866 -1317h5v1323q0 16 10 27.5t26 11.5q39 0 39 -39v-1325q0 -35 -18.5 -56.5t-52.5 -21.5q-33 0 -49.5 16.5t-26.5 30.5l-866 1313h-5v-1323q0 -39 -38 -39q-16 0 -26.5 11t-10.5 28zM522 1616 q0 12 5 20t11 14q29 23 64 39.5t69 16.5q35 0 63 -12.5t52.5 -26t46.5 -25.5t47 -12q18 0 34 7t29 16.5t25.5 17.5t24.5 8q14 0 25.5 -9t11.5 -26q0 -23 -23 -39q-29 -20 -61.5 -35.5t-67.5 -15.5t-64.5 12.5t-54 25.5t-47 25.5t-43.5 12.5q-18 0 -32.5 -8t-26.5 -17.5 t-23.5 -17.5t-25.5 -8q-18 0 -28.5 11t-10.5 26z" />
<glyph unicode="&#xd2;" horiz-adv-x="1484" d="M168 549q-12 166 0 334q8 119 54 221t122 178t177.5 120t219.5 44q119 0 220.5 -43t177 -119t123 -179.5t55.5 -221.5q6 -82 6 -168t-6 -166q-8 -121 -55.5 -224.5t-123 -179t-177 -118.5t-220.5 -43t-219 43t-176 118.5t-123 179t-55 224.5zM246 535q10 -102 51 -189.5 t105.5 -151t150.5 -99.5t188 -36q100 0 187.5 36t153 99.5t106.5 150.5t51 190q18 180 0 358q-10 102 -51 189t-106.5 151.5t-152.5 100.5t-188 36q-102 0 -188 -36t-150.5 -100.5t-105.5 -151.5t-51 -189q-18 -178 0 -358zM527 1726q0 16 11 26.5t25 10.5q12 0 25 -6 l277 -141q25 -12 24 -37q0 -16 -11 -26.5t-26 -10.5q-12 0 -24 6l-277 142q-25 12 -24 36z" />
<glyph unicode="&#xd3;" horiz-adv-x="1484" d="M168 549q-12 166 0 334q8 119 54 221t122 178t177.5 120t219.5 44q119 0 220.5 -43t177 -119t123 -179.5t55.5 -221.5q6 -82 6 -168t-6 -166q-8 -121 -55.5 -224.5t-123 -179t-177 -118.5t-220.5 -43t-219 43t-176 118.5t-123 179t-55 224.5zM246 535q10 -102 51 -189.5 t105.5 -151t150.5 -99.5t188 -36q100 0 187.5 36t153 99.5t106.5 150.5t51 190q18 180 0 358q-10 102 -51 189t-106.5 151.5t-152.5 100.5t-188 36q-102 0 -188 -36t-150.5 -100.5t-105.5 -151.5t-51 -189q-18 -178 0 -358zM605 1579q0 25 24 37l277 141q12 6 24 6 q14 0 25.5 -10t11.5 -27q0 -25 -24 -36l-277 -142q-12 -6 -25 -6q-14 0 -25 10.5t-11 26.5z" />
<glyph unicode="&#xd4;" horiz-adv-x="1484" d="M168 549q-12 166 0 334q8 119 54 221t122 178t177.5 120t219.5 44q119 0 220.5 -43t177 -119t123 -179.5t55.5 -221.5q6 -82 6 -168t-6 -166q-8 -121 -55.5 -224.5t-123 -179t-177 -118.5t-220.5 -43t-219 43t-176 118.5t-123 179t-55 224.5zM246 535q10 -102 51 -189.5 t105.5 -151t150.5 -99.5t188 -36q100 0 187.5 36t153 99.5t106.5 150.5t51 190q18 180 0 358q-10 102 -51 189t-106.5 151.5t-152.5 100.5t-188 36q-102 0 -188 -36t-150.5 -100.5t-105.5 -151.5t-51 -189q-18 -178 0 -358zM508 1579q0 12 6.5 19.5t10.5 11.5l166 123 q25 18 49 18q25 0 49 -18l166 -123q4 -4 10 -11.5t6 -19.5q0 -16 -11 -27.5t-28 -11.5q-12 0 -26 8l-166 123l-166 -123q-14 -8 -27 -8q-16 0 -27.5 11.5t-11.5 27.5z" />
<glyph unicode="&#xd5;" horiz-adv-x="1484" d="M168 549q-12 166 0 334q8 119 54 221t122 178t177.5 120t219.5 44q119 0 220.5 -43t177 -119t123 -179.5t55.5 -221.5q6 -82 6 -168t-6 -166q-8 -121 -55.5 -224.5t-123 -179t-177 -118.5t-220.5 -43t-219 43t-176 118.5t-123 179t-55 224.5zM246 535q10 -102 51 -189.5 t105.5 -151t150.5 -99.5t188 -36q100 0 187.5 36t153 99.5t106.5 150.5t51 190q18 180 0 358q-10 102 -51 189t-106.5 151.5t-152.5 100.5t-188 36q-102 0 -188 -36t-150.5 -100.5t-105.5 -151.5t-51 -189q-18 -178 0 -358zM492 1608q0 12 5 20t11 14q29 23 64 39.5t69 16.5 q35 0 63 -12.5t52.5 -26t46.5 -25.5t47 -12q18 0 34 7t29 16.5t25.5 17.5t24.5 8q14 0 25.5 -9t11.5 -26q0 -23 -23 -39q-29 -20 -61.5 -35.5t-67.5 -15.5t-64.5 12.5t-54 25.5t-47 25.5t-43.5 12.5q-18 0 -32.5 -8t-26.5 -17.5t-23.5 -17.5t-25.5 -8q-18 0 -28.5 11 t-10.5 26z" />
<glyph unicode="&#xd6;" horiz-adv-x="1484" d="M168 549q-12 166 0 334q8 119 54 221t122 178t177.5 120t219.5 44q119 0 220.5 -43t177 -119t123 -179.5t55.5 -221.5q6 -82 6 -168t-6 -166q-8 -121 -55.5 -224.5t-123 -179t-177 -118.5t-220.5 -43t-219 43t-176 118.5t-123 179t-55 224.5zM246 535q10 -102 51 -189.5 t105.5 -151t150.5 -99.5t188 -36q100 0 187.5 36t153 99.5t106.5 150.5t51 190q18 180 0 358q-10 102 -51 189t-106.5 151.5t-152.5 100.5t-188 36q-102 0 -188 -36t-150.5 -100.5t-105.5 -151.5t-51 -189q-18 -178 0 -358zM537 1626q0 25 17 42.5t42 17.5q27 0 44.5 -17.5 t17.5 -42.5q0 -27 -17.5 -44t-44.5 -17q-25 0 -42 17t-17 44zM826 1626q0 25 17 42.5t44 17.5q25 0 42.5 -17.5t17.5 -42.5q0 -27 -17.5 -44t-42.5 -17q-27 0 -44 17t-17 44z" />
<glyph unicode="&#xd7;" d="M178 294.5q2 16.5 17 31.5l397 393l-399 395q-31 31 -7 57q14 14 29.5 12.5t30.5 -14.5l399 -395l391 387q12 14 29.5 17.5t30.5 -11.5q10 -12 8 -29.5t-14 -29.5l-392 -389l396 -387q12 -14 14 -29.5t-12 -30.5q-27 -27 -58 7l-393 387l-397 -394q-31 -31 -58 -6 q-14 12 -12 28.5z" />
<glyph unicode="&#xd8;" horiz-adv-x="1480" d="M164 549q-12 166 0 334q8 119 54 221t122 178t177 120t220 44q84 0 159 -21.5t140 -62.5l29 55q14 29 41 29q16 0 28.5 -18.5t0.5 -41.5l-37 -71q92 -78 148.5 -188.5t66.5 -243.5q6 -82 6 -168t-6 -166q-8 -121 -55.5 -224.5t-123 -179t-177 -118.5t-220.5 -43 q-158 0 -286 75l-25 -51q-12 -25 -39 -24q-20 0 -30.5 18t-0.5 39l31 61q-96 78 -154.5 192t-68.5 255zM242 535q10 -113 57 -205t123 -158l579 1120q-57 37 -123.5 57.5t-140.5 20.5q-102 0 -188 -36t-150.5 -100.5t-105.5 -151.5t-51 -189q-18 -178 0 -358zM485 127 q55 -33 117.5 -50.5t134.5 -17.5q100 0 187.5 36t153 99.5t106.5 150.5t51 190q18 180 0 358q-10 109 -55 199t-117 155z" />
<glyph unicode="&#xd9;" horiz-adv-x="1531" d="M219 553v846q0 16 10.5 27.5t26.5 11.5q39 0 39 -39v-830q0 -117 36 -211t98.5 -160.5t148.5 -102.5t188 -36q100 0 187 36t150.5 102.5t99.5 161t36 210.5v830q0 16 10.5 27.5t26.5 11.5q39 0 39 -39v-846q0 -127 -41 -231.5t-115 -180t-174 -116.5t-219 -41t-219.5 41 t-173 116.5t-113.5 180t-41 231.5zM623 1726q0 16 11 26.5t25 10.5q12 0 25 -6l277 -141q25 -12 24 -37q0 -16 -11 -26.5t-26 -10.5q-12 0 -24 6l-277 142q-25 12 -24 36z" />
<glyph unicode="&#xda;" horiz-adv-x="1531" d="M219 553v846q0 16 10.5 27.5t26.5 11.5q39 0 39 -39v-830q0 -117 36 -211t98.5 -160.5t148.5 -102.5t188 -36q100 0 187 36t150.5 102.5t99.5 161t36 210.5v830q0 16 10.5 27.5t26.5 11.5q39 0 39 -39v-846q0 -127 -41 -231.5t-115 -180t-174 -116.5t-219 -41t-219.5 41 t-173 116.5t-113.5 180t-41 231.5zM560 1579q0 25 24 37l277 141q12 6 24 6q14 0 25.5 -10t11.5 -27q0 -25 -24 -36l-277 -142q-12 -6 -25 -6q-14 0 -25 10.5t-11 26.5z" />
<glyph unicode="&#xdb;" horiz-adv-x="1531" d="M219 553v846q0 16 10.5 27.5t26.5 11.5q39 0 39 -39v-830q0 -117 36 -211t98.5 -160.5t148.5 -102.5t188 -36q100 0 187 36t150.5 102.5t99.5 161t36 210.5v830q0 16 10.5 27.5t26.5 11.5q39 0 39 -39v-846q0 -127 -41 -231.5t-115 -180t-174 -116.5t-219 -41t-219.5 41 t-173 116.5t-113.5 180t-41 231.5zM532 1579q0 12 6.5 19.5t10.5 11.5l166 123q25 18 49 18q25 0 49 -18l166 -123q4 -4 10 -11.5t6 -19.5q0 -16 -11 -27.5t-28 -11.5q-12 0 -26 8l-166 123l-166 -123q-14 -8 -27 -8q-16 0 -27.5 11.5t-11.5 27.5z" />
<glyph unicode="&#xdc;" horiz-adv-x="1531" d="M219 553v846q0 16 10.5 27.5t26.5 11.5q39 0 39 -39v-830q0 -117 36 -211t98.5 -160.5t148.5 -102.5t188 -36q100 0 187 36t150.5 102.5t99.5 161t36 210.5v830q0 16 10.5 27.5t26.5 11.5q39 0 39 -39v-846q0 -127 -41 -231.5t-115 -180t-174 -116.5t-219 -41t-219.5 41 t-173 116.5t-113.5 180t-41 231.5zM561 1626q0 25 17 42.5t42 17.5q27 0 44.5 -17.5t17.5 -42.5q0 -27 -17.5 -44t-44.5 -17q-25 0 -42 17t-17 44zM850 1626q0 25 17 42.5t44 17.5q25 0 42.5 -17.5t17.5 -42.5q0 -27 -17.5 -44t-42.5 -17q-27 0 -44 17t-17 44z" />
<glyph unicode="&#xdd;" horiz-adv-x="1302" d="M43 1403q0 14 11.5 24.5t25.5 10.5q18 0 29 -13l542 -675l543 675q11 15 29 15q16 0 27.5 -10.5t11.5 -26.5q0 -12 -11 -27l-526 -651q-23 -29 -29 -48.5t-6 -43.5v-602q0 -16 -11 -27.5t-28 -11.5q-16 0 -26.5 11t-10.5 28v602q0 25 -8 44t-31 48l-524 653q-8 10 -8 25z M473 1579q0 25 24 37l277 141q12 6 24 6q14 0 25.5 -10t11.5 -27q0 -25 -24 -36l-277 -142q-12 -6 -25 -6q-14 0 -25 10.5t-11 26.5z" />
<glyph unicode="&#xde;" horiz-adv-x="1312" d="M242 33v1380q0 39 37 39q16 0 27 -11t11 -28v-268h441q88 0 167 -29t138 -84t94 -134t35 -177q0 -100 -34 -179t-93 -132.5t-142 -82t-182 -28.5h-424v-266q0 -39 -38 -39q-16 0 -26.5 10t-10.5 29zM317 375h428q98 0 169 25.5t115 70.5t65.5 107.5t21.5 138.5 q0 74 -22.5 138.5t-66.5 112.5t-111.5 74.5t-157.5 26.5h-441v-694z" />
<glyph unicode="&#xdf;" horiz-adv-x="1304" d="M221 33v1001q0 193 101.5 293t283.5 100q76 0 140.5 -19t110.5 -56t72.5 -90.5t26.5 -120.5q0 -61 -29.5 -105.5t-65.5 -84.5t-65.5 -80t-29.5 -91q0 -45 35 -78.5t86 -63.5t112.5 -59.5t112.5 -66.5t86 -87t35 -120q0 -80 -28.5 -140.5t-78 -100t-117 -59t-143.5 -19.5 q-98 0 -178 29.5t-151 90.5q-6 6 -12.5 15.5t-6.5 19.5q0 23 21.5 34t44.5 -5q18 -14 42.5 -32.5t58.5 -36t79 -29t102 -11.5q129 0 210 57.5t81 186.5q0 57 -35 97t-86 72t-112.5 60.5t-112.5 62.5t-86 79t-35 110q0 57 29 102.5t64.5 85.5t64.5 79t29 86q0 96 -65 154.5 t-194 58.5q-147 0 -234 -72t-87 -242v-1005q0 -39 -37 -39q-16 0 -27.5 11t-11.5 28z" />
<glyph unicode="&#xe0;" horiz-adv-x="1159" d="M150 319q0 139 103 227.5t288 88.5q143 0 344 -55v133q0 147 -79 213.5t-228 66.5q-78 0 -153 -20.5t-130 -46.5q-23 -10 -42.5 1t-19.5 34q0 25 25 38q49 27 137 48.5t183 21.5q174 0 278.5 -83t104.5 -271v-572q0 -14 -4.5 -24t-18.5 -21q-53 -39 -149.5 -77.5 t-235.5 -38.5q-199 0 -301 90t-102 247zM225 319q0 -123 79 -192.5t249 -69.5q123 0 207 34t125 69v342q-100 29 -178 43t-168 14q-141 0 -227.5 -63.5t-86.5 -176.5zM424 1390q0 16 11 26.5t25 10.5q12 0 25 -6l277 -141q25 -12 24 -37q0 -16 -11 -26.5t-26 -10.5 q-12 0 -24 6l-277 142q-25 12 -24 36z" />
<glyph unicode="&#xe1;" horiz-adv-x="1159" d="M150 319q0 139 103 227.5t288 88.5q143 0 344 -55v133q0 147 -79 213.5t-228 66.5q-78 0 -153 -20.5t-130 -46.5q-23 -10 -42.5 1t-19.5 34q0 25 25 38q49 27 137 48.5t183 21.5q174 0 278.5 -83t104.5 -271v-572q0 -14 -4.5 -24t-18.5 -21q-53 -39 -149.5 -77.5 t-235.5 -38.5q-199 0 -301 90t-102 247zM225 319q0 -123 79 -192.5t249 -69.5q123 0 207 34t125 69v342q-100 29 -178 43t-168 14q-141 0 -227.5 -63.5t-86.5 -176.5zM379 1243q0 25 24 37l277 141q12 6 24 6q14 0 25.5 -10t11.5 -27q0 -25 -24 -36l-277 -142q-12 -6 -25 -6 q-14 0 -25 10.5t-11 26.5z" />
<glyph unicode="&#xe2;" horiz-adv-x="1159" d="M150 319q0 139 103 227.5t288 88.5q143 0 344 -55v133q0 147 -79 213.5t-228 66.5q-78 0 -153 -20.5t-130 -46.5q-23 -10 -42.5 1t-19.5 34q0 25 25 38q49 27 137 48.5t183 21.5q174 0 278.5 -83t104.5 -271v-572q0 -14 -4.5 -24t-18.5 -21q-53 -39 -149.5 -77.5 t-235.5 -38.5q-199 0 -301 90t-102 247zM225 319q0 -123 79 -192.5t249 -69.5q123 0 207 34t125 69v342q-100 29 -178 43t-168 14q-141 0 -227.5 -63.5t-86.5 -176.5zM348 1219q0 12 6.5 19.5t10.5 11.5l166 123q25 18 49 18q25 0 49 -18l166 -123q4 -4 10 -11.5t6 -19.5 q0 -16 -11 -27.5t-28 -11.5q-12 0 -26 8l-166 123l-166 -123q-14 -8 -27 -8q-16 0 -27.5 11.5t-11.5 27.5z" />
<glyph unicode="&#xe3;" horiz-adv-x="1159" d="M150 319q0 139 103 227.5t288 88.5q143 0 344 -55v133q0 147 -79 213.5t-228 66.5q-78 0 -153 -20.5t-130 -46.5q-23 -10 -42.5 1t-19.5 34q0 25 25 38q49 27 137 48.5t183 21.5q174 0 278.5 -83t104.5 -271v-572q0 -14 -4.5 -24t-18.5 -21q-53 -39 -149.5 -77.5 t-235.5 -38.5q-199 0 -301 90t-102 247zM225 319q0 -123 79 -192.5t249 -69.5q123 0 207 34t125 69v342q-100 29 -178 43t-168 14q-141 0 -227.5 -63.5t-86.5 -176.5zM330 1282q0 12 5 20t11 14q29 23 64 39.5t69 16.5q35 0 63 -12.5t52.5 -26t46.5 -25.5t47 -12q18 0 34 7 t29 16.5t25.5 17.5t24.5 8q14 0 25.5 -9t11.5 -26q0 -23 -23 -39q-29 -20 -61.5 -35.5t-67.5 -15.5t-64.5 12.5t-54 25.5t-47 25.5t-43.5 12.5q-18 0 -32.5 -8t-26.5 -17.5t-23.5 -17.5t-25.5 -8q-18 0 -28.5 11t-10.5 26z" />
<glyph unicode="&#xe4;" horiz-adv-x="1159" d="M150 319q0 139 103 227.5t288 88.5q143 0 344 -55v133q0 147 -79 213.5t-228 66.5q-78 0 -153 -20.5t-130 -46.5q-23 -10 -42.5 1t-19.5 34q0 25 25 38q49 27 137 48.5t183 21.5q174 0 278.5 -83t104.5 -271v-572q0 -14 -4.5 -24t-18.5 -21q-53 -39 -149.5 -77.5 t-235.5 -38.5q-199 0 -301 90t-102 247zM225 319q0 -123 79 -192.5t249 -69.5q123 0 207 34t125 69v342q-100 29 -178 43t-168 14q-141 0 -227.5 -63.5t-86.5 -176.5zM377 1296q0 25 17 42.5t42 17.5q27 0 44.5 -17.5t17.5 -42.5q0 -27 -17.5 -44t-44.5 -17q-25 0 -42 17 t-17 44zM666 1296q0 25 17 42.5t44 17.5q25 0 42.5 -17.5t17.5 -42.5q0 -27 -17.5 -44t-42.5 -17q-27 0 -44 17t-17 44z" />
<glyph unicode="&#xe5;" horiz-adv-x="1159" d="M150 319q0 139 103 227.5t288 88.5q143 0 344 -55v133q0 147 -79 213.5t-228 66.5q-78 0 -153 -20.5t-130 -46.5q-23 -10 -42.5 1t-19.5 34q0 25 25 38q49 27 137 48.5t183 21.5q174 0 278.5 -83t104.5 -271v-572q0 -14 -4.5 -24t-18.5 -21q-53 -39 -149.5 -77.5 t-235.5 -38.5q-199 0 -301 90t-102 247zM225 319q0 -123 79 -192.5t249 -69.5q123 0 207 34t125 69v342q-100 29 -178 43t-168 14q-141 0 -227.5 -63.5t-86.5 -176.5zM411 1329q0 68 50.5 117t119.5 49q68 0 117 -49.5t49 -116.5q0 -68 -49 -118t-117 -50q-35 0 -65.5 13.5 t-54 37t-37 53t-13.5 64.5zM471 1329q0 -45 31.5 -78t78.5 -33q45 0 77 33t32 78t-32 76.5t-77 31.5q-47 0 -78.5 -31.5t-31.5 -76.5z" />
<glyph unicode="&#xe6;" horiz-adv-x="1886" d="M150 319q0 139 103 227.5t288 88.5q143 0 344 -55v133q0 147 -79 213.5t-228 66.5q-78 0 -153 -20.5t-130 -46.5q-23 -10 -42.5 1t-19.5 34q0 25 25 38q49 27 137 48.5t183 21.5q63 0 120.5 -11t104.5 -37t83 -67t54 -102q45 94 143.5 155.5t233.5 61.5q96 0 173 -32.5 t131 -89t83 -134.5t29 -166v-55q0 -45 -26 -72.5t-81 -27.5h-665v-54q0 -180 100 -280.5t264 -100.5q55 0 125 12.5t158 49.5q8 4 20 4q16 0 26.5 -11.5t10.5 -25.5q0 -25 -25 -37t-61.5 -24.5t-79.5 -21.5t-87 -15t-83 -6q-121 0 -209 40.5t-143 112.5 q-84 -66 -184.5 -109.5t-239.5 -43.5q-199 0 -301 90t-102 247zM225 319q0 -121 79 -191.5t249 -70.5q123 0 214 40t169 106q-29 63 -42 137t-9 162q-100 29 -178 43t-168 14q-141 0 -227.5 -63.5t-86.5 -176.5zM961 567h663q25 0 29 17.5t4 44.5q0 176 -92 270t-246 94 q-184 0 -273.5 -110.5t-84.5 -315.5z" />
<glyph unicode="&#xe7;" horiz-adv-x="1138" d="M176 529q0 83 4 145q4 88 37 161.5t89 126t135 82t173 29.5q100 0 174 -36t120 -84t68.5 -98t22.5 -77q0 -18 -12 -28.5t-24 -10.5q-33 0 -41 37q-18 57 -51 99.5t-74 70t-88 39.5t-95 12q-156 0 -251 -87t-105 -230q-2 -25 -3 -65t-1 -84t1 -86t3 -68q4 -68 29.5 -126 t70.5 -101.5t108.5 -68t147.5 -24.5q47 0 94.5 12.5t88.5 40t73.5 68.5t51.5 101q8 37 41 36q12 0 24 -10t12 -29q0 -27 -20.5 -74.5t-65.5 -95t-113.5 -84t-162.5 -40.5v-5l-37 -100q72 6 123 -35t51 -106q0 -143 -235 -219q-20 -6 -37 5t-17 27q0 10 5.5 21.5t25.5 17.5 q184 59 184 146q0 35 -24.5 55.5t-59.5 20.5q-20 0 -34.5 -7.5t-28.5 -7.5q-23 0 -35 16.5t-2 38.5l45 134q-86 8 -155.5 41.5t-118.5 87t-77 123t-30 149.5q-4 61 -4 144z" />
<glyph unicode="&#xe8;" horiz-adv-x="1175" d="M175 545.5q1 62.5 5 109.5q6 98 40 175t90.5 130.5t133 81t166.5 27.5q94 0 171 -32.5t131.5 -89t83 -134.5t28.5 -166v-55q0 -45 -25.5 -72.5t-80.5 -27.5h-666v-56q0 -180 100.5 -279.5t263.5 -99.5q55 0 125 12.5t158 49.5q8 4 21 4q16 0 26 -11.5t10 -25.5 q0 -10 -6 -20.5t-18 -16.5q-25 -12 -61.5 -24.5t-79.5 -21.5t-87.5 -15t-82.5 -6q-215 0 -326 121.5t-119 324.5q-2 55 -1 117.5zM252 567h663q31 0 33 33q4 92 -18.5 166t-66.5 124t-108.5 76.5t-144.5 26.5q-184 0 -273 -110.5t-85 -315.5zM414 1390q0 16 11 26.5t25 10.5 q12 0 25 -6l277 -141q25 -12 24 -37q0 -16 -11 -26.5t-26 -10.5q-12 0 -24 6l-277 142q-25 12 -24 36z" />
<glyph unicode="&#xe9;" horiz-adv-x="1175" d="M175 545.5q1 62.5 5 109.5q6 98 40 175t90.5 130.5t133 81t166.5 27.5q94 0 171 -32.5t131.5 -89t83 -134.5t28.5 -166v-55q0 -45 -25.5 -72.5t-80.5 -27.5h-666v-56q0 -180 100.5 -279.5t263.5 -99.5q55 0 125 12.5t158 49.5q8 4 21 4q16 0 26 -11.5t10 -25.5 q0 -10 -6 -20.5t-18 -16.5q-25 -12 -61.5 -24.5t-79.5 -21.5t-87.5 -15t-82.5 -6q-215 0 -326 121.5t-119 324.5q-2 55 -1 117.5zM252 567h663q31 0 33 33q4 92 -18.5 166t-66.5 124t-108.5 76.5t-144.5 26.5q-184 0 -273 -110.5t-85 -315.5zM437 1243q0 25 24 37l277 141 q12 6 24 6q14 0 25.5 -10t11.5 -27q0 -25 -24 -36l-277 -142q-12 -6 -25 -6q-14 0 -25 10.5t-11 26.5z" />
<glyph unicode="&#xea;" horiz-adv-x="1175" d="M175 545.5q1 62.5 5 109.5q6 98 40 175t90.5 130.5t133 81t166.5 27.5q94 0 171 -32.5t131.5 -89t83 -134.5t28.5 -166v-55q0 -45 -25.5 -72.5t-80.5 -27.5h-666v-56q0 -180 100.5 -279.5t263.5 -99.5q55 0 125 12.5t158 49.5q8 4 21 4q16 0 26 -11.5t10 -25.5 q0 -10 -6 -20.5t-18 -16.5q-25 -12 -61.5 -24.5t-79.5 -21.5t-87.5 -15t-82.5 -6q-215 0 -326 121.5t-119 324.5q-2 55 -1 117.5zM252 567h663q31 0 33 33q4 92 -18.5 166t-66.5 124t-108.5 76.5t-144.5 26.5q-184 0 -273 -110.5t-85 -315.5zM352 1245q0 12 6.5 19.5 t10.5 11.5l166 123q25 18 49 18q25 0 49 -18l166 -123q4 -4 10 -11.5t6 -19.5q0 -16 -11 -27.5t-28 -11.5q-12 0 -26 8l-166 123l-166 -123q-14 -8 -27 -8q-16 0 -27.5 11.5t-11.5 27.5z" />
<glyph unicode="&#xeb;" horiz-adv-x="1175" d="M175 545.5q1 62.5 5 109.5q6 98 40 175t90.5 130.5t133 81t166.5 27.5q94 0 171 -32.5t131.5 -89t83 -134.5t28.5 -166v-55q0 -45 -25.5 -72.5t-80.5 -27.5h-666v-56q0 -180 100.5 -279.5t263.5 -99.5q55 0 125 12.5t158 49.5q8 4 21 4q16 0 26 -11.5t10 -25.5 q0 -10 -6 -20.5t-18 -16.5q-25 -12 -61.5 -24.5t-79.5 -21.5t-87.5 -15t-82.5 -6q-215 0 -326 121.5t-119 324.5q-2 55 -1 117.5zM252 567h663q31 0 33 33q4 92 -18.5 166t-66.5 124t-108.5 76.5t-144.5 26.5q-184 0 -273 -110.5t-85 -315.5zM404 1296q0 25 17 42.5t42 17.5 q27 0 44.5 -17.5t17.5 -42.5q0 -27 -17.5 -44t-44.5 -17q-25 0 -42 17t-17 44zM693 1296q0 25 17 42.5t44 17.5q25 0 42.5 -17.5t17.5 -42.5q0 -27 -17.5 -44t-42.5 -17q-27 0 -44 17t-17 44z" />
<glyph unicode="&#xec;" horiz-adv-x="534" d="M48 1390q0 16 11 26.5t25 10.5q12 0 25 -6l277 -141q25 -12 24 -37q0 -16 -11 -26.5t-26 -10.5q-12 0 -24 6l-277 142q-25 12 -24 36zM231 35v979q0 16 11.5 28.5t27.5 12.5t26.5 -12.5t10.5 -28.5v-979q0 -41 -37 -41q-39 0 -39 41z" />
<glyph unicode="&#xed;" horiz-adv-x="534" d="M148 1243q0 25 24 37l277 141q12 6 24 6q14 0 25.5 -10t11.5 -27q0 -25 -24 -36l-277 -142q-12 -6 -25 -6q-14 0 -25 10.5t-11 26.5zM231 35v979q0 16 11.5 28.5t27.5 12.5t26.5 -12.5t10.5 -28.5v-979q0 -41 -37 -41q-39 0 -39 41z" />
<glyph unicode="&#xee;" horiz-adv-x="534" d="M51 1245q0 12 6.5 19.5t10.5 11.5l166 123q25 18 49 18q25 0 49 -18l166 -123q4 -4 10 -11.5t6 -19.5q0 -16 -11 -27.5t-28 -11.5q-12 0 -26 8l-166 123l-166 -123q-14 -8 -27 -8q-16 0 -27.5 11.5t-11.5 27.5zM231 35v979q0 16 11.5 28.5t27.5 12.5t26.5 -12.5 t10.5 -28.5v-979q0 -41 -37 -41q-39 0 -39 41z" />
<glyph unicode="&#xef;" horiz-adv-x="534" d="M78 1296q0 25 17 42.5t42 17.5q27 0 44.5 -17.5t17.5 -42.5q0 -27 -17.5 -44t-44.5 -17q-25 0 -42 17t-17 44zM231 35v979q0 16 11.5 28.5t27.5 12.5t26.5 -12.5t10.5 -28.5v-979q0 -41 -37 -41q-39 0 -39 41zM367 1296q0 25 17 42.5t44 17.5q25 0 42.5 -17.5t17.5 -42.5 q0 -27 -17.5 -44t-42.5 -17q-27 0 -44 17t-17 44z" />
<glyph unicode="&#xf0;" horiz-adv-x="1189" d="M172 494.5q0 64.5 4 123.5q4 86 37 157t88 121t129 77.5t160 27.5q106 0 199.5 -48t136.5 -124q2 117 -30 208t-108 169l-170 -80q-12 -6 -22 -6q-16 0 -27.5 11.5t-11.5 27.5q0 23 27 37l141 68q-25 20 -53.5 40.5t-61.5 38.5q-27 16 -26 39q0 18 11 28.5t28 10.5 q16 0 26 -8q43 -29 81 -56.5t71 -56.5l149 72q18 10 39 -1t21 -34t-25 -37l-123 -59q76 -80 110 -180t34 -252l-5 -412q0 -96 -32.5 -173t-90 -131t-132 -82.5t-160.5 -28.5t-160 28.5t-128 80.5t-86 124t-36 156q-4 59 -4 123.5zM250 496q0 -70 4 -131q6 -68 32.5 -124.5 t69.5 -97.5t101.5 -63.5t128.5 -22.5q143 0 233 86t103 222q4 59 4 129.5t-4 130.5q-4 66 -31 121t-71 95t-104 62.5t-130 22.5q-72 0 -131.5 -22.5t-102.5 -62.5t-68.5 -95.5t-29.5 -118.5q-4 -61 -4 -131z" />
<glyph unicode="&#xf1;" horiz-adv-x="1269" d="M225 33v874q0 23 6.5 35t28.5 25q20 12 57 30.5t87.5 34t112 26.5t134.5 11q188 0 300 -97.5t112 -295.5v-643q0 -16 -9.5 -28.5t-27.5 -12.5q-16 0 -27.5 12t-11.5 29v641q0 86 -24.5 146.5t-69.5 99t-106.5 56t-137.5 17.5q-104 0 -199.5 -28.5t-148.5 -63.5v-868 q0 -16 -10 -28.5t-29 -12.5q-16 0 -26.5 12t-10.5 29zM385 1282q0 12 5 20t11 14q29 23 64 39.5t69 16.5q35 0 63 -12.5t52.5 -26t46.5 -25.5t47 -12q18 0 34 7t29 16.5t25.5 17.5t24.5 8q14 0 25.5 -9t11.5 -26q0 -23 -23 -39q-29 -20 -61.5 -35.5t-67.5 -15.5t-64.5 12.5 t-54 25.5t-47 25.5t-43.5 12.5q-18 0 -32.5 -8t-26.5 -17.5t-23.5 -17.5t-25.5 -8q-18 0 -28.5 11t-10.5 26z" />
<glyph unicode="&#xf2;" horiz-adv-x="1210" d="M174 530q0 82 4 144q2 88 36 160.5t90 125t134 81t168 28.5t166 -28.5t133.5 -81t90 -125t36.5 -160.5q4 -61 4 -143t-4 -144q-4 -88 -36.5 -161.5t-90 -128t-133.5 -85t-166 -30.5t-168 30.5t-134 85t-90 128t-36 161.5q-4 61 -4 143zM254 530q0 -43 1 -83.5t3 -71.5 q12 -143 105.5 -230.5t242.5 -87.5q147 0 240.5 87t105.5 231q2 31 4 71.5t2 82.5t-2 83t-4 72q-4 68 -29.5 124t-70.5 98t-107.5 64.5t-138.5 22.5q-78 0 -140.5 -22.5t-107.5 -64.5t-70.5 -98t-29.5 -124q-2 -31 -3 -71t-1 -83zM451 1390q0 16 11 26.5t25 10.5q12 0 25 -6 l277 -141q25 -12 24 -37q0 -16 -11 -26.5t-26 -10.5q-12 0 -24 6l-277 142q-25 12 -24 36z" />
<glyph unicode="&#xf3;" horiz-adv-x="1210" d="M174 530q0 82 4 144q2 88 36 160.5t90 125t134 81t168 28.5t166 -28.5t133.5 -81t90 -125t36.5 -160.5q4 -61 4 -143t-4 -144q-4 -88 -36.5 -161.5t-90 -128t-133.5 -85t-166 -30.5t-168 30.5t-134 85t-90 128t-36 161.5q-4 61 -4 143zM254 530q0 -43 1 -83.5t3 -71.5 q12 -143 105.5 -230.5t242.5 -87.5q147 0 240.5 87t105.5 231q2 31 4 71.5t2 82.5t-2 83t-4 72q-4 68 -29.5 124t-70.5 98t-107.5 64.5t-138.5 22.5q-78 0 -140.5 -22.5t-107.5 -64.5t-70.5 -98t-29.5 -124q-2 -31 -3 -71t-1 -83zM410 1243q0 25 24 37l277 141q12 6 24 6 q14 0 25.5 -10t11.5 -27q0 -25 -24 -36l-277 -142q-12 -6 -25 -6q-14 0 -25 10.5t-11 26.5z" />
<glyph unicode="&#xf4;" horiz-adv-x="1210" d="M174 530q0 82 4 144q2 88 36 160.5t90 125t134 81t168 28.5t166 -28.5t133.5 -81t90 -125t36.5 -160.5q4 -61 4 -143t-4 -144q-4 -88 -36.5 -161.5t-90 -128t-133.5 -85t-166 -30.5t-168 30.5t-134 85t-90 128t-36 161.5q-4 61 -4 143zM254 530q0 -43 1 -83.5t3 -71.5 q12 -143 105.5 -230.5t242.5 -87.5q147 0 240.5 87t105.5 231q2 31 4 71.5t2 82.5t-2 83t-4 72q-4 68 -29.5 124t-70.5 98t-107.5 64.5t-138.5 22.5q-78 0 -140.5 -22.5t-107.5 -64.5t-70.5 -98t-29.5 -124q-2 -31 -3 -71t-1 -83zM372 1243q0 12 6.5 19.5t10.5 11.5l166 123 q25 18 49 18q25 0 49 -18l166 -123q4 -4 10 -11.5t6 -19.5q0 -16 -11 -27.5t-28 -11.5q-12 0 -26 8l-166 123l-166 -123q-14 -8 -27 -8q-16 0 -27.5 11.5t-11.5 27.5z" />
<glyph unicode="&#xf5;" horiz-adv-x="1210" d="M174 530q0 82 4 144q2 88 36 160.5t90 125t134 81t168 28.5t166 -28.5t133.5 -81t90 -125t36.5 -160.5q4 -61 4 -143t-4 -144q-4 -88 -36.5 -161.5t-90 -128t-133.5 -85t-166 -30.5t-168 30.5t-134 85t-90 128t-36 161.5q-4 61 -4 143zM254 530q0 -43 1 -83.5t3 -71.5 q12 -143 105.5 -230.5t242.5 -87.5q147 0 240.5 87t105.5 231q2 31 4 71.5t2 82.5t-2 83t-4 72q-4 68 -29.5 124t-70.5 98t-107.5 64.5t-138.5 22.5q-78 0 -140.5 -22.5t-107.5 -64.5t-70.5 -98t-29.5 -124q-2 -31 -3 -71t-1 -83zM354 1282q0 12 5 20t11 14q29 23 64 39.5 t69 16.5q35 0 63 -12.5t52.5 -26t46.5 -25.5t47 -12q18 0 34 7t29 16.5t25.5 17.5t24.5 8q14 0 25.5 -9t11.5 -26q0 -23 -23 -39q-29 -20 -61.5 -35.5t-67.5 -15.5t-64.5 12.5t-54 25.5t-47 25.5t-43.5 12.5q-18 0 -32.5 -8t-26.5 -17.5t-23.5 -17.5t-25.5 -8 q-18 0 -28.5 11t-10.5 26z" />
<glyph unicode="&#xf6;" horiz-adv-x="1210" d="M174 530q0 82 4 144q2 88 36 160.5t90 125t134 81t168 28.5t166 -28.5t133.5 -81t90 -125t36.5 -160.5q4 -61 4 -143t-4 -144q-4 -88 -36.5 -161.5t-90 -128t-133.5 -85t-166 -30.5t-168 30.5t-134 85t-90 128t-36 161.5q-4 61 -4 143zM254 530q0 -43 1 -83.5t3 -71.5 q12 -143 105.5 -230.5t242.5 -87.5q147 0 240.5 87t105.5 231q2 31 4 71.5t2 82.5t-2 83t-4 72q-4 68 -29.5 124t-70.5 98t-107.5 64.5t-138.5 22.5q-78 0 -140.5 -22.5t-107.5 -64.5t-70.5 -98t-29.5 -124q-2 -31 -3 -71t-1 -83zM401 1296q0 25 17 42.5t42 17.5 q27 0 44.5 -17.5t17.5 -42.5q0 -27 -17.5 -44t-44.5 -17q-25 0 -42 17t-17 44zM690 1296q0 25 17 42.5t44 17.5q25 0 42.5 -17.5t17.5 -42.5q0 -27 -17.5 -44t-42.5 -17q-27 0 -44 17t-17 44z" />
<glyph unicode="&#xf7;" d="M123 717q0 18 12 28.5t31 10.5h952q18 0 31.5 -10.5t13.5 -28.5q0 -16 -14 -26.5t-31 -10.5h-952q-18 0 -30.5 10t-12.5 27zM571 373q0 29 21.5 50t50.5 21t50.5 -21.5t21.5 -49.5q0 -29 -21.5 -50.5t-50.5 -21.5t-50.5 21.5t-21.5 50.5zM571 1063q0 29 21.5 49.5 t50.5 20.5t50.5 -20.5t21.5 -49.5t-21.5 -50.5t-50.5 -21.5t-50.5 21.5t-21.5 50.5z" />
<glyph unicode="&#xf8;" horiz-adv-x="1206" d="M144.5 38.5q0.5 16.5 11.5 29.5l86 100q-29 47 -46.5 102.5t-19.5 116.5q-4 61 -4 143t4 144q2 88 36 160.5t90 125t134 81t168 28.5q94 0 174 -31.5t137 -89.5l78 90q16 18 42 13.5t26 -31.5q0 -14 -10 -29l-88 -102q29 -45 46 -99.5t21 -115.5t4 -143t-4 -144 q-4 -88 -36.5 -161.5t-90 -128t-133.5 -85t-166 -30.5q-98 0 -178 33.5t-137 95.5l-76 -88q-29 -31 -55 -11q-14 10 -13.5 26.5zM252 512q0 -92 7 -156.5t36 -124.5l569 660q-45 47 -110.5 74.5t-149.5 27.5q-78 0 -140.5 -22.5t-107.5 -64.5t-70.5 -98t-29.5 -124 q-2 -35 -3 -80t-1 -92zM338 168q47 -53 113.5 -82t152.5 -29q147 0 240.5 87t105.5 231q4 29 5 64.5t1 76.5q0 98 -6 173t-41 138z" />
<glyph unicode="&#xf9;" horiz-adv-x="1269" d="M205 375v641q0 16 12 27.5t27 11.5q16 0 26.5 -11.5t10.5 -27.5v-641q0 -74 25.5 -133.5t69.5 -100.5t106.5 -62.5t135.5 -21.5q123 0 207 34t144 75v848q0 16 10 28.5t27 12.5q16 0 27 -12.5t11 -28.5v-858q0 -33 -26 -50q-23 -14 -58.5 -35.5t-85 -41t-112 -33.5 t-139.5 -14q-88 0 -165 25.5t-133.5 75.5t-88 124t-31.5 168zM480 1390q0 16 11 26.5t25 10.5q12 0 25 -6l277 -141q25 -12 24 -37q0 -16 -11 -26.5t-26 -10.5q-12 0 -24 6l-277 142q-25 12 -24 36z" />
<glyph unicode="&#xfa;" horiz-adv-x="1269" d="M205 375v641q0 16 12 27.5t27 11.5q16 0 26.5 -11.5t10.5 -27.5v-641q0 -74 25.5 -133.5t69.5 -100.5t106.5 -62.5t135.5 -21.5q123 0 207 34t144 75v848q0 16 10 28.5t27 12.5q16 0 27 -12.5t11 -28.5v-858q0 -33 -26 -50q-23 -14 -58.5 -35.5t-85 -41t-112 -33.5 t-139.5 -14q-88 0 -165 25.5t-133.5 75.5t-88 124t-31.5 168zM428 1243q0 25 24 37l277 141q12 6 24 6q14 0 25.5 -10t11.5 -27q0 -25 -24 -36l-277 -142q-12 -6 -25 -6q-14 0 -25 10.5t-11 26.5z" />
<glyph unicode="&#xfb;" horiz-adv-x="1269" d="M205 375v641q0 16 12 27.5t27 11.5q16 0 26.5 -11.5t10.5 -27.5v-641q0 -74 25.5 -133.5t69.5 -100.5t106.5 -62.5t135.5 -21.5q123 0 207 34t144 75v848q0 16 10 28.5t27 12.5q16 0 27 -12.5t11 -28.5v-858q0 -33 -26 -50q-23 -14 -58.5 -35.5t-85 -41t-112 -33.5 t-139.5 -14q-88 0 -165 25.5t-133.5 75.5t-88 124t-31.5 168zM407 1245q0 12 6.5 19.5t10.5 11.5l166 123q25 18 49 18q25 0 49 -18l166 -123q4 -4 10 -11.5t6 -19.5q0 -16 -11 -27.5t-28 -11.5q-12 0 -26 8l-166 123l-166 -123q-14 -8 -27 -8q-16 0 -27.5 11.5t-11.5 27.5z " />
<glyph unicode="&#xfc;" horiz-adv-x="1269" d="M205 375v641q0 16 12 27.5t27 11.5q16 0 26.5 -11.5t10.5 -27.5v-641q0 -74 25.5 -133.5t69.5 -100.5t106.5 -62.5t135.5 -21.5q123 0 207 34t144 75v848q0 16 10 28.5t27 12.5q16 0 27 -12.5t11 -28.5v-858q0 -33 -26 -50q-23 -14 -58.5 -35.5t-85 -41t-112 -33.5 t-139.5 -14q-88 0 -165 25.5t-133.5 75.5t-88 124t-31.5 168zM430 1296q0 25 17 42.5t42 17.5q27 0 44.5 -17.5t17.5 -42.5q0 -27 -17.5 -44t-44.5 -17q-25 0 -42 17t-17 44zM719 1296q0 25 17 42.5t44 17.5q25 0 42.5 -17.5t17.5 -42.5q0 -27 -17.5 -44t-42.5 -17 q-27 0 -44 17t-17 44z" />
<glyph unicode="&#xfd;" horiz-adv-x="1007" d="M66 995q-8 23 2 39.5t30 16.5q16 0 25.5 -8.5t13.5 -18.5l375 -844q6 -12 12 -12q4 0 11 12l342 842q6 12 13 20.5t23 8.5q18 0 28.5 -16.5t4.5 -33.5l-389 -970q-27 -68 -61.5 -129.5t-73.5 -113.5t-80 -92t-80 -61q-16 -8 -24.5 -10t-18.5 -2t-23.5 8.5t-13.5 28.5 q0 23 25 35q78 39 150.5 127t127.5 237zM414 1245q0 25 24 37l277 141q12 6 24 6q14 0 25.5 -10t11.5 -27q0 -25 -24 -36l-277 -142q-12 -6 -25 -6q-14 0 -25 10.5t-11 26.5z" />
<glyph unicode="&#xfe;" horiz-adv-x="1232" d="M221 -350v1753q0 18 11.5 30.5t27.5 12.5t26.5 -12.5t10.5 -30.5v-422q63 29 151.5 54.5t190.5 25.5q188 0 291.5 -101.5t120.5 -293.5q2 -27 3 -65t1 -79t-1 -80t-3 -65q-16 -193 -120 -294t-292 -101q-102 0 -190.5 25.5t-151.5 53.5v-411q0 -18 -10.5 -30.5 t-26.5 -12.5t-27.5 12t-11.5 31zM297 143q23 -12 59.5 -27.5t82.5 -28.5t97.5 -21.5t104.5 -8.5q166 0 243 81t87 224q2 27 4 70t2 88t-2 88t-4 72q-10 143 -87 224t-243 81q-53 0 -104.5 -8t-97.5 -21.5t-83 -29t-59 -27.5v-756z" />
<glyph unicode="&#xff;" horiz-adv-x="1007" d="M66 995q-8 23 2 39.5t30 16.5q16 0 25.5 -8.5t13.5 -18.5l375 -844q6 -12 12 -12q4 0 11 12l342 842q6 12 13 20.5t23 8.5q18 0 28.5 -16.5t4.5 -33.5l-389 -970q-27 -68 -61.5 -129.5t-73.5 -113.5t-80 -92t-80 -61q-16 -8 -24.5 -10t-18.5 -2t-23.5 8.5t-13.5 28.5 q0 23 25 35q78 39 150.5 127t127.5 237zM315 1296q0 25 17 42.5t42 17.5q27 0 44.5 -17.5t17.5 -42.5q0 -27 -17.5 -44t-44.5 -17q-25 0 -42 17t-17 44zM604 1296q0 25 17 42.5t44 17.5q25 0 42.5 -17.5t17.5 -42.5q0 -27 -17.5 -44t-42.5 -17q-27 0 -44 17t-17 44z" />
<glyph unicode="&#x152;" horiz-adv-x="2136" d="M162 704.5q0 57.5 2 106.5q4 133 45 249t120 202t195.5 135t274.5 49q123 0 211 -9.5t108 -9.5h813q39 0 39 -38q0 -16 -11 -26.5t-28 -10.5h-751v-594h735q16 0 27.5 -10.5t11.5 -26.5t-11.5 -27.5t-27.5 -11.5h-735v-606h755q16 0 27.5 -11.5t11.5 -27.5t-11 -26.5 t-28 -10.5h-817q-20 0 -108 -8t-213 -8q-158 0 -273.5 46t-194.5 128t-119 195.5t-46 246.5q-2 47 -2 104.5zM236 704.5q0 -63.5 4 -120.5q6 -117 41.5 -213.5t105.5 -165t171 -107.5t241 -39q39 0 73.5 1t70.5 3.5t75 6.5t86 10v1272q-47 6 -85 9t-73 5t-70.5 3t-76.5 1 q-139 0 -240.5 -41t-171.5 -114.5t-105.5 -173t-41.5 -216.5q-4 -57 -4 -120.5z" />
<glyph unicode="&#x153;" horiz-adv-x="1957" d="M174 530q0 82 4 144q2 88 36 160.5t90 125t134 81t168 28.5q139 0 242.5 -65.5t150.5 -180.5q49 119 152.5 182.5t241.5 63.5q94 0 170.5 -32.5t131 -89t83 -134.5t28.5 -166v-55q0 -45 -25.5 -72.5t-80.5 -27.5h-666v-56q0 -180 100.5 -279.5t264.5 -99.5 q55 0 124.5 12.5t157.5 49.5q8 4 21 4q16 0 26.5 -11.5t10.5 -25.5q0 -10 -6.5 -20.5t-18.5 -16.5q-25 -12 -61.5 -24.5t-79.5 -21.5t-87 -15t-83 -6q-160 0 -259.5 66t-146.5 185q-47 -115 -149.5 -183t-241.5 -68q-90 0 -168 30.5t-134 85t-90 128t-36 161.5q-4 61 -4 143 zM254 530q0 -43 1 -83.5t3 -71.5q12 -143 105.5 -230.5t242.5 -87.5q147 0 240.5 87t105.5 231q2 31 4 71.5t2 82.5t-2 83t-4 72q-4 68 -29.5 124t-70.5 98t-107.5 64.5t-138.5 22.5q-78 0 -140.5 -22.5t-107.5 -64.5t-70.5 -98t-29.5 -124q-2 -31 -3 -71t-1 -83zM1034 567 h664q31 0 33 33q4 92 -18.5 166t-66.5 124t-108.5 76.5t-144.5 26.5q-184 0 -273.5 -110.5t-85.5 -315.5z" />
<glyph unicode="&#x178;" horiz-adv-x="1302" d="M43 1403q0 14 11.5 24.5t25.5 10.5q18 0 29 -13l542 -675l543 675q11 15 29 15q16 0 27.5 -10.5t11.5 -26.5q0 -12 -11 -27l-526 -651q-23 -29 -29 -48.5t-6 -43.5v-602q0 -16 -11 -27.5t-28 -11.5q-16 0 -26.5 11t-10.5 28v602q0 25 -8 44t-31 48l-524 653q-8 10 -8 25z M447 1524q0 25 17 42.5t42 17.5q27 0 44.5 -17.5t17.5 -42.5q0 -27 -17.5 -44t-44.5 -17q-25 0 -42 17t-17 44zM736 1524q0 25 17 42.5t44 17.5q25 0 42.5 -17.5t17.5 -42.5q0 -27 -17.5 -44t-42.5 -17q-27 0 -44 17t-17 44z" />
<glyph unicode="&#x2c6;" horiz-adv-x="659" d="M96 1575q0 12 6.5 19.5t10.5 11.5l166 123q25 18 49 18q25 0 49 -18l166 -123q4 -4 10 -11.5t6 -19.5q0 -16 -11 -27.5t-28 -11.5q-12 0 -26 8l-166 123l-166 -123q-14 -8 -27 -8q-16 0 -27.5 11.5t-11.5 27.5z" />
<glyph unicode="&#x2dc;" horiz-adv-x="659" d="M84 1604q0 12 5 20t11 14q29 23 64 39.5t69 16.5q35 0 63 -12.5t52.5 -26t46.5 -25.5t47 -12q18 0 34 7t29 16.5t25.5 17.5t24.5 8q14 0 25.5 -9t11.5 -26q0 -23 -23 -39q-29 -20 -61.5 -35.5t-67.5 -15.5t-64.5 12.5t-54 25.5t-47 25.5t-43.5 12.5q-18 0 -32.5 -8 t-26.5 -17.5t-23.5 -17.5t-25.5 -8q-18 0 -28.5 11t-10.5 26z" />
<glyph unicode="&#x2000;" horiz-adv-x="938" />
<glyph unicode="&#x2001;" horiz-adv-x="1876" />
<glyph unicode="&#x2002;" horiz-adv-x="938" />
<glyph unicode="&#x2003;" horiz-adv-x="1876" />
<glyph unicode="&#x2004;" horiz-adv-x="625" />
<glyph unicode="&#x2005;" horiz-adv-x="469" />
<glyph unicode="&#x2006;" horiz-adv-x="312" />
<glyph unicode="&#x2007;" horiz-adv-x="312" />
<glyph unicode="&#x2008;" horiz-adv-x="234" />
<glyph unicode="&#x2009;" horiz-adv-x="375" />
<glyph unicode="&#x200a;" horiz-adv-x="104" />
<glyph unicode="&#x2010;" horiz-adv-x="716" d="M133 586q0 18 12.5 28.5t28.5 10.5h369q16 0 28.5 -10.5t12.5 -26.5t-12.5 -27.5t-28.5 -11.5h-369q-16 0 -28.5 10t-12.5 27z" />
<glyph unicode="&#x2011;" horiz-adv-x="716" d="M133 586q0 18 12.5 28.5t28.5 10.5h369q16 0 28.5 -10.5t12.5 -26.5t-12.5 -27.5t-28.5 -11.5h-369q-16 0 -28.5 10t-12.5 27z" />
<glyph unicode="&#x2012;" horiz-adv-x="716" d="M133 586q0 18 12.5 28.5t28.5 10.5h369q16 0 28.5 -10.5t12.5 -26.5t-12.5 -27.5t-28.5 -11.5h-369q-16 0 -28.5 10t-12.5 27z" />
<glyph unicode="&#x2013;" horiz-adv-x="1245" d="M121 584q0 18 12 28.5t29 10.5h921q16 0 28.5 -11.5t12.5 -27.5t-12 -26.5t-29 -10.5h-921q-16 0 -28.5 10.5t-12.5 26.5z" />
<glyph unicode="&#x2014;" horiz-adv-x="1990" d="M121 584q0 18 12 28.5t29 10.5h1667q16 0 28.5 -11.5t12.5 -27.5t-12.5 -26.5t-28.5 -10.5h-1667q-16 0 -28.5 11.5t-12.5 25.5z" />
<glyph unicode="&#x2018;" horiz-adv-x="407" d="M150 1083v119q0 68 19 115t50 92q4 6 13.5 13.5t21.5 7.5q16 0 26.5 -11.5t10.5 -25.5q0 -10 -3 -15.5t-5 -9.5q-20 -29 -31.5 -49.5t-18 -39.5t-7.5 -39.5t-1 -47.5v-109q0 -16 -10 -27.5t-27 -11.5q-16 0 -27 11.5t-11 27.5z" />
<glyph unicode="&#x2019;" horiz-adv-x="407" d="M135 1081q0 10 3 15.5t5 9.5q39 55 48.5 89t9.5 87v109q0 16 10 27.5t27 11.5q16 0 27 -11.5t11 -27.5v-119q0 -68 -19 -115t-50 -92q-4 -6 -13.5 -13.5t-21.5 -7.5q-16 0 -26.5 11.5t-10.5 25.5z" />
<glyph unicode="&#x201a;" horiz-adv-x="407" d="M113 -154q0 10 3 15.5t5 9.5q39 55 48 89t9 87v109q0 16 10.5 27.5t26.5 11.5t27.5 -11.5t11.5 -27.5v-119q0 -68 -19.5 -115t-50.5 -92q-4 -6 -13 -13t-21 -7q-16 0 -26.5 11t-10.5 25z" />
<glyph unicode="&#x201c;" horiz-adv-x="604" d="M139 1085v119q0 68 19.5 115t50.5 92q4 6 13 13.5t22 7.5q16 0 26.5 -11.5t10.5 -25.5q0 -10 -3.5 -15.5t-5.5 -9.5q-20 -29 -31.5 -49.5t-17.5 -39.5t-7 -39.5t-1 -47.5v-109q0 -16 -10 -27t-27 -11q-16 0 -27.5 11t-11.5 27zM356 1085v119q0 68 19.5 115t50.5 92 q4 6 13.5 13.5t21.5 7.5q16 0 26.5 -11.5t10.5 -25.5q0 -10 -3 -15.5t-6 -9.5q-20 -29 -31.5 -49.5t-17.5 -39.5t-7 -39.5t-1 -47.5v-109q0 -16 -10 -27t-27 -11q-16 0 -27.5 11t-11.5 27z" />
<glyph unicode="&#x201d;" horiz-adv-x="604" d="M139 1085q0 10 3 15.5t5 9.5q39 55 48.5 89t9.5 87v109q0 16 10 27.5t27 11.5q16 0 27.5 -11.5t11.5 -27.5v-119q0 -68 -19.5 -115t-50.5 -92q-4 -6 -13.5 -13t-21.5 -7q-16 0 -26.5 11t-10.5 25zM356 1085q0 10 3 15.5t6 9.5q39 55 48 89t9 87v109q0 16 10 27.5t27 11.5 q16 0 27.5 -11.5t11.5 -27.5v-119q0 -68 -19.5 -115t-50.5 -92q-4 -6 -13 -13t-22 -7q-16 0 -26.5 11t-10.5 25z" />
<glyph unicode="&#x201e;" horiz-adv-x="604" d="M139 -154q0 10 3 15.5t5 9.5q39 55 48.5 89t9.5 87v109q0 16 10 27.5t27 11.5q16 0 27.5 -11.5t11.5 -27.5v-119q0 -68 -19.5 -115t-50.5 -92q-4 -6 -13.5 -13t-21.5 -7q-16 0 -26.5 11t-10.5 25zM356 -154q0 10 3 15.5t6 9.5q39 55 48 89t9 87v109q0 16 10 27.5t27 11.5 q16 0 27.5 -11.5t11.5 -27.5v-119q0 -68 -19.5 -115t-50.5 -92q-4 -6 -13 -13t-22 -7q-16 0 -26.5 11t-10.5 25z" />
<glyph unicode="&#x2022;" horiz-adv-x="966" d="M225 717q0 53 20.5 100t55.5 82t82 55.5t100 20.5t100.5 -20.5t82 -55.5t55 -82t20.5 -100t-20.5 -100.5t-55 -82t-81.5 -55t-101 -20.5q-53 0 -100 20.5t-82 55t-55.5 82t-20.5 100.5z" />
<glyph unicode="&#x2026;" horiz-adv-x="1239" d="M168 16v217q0 16 10 27.5t27 11.5q16 0 27.5 -11t11.5 -28v-217q0 -16 -11.5 -27.5t-27.5 -11.5t-26.5 11.5t-10.5 27.5zM584 16v217q0 16 10 27.5t27 11.5q16 0 27.5 -11t11.5 -28v-217q0 -16 -11.5 -27.5t-27.5 -11.5t-26.5 11.5t-10.5 27.5zM995 16v217q0 16 10 27.5 t27 11.5q16 0 27.5 -11t11.5 -28v-217q0 -16 -11.5 -27.5t-27.5 -11.5t-26.5 11.5t-10.5 27.5z" />
<glyph unicode="&#x202f;" horiz-adv-x="375" />
<glyph unicode="&#x2039;" horiz-adv-x="729" d="M113 709q0 35 18.5 59.5t40.5 42.5l266 238q15 10 27 10q14 0 25.5 -10.5t11.5 -26.5q0 -20 -17 -33l-258 -231q-20 -18 -28.5 -27.5t-8.5 -21.5t8.5 -21.5t28.5 -28.5l258 -231q16 -12 17 -33q0 -16 -11.5 -26.5t-25.5 -10.5q-12 0 -27 11l-266 237q-23 18 -41 43 t-18 60z" />
<glyph unicode="&#x203a;" horiz-adv-x="729" d="M227 395q0 20 17 33l258 231q20 18 28.5 27.5t8.5 22.5q0 12 -8.5 21t-28.5 28l-258 231q-16 12 -17 33q0 16 11.5 26.5t25.5 10.5q12 0 27 -10l266 -238q23 -18 41 -43t18 -59q0 -35 -18 -59.5t-41 -43.5l-266 -237q-15 -11 -27 -11q-14 0 -25.5 10.5t-11.5 26.5z" />
<glyph unicode="&#x205f;" horiz-adv-x="469" />
<glyph unicode="&#x20ac;" horiz-adv-x="1337" d="M125 612q0 18 12.5 28.5t28.5 10.5h125v133h-125q-16 0 -28.5 11.5t-12.5 25.5q0 18 12.5 28.5t28.5 10.5h125q0 119 34.5 226.5t102.5 188.5t166 128t225 47q129 0 229.5 -40t182.5 -120q12 -12 12 -30q0 -14 -10 -24.5t-25 -10.5q-16 0 -32 16q-39 37 -77 62.5t-80 41 t-90 22.5t-110 7q-111 0 -194.5 -40t-140 -109.5t-86 -163.5t-29.5 -201h465q16 0 28 -11t12 -28q0 -18 -12 -27.5t-28 -9.5h-465v-133h465q16 0 28 -11.5t12 -27.5q0 -18 -12 -27.5t-28 -9.5h-465q0 -106 29.5 -199t86 -163t140.5 -111t194 -41q61 0 109.5 7.5t90.5 22.5 t80 41t77 63q16 16 32 16q14 0 24.5 -10.5t10.5 -24.5q0 -18 -12 -31q-82 -80 -182.5 -119.5t-229.5 -39.5q-127 0 -225 47t-166 128t-102.5 187.5t-34.5 226.5h-125q-16 0 -28.5 11.5t-12.5 25.5z" />
<glyph unicode="&#x2122;" horiz-adv-x="1202" d="M102 1409q0 27 29 27h332q29 0 29 -27q0 -29 -29 -29h-137v-403q0 -29 -27 -29q-29 0 -29 29v403h-139q-29 0 -29 29zM532 985l60 401q4 29 20.5 41.5t38.5 12.5q47 0 60 -49l88 -377q0 -6 6 -6q8 0 8 6l86 377q4 25 20.5 37t38.5 12q23 0 39.5 -12.5t20.5 -41.5l59 -399 q2 -14 -5 -25.5t-23 -11.5q-23 0 -27 23l-55 403q-4 8 -9 8q-2 0 -8 -6l-88 -372q-12 -51 -57 -52q-45 0 -57 52l-91 372q0 6 -6 6q-8 0 -8 -8l-55 -403q-4 -23 -27 -23q-16 0 -23.5 11.5t-5.5 23.5z" />
<glyph unicode="&#x25fc;" horiz-adv-x="1054" d="M0 0v1055h1055v-1055h-1055z" />
<glyph unicode="&#xfb02;" horiz-adv-x="1253" d="M104 993q0 16 12.5 27.5t28.5 11.5h93v113q0 68 16 125t51 98t88 63.5t129 22.5q51 0 92 -6t66 -14q35 -10 35 -39q0 -10 -9.5 -22.5t-29.5 -12.5t-55 9t-99 9q-117 0 -163 -62.5t-46 -170.5v-113h328q16 0 28.5 -11t12.5 -28q0 -16 -12.5 -26.5t-28.5 -10.5h-328v-923 q0 -16 -11 -28.5t-28 -12.5q-16 0 -26 12t-10 29v923h-93q-16 0 -28.5 10.5t-12.5 26.5zM956 33v1370q0 16 10.5 28.5t26.5 12.5q18 0 28.5 -12.5t10.5 -28.5v-1370q0 -16 -9 -28.5t-28 -12.5q-16 0 -27.5 12t-11.5 29z" />
</font>
</defs>
</svg>
