<?xml version="1.0" encoding="UTF-8"?>
<svg width="122px" height="44px" viewBox="0 0 122 44" version="1.1" xmlns="http://www.w3.org/2000/svg" xmlns:xlink="http://www.w3.org/1999/xlink">
    <title>App-store</title>
    <g id="Homepage-Final" stroke="none" stroke-width="1" fill="none" fill-rule="evenodd">
        <g id="01_Homepage-Version-3-Copy" transform="translate(-1175, -2840)" fill-rule="nonzero">
            <g id="App-store" transform="translate(1176, 2841)">
                <g id="atlassian-copy-4" fill="#000000" stroke="#A6A6A6">
                    <path d="M9.216,0 L110.784,0 C115.873856,0 120,4.11737058 120,9.19640458 L120,32.9657576 C120,38.0447916 115.873856,42.1621622 110.784,42.1621622 L9.216,42.1621622 C4.12614375,42.1621622 0,38.0447916 0,32.9657576 L0,9.19640458 C0,4.11737058 4.12614375,0 9.216,0 Z" id="Rectangle"></path>
                </g>
                <g id="apple-copy" transform="translate(14.0541, 10.8108)" fill="#FFFFFF">
                    <path d="M15.8261477,18.9176617 C14.9413258,20.2581131 14.0032014,21.5661343 12.5746939,21.5877545 C11.1461863,21.6201848 10.6877846,20.7337572 9.06738793,20.7337572 C7.43633076,20.7337572 6.93528705,21.5661343 5.581403,21.6201848 C4.18487693,21.6742352 3.12948699,20.1932526 2.23400463,18.8852314 C0.411058379,16.2151386 -0.985467693,11.2965465 0.890781075,7.98865827 C1.81824496,6.34552423 3.48128364,5.30775536 5.28290887,5.27532508 C6.64745343,5.2537049 7.94803497,6.21580312 8.79021481,6.21580312 C9.62173415,6.21580312 11.1994888,5.05912324 12.851867,5.23208471 C13.5447998,5.26451499 15.4850116,5.51314712 16.7322906,7.37248301 C16.636346,7.43734356 14.4189611,8.75617483 14.4402821,11.4911282 C14.4722636,14.7557761 17.2653158,15.8475954 17.2972973,15.8584055 C17.2653158,15.9340762 16.8495561,17.4150588 15.8261477,18.9176617 L15.8261477,18.9176617 Z M9.7389997,1.62151386 C10.5172165,0.72427619 11.8071375,0.0432403695 12.873188,0 C13.0117745,1.26478081 12.5107308,2.54037171 11.7644955,3.44841947 C11.0289207,4.36727732 9.81362323,5.08074342 8.61964674,4.98345259 C8.45973918,3.74029197 9.05672742,2.44308088 9.7389997,1.62151386 Z" id="Shape"></path>
                </g>
                <path d="M43.795502,18.7888162 C44.6818758,18.7888162 45.3987958,18.5156082 45.9462619,17.9691921 C46.4937281,17.4227761 46.7674612,16.7281301 46.7674612,15.8852543 C46.7674612,15.0481914 46.4937281,14.3535455 45.9462619,13.8013165 C45.3987958,13.2490875 44.6818758,12.972973 43.795502,12.972973 L43.795502,12.972973 L41.8141959,12.972973 L41.8141959,18.7888162 L43.795502,18.7888162 Z M43.795502,18.1435802 L42.5354609,18.1435802 L42.5354609,13.618209 L43.795502,13.618209 C44.4906972,13.618209 45.0352667,13.8332876 45.4292106,14.2634449 C45.8231545,14.6936023 46.0201264,15.2342054 46.0201264,15.8852543 C46.0201264,16.5304903 45.8202578,17.0681869 45.4205206,17.4983443 C45.0207834,17.9285016 44.4791106,18.1435802 43.795502,18.1435802 L43.795502,18.1435802 Z M49.7046606,18.8934491 C50.3303362,18.8934491 50.831456,18.6812769 51.20802,18.2569325 C51.5903773,17.8325881 51.781556,17.3065173 51.781556,16.6787202 C51.781556,16.050923 51.5918257,15.5263055 51.212365,15.1048675 C50.8329043,14.6834296 50.3303362,14.4727107 49.7046606,14.4727107 C49.078985,14.4727107 48.5764168,14.6834296 48.1969562,15.1048675 C47.8174955,15.5263055 47.6277651,16.050923 47.6277651,16.6787202 C47.6277651,17.3065173 47.8174955,17.8325881 48.1969562,18.2569325 C48.5764168,18.6812769 49.078985,18.8934491 49.7046606,18.8934491 Z M49.7046606,18.3092489 C49.2759569,18.3092489 48.9341526,18.1522996 48.6792478,17.8384011 C48.4301362,17.5186895 48.3055804,17.1321292 48.3055804,16.6787202 C48.3055804,16.231124 48.4315845,15.8489234 48.6835927,15.5321184 C48.935601,15.2153133 49.2759569,15.0569108 49.7046606,15.0569108 C50.1333642,15.0569108 50.4722719,15.2138601 50.7213834,15.5277587 C50.970495,15.8416573 51.0950508,16.2253111 51.0950508,16.6787202 C51.0950508,17.1321292 50.970495,17.5172363 50.7213834,17.8340414 C50.4722719,18.1508464 50.1333642,18.3092489 49.7046606,18.3092489 Z M54.2842584,18.7888162 L55.3791908,15.405687 L56.4741231,18.7888162 L57.1258685,18.7888162 L58.4641191,14.5773435 L57.7863039,14.5773435 L56.7608911,17.9343145 L55.6572688,14.5773435 L55.1011127,14.5773435 L53.9974905,17.9343145 L52.9720776,14.5773435 L52.2942624,14.5773435 L53.632513,18.7888162 L54.2842584,18.7888162 Z M59.8718892,18.7888162 L59.8718892,15.7108662 C59.9993417,15.5306652 60.1774854,15.3766223 60.4063205,15.2487377 C60.6351555,15.1208531 60.8712322,15.0569108 61.1145505,15.0569108 C61.4158017,15.0569108 61.6475334,15.1310258 61.8097456,15.2792556 C61.9719578,15.4274855 62.0530639,15.678895 62.0530639,16.0334842 L62.0530639,16.0334842 L62.0530639,18.7888162 L62.7048094,18.7888162 L62.7048094,15.8329379 C62.7048094,14.9261197 62.2587258,14.4727107 61.3665587,14.4727107 C61.0768941,14.4727107 60.7959194,14.5439191 60.5236347,14.6863361 C60.2513499,14.828753 60.0341014,14.995875 59.8718892,15.1877019 L59.8718892,15.1877019 L59.8718892,14.5773435 L59.2201438,14.5773435 L59.2201438,18.7888162 L59.8718892,18.7888162 Z M64.6600456,18.7888162 L64.6600456,12.972973 L64.0083002,12.972973 L64.0083002,18.7888162 L64.6600456,18.7888162 Z M67.7971136,18.8934491 C68.4227892,18.8934491 68.9239091,18.6812769 69.3004731,18.2569325 C69.6828304,17.8325881 69.8740091,17.3065173 69.8740091,16.6787202 C69.8740091,16.050923 69.6842787,15.5263055 69.304818,15.1048675 C68.9253574,14.6834296 68.4227892,14.4727107 67.7971136,14.4727107 C67.171438,14.4727107 66.6688699,14.6834296 66.2894092,15.1048675 C65.9099485,15.5263055 65.7202182,16.050923 65.7202182,16.6787202 C65.7202182,17.3065173 65.9099485,17.8325881 66.2894092,18.2569325 C66.6688699,18.6812769 67.171438,18.8934491 67.7971136,18.8934491 Z M67.7971136,18.3092489 C67.36841,18.3092489 67.0266057,18.1522996 66.7717008,17.8384011 C66.5225892,17.5186895 66.3980334,17.1321292 66.3980334,16.6787202 C66.3980334,16.231124 66.5240376,15.8489234 66.7760458,15.5321184 C67.028054,15.2153133 67.36841,15.0569108 67.7971136,15.0569108 C68.2258173,15.0569108 68.5647249,15.2138601 68.8138365,15.5277587 C69.0629481,15.8416573 69.1875039,16.2253111 69.1875039,16.6787202 C69.1875039,17.1321292 69.0629481,17.5172363 68.8138365,17.8340414 C68.5647249,18.1508464 68.2258173,18.3092489 67.7971136,18.3092489 Z M72.168153,18.8934491 C72.7416889,18.8934491 73.2051523,18.6987157 73.5585432,18.3092489 L73.5585432,18.3092489 L73.5585432,18.7888162 L74.2102886,18.7888162 L74.2102886,15.8939737 C74.2102886,15.4114999 74.059663,15.0540043 73.7584118,14.8214869 C73.4571606,14.5889694 73.0661133,14.4727107 72.58527,14.4727107 C71.9132481,14.4727107 71.3541953,14.7052281 70.9081118,15.1702631 L70.9081118,15.1702631 L71.2122597,15.6236721 C71.5772371,15.2342054 72.0059408,15.039472 72.4983706,15.039472 C72.8112084,15.039472 73.0661133,15.1179466 73.2630853,15.2748959 C73.4600572,15.4318452 73.5585432,15.6498304 73.5585432,15.9288513 L73.5585432,15.9288513 L73.5585432,16.6874396 C73.2283255,16.3037857 72.7648621,16.1119588 72.168153,16.1119588 C71.7742091,16.1119588 71.4309565,16.2325773 71.1383952,16.4738141 C70.8458339,16.715051 70.6995533,17.0565611 70.6995533,17.4983443 C70.6995533,17.9285016 70.8472822,18.2685584 71.1427401,18.5185147 C71.4381981,18.7684709 71.7800023,18.8934491 72.168153,18.8934491 Z M72.4027813,18.4226012 C72.1015301,18.4226012 71.8538668,18.3368604 71.6597915,18.1653787 C71.4657162,17.9938971 71.3686786,17.7744587 71.3686786,17.5070637 C71.3686786,17.2338556 71.4657162,17.0115108 71.6597915,16.8400292 C71.8538668,16.6685475 72.1015301,16.5828067 72.4027813,16.5828067 C72.9241776,16.5828067 73.3094316,16.7571948 73.5585432,17.105971 L73.5585432,17.105971 L73.5585432,17.8994369 C73.3094316,18.2482131 72.9241776,18.4226012 72.4027813,18.4226012 Z M77.1387981,18.8934491 C77.7239206,18.8934491 78.196074,18.6493057 78.5552581,18.161019 L78.5552581,18.161019 L78.5552581,18.7888162 L79.2070036,18.7888162 L79.2070036,12.972973 L78.5552581,12.972973 L78.5552581,15.2138601 C78.1902807,14.7197605 77.7181273,14.4727107 77.1387981,14.4727107 C76.582642,14.4727107 76.1322135,14.6747102 75.7875126,15.0787093 C75.4428116,15.4827084 75.2704612,16.0189518 75.2704612,16.6874396 C75.2704612,17.3617402 75.4428116,17.8979837 75.7875126,18.2961698 C76.1322135,18.694356 76.582642,18.8934491 77.1387981,18.8934491 Z M77.295217,18.3092489 C76.8838932,18.3092489 76.5565722,18.1581126 76.3132539,17.8558399 C76.0699356,17.5535672 75.9482764,17.1641004 75.9482764,16.6874396 C75.9482764,16.2107788 76.0699356,15.8198588 76.3132539,15.5146796 C76.5565722,15.2095004 76.8838932,15.0569108 77.295217,15.0569108 C77.5443286,15.0569108 77.7861985,15.1223063 78.0208269,15.2530974 C78.2554552,15.3838885 78.433599,15.5451975 78.5552581,15.7370244 L78.5552581,15.7370244 L78.5552581,17.6465741 C78.433599,17.8325881 78.2569036,17.9895374 78.0251719,18.117422 C77.7934401,18.2453066 77.5501219,18.3092489 77.295217,18.3092489 Z M84.5860758,18.8934491 C85.2117514,18.8934491 85.7128712,18.6812769 86.0894353,18.2569325 C86.4717926,17.8325881 86.6629712,17.3065173 86.6629712,16.6787202 C86.6629712,16.050923 86.4732409,15.5263055 86.0937802,15.1048675 C85.7143196,14.6834296 85.2117514,14.4727107 84.5860758,14.4727107 C83.9604002,14.4727107 83.4578321,14.6834296 83.0783714,15.1048675 C82.6989107,15.5263055 82.5091804,16.050923 82.5091804,16.6787202 C82.5091804,17.3065173 82.6989107,17.8325881 83.0783714,18.2569325 C83.4578321,18.6812769 83.9604002,18.8934491 84.5860758,18.8934491 Z M84.5860758,18.3092489 C84.1573722,18.3092489 83.8155679,18.1522996 83.560663,17.8384011 C83.3115514,17.5186895 83.1869956,17.1321292 83.1869956,16.6787202 C83.1869956,16.231124 83.3129998,15.8489234 83.565008,15.5321184 C83.8170162,15.2153133 84.1573722,15.0569108 84.5860758,15.0569108 C85.0147795,15.0569108 85.3536871,15.2138601 85.6027987,15.5277587 C85.8519103,15.8416573 85.9764661,16.2253111 85.9764661,16.6787202 C85.9764661,17.1321292 85.8519103,17.5172363 85.6027987,17.8340414 C85.3536871,18.1508464 85.0147795,18.3092489 84.5860758,18.3092489 Z M88.3748892,18.7888162 L88.3748892,15.7108662 C88.5023417,15.5306652 88.6804854,15.3766223 88.9093205,15.2487377 C89.1381555,15.1208531 89.3742322,15.0569108 89.6175505,15.0569108 C89.9188017,15.0569108 90.1505334,15.1310258 90.3127456,15.2792556 C90.4749578,15.4274855 90.5560639,15.678895 90.5560639,16.0334842 L90.5560639,16.0334842 L90.5560639,18.7888162 L91.2078094,18.7888162 L91.2078094,15.8329379 C91.2078094,14.9261197 90.7617258,14.4727107 89.8695587,14.4727107 C89.5798941,14.4727107 89.2989194,14.5439191 89.0266347,14.6863361 C88.7543499,14.828753 88.5371014,14.995875 88.3748892,15.1877019 L88.3748892,15.1877019 L88.3748892,14.5773435 L87.7231438,14.5773435 L87.7231438,18.7888162 L88.3748892,18.7888162 Z M95.813477,18.8934491 C96.1436947,18.8934491 96.4043929,18.8033486 96.5955716,18.6231475 L96.5955716,18.6231475 L96.4043929,18.1348608 C96.3001136,18.2511196 96.1523847,18.3092489 95.961206,18.3092489 C95.822167,18.3092489 95.7164394,18.259839 95.6440232,18.161019 C95.5716071,18.0621991 95.535399,17.931408 95.535399,17.7686458 L95.535399,17.7686458 L95.535399,15.1528243 L96.387013,15.1528243 L96.387013,14.5773435 L95.535399,14.5773435 L95.535399,13.426382 L94.8836536,13.426382 L94.8836536,14.5773435 L94.1884584,14.5773435 L94.1884584,15.1528243 L94.8836536,15.1528243 L94.8836536,17.9081563 C94.8836536,18.2278678 94.961863,18.4720112 95.1182819,18.6405863 C95.2747008,18.8091615 95.5064325,18.8934491 95.813477,18.8934491 Z M97.959892,18.7888162 L97.959892,15.7108662 C98.0931377,15.5306652 98.2741781,15.3766223 98.5030132,15.2487377 C98.7318482,15.1208531 98.9650283,15.0569108 99.2025533,15.0569108 C99.5095978,15.0569108 99.7442261,15.1295725 99.9064383,15.2748959 C100.068651,15.4202194 100.149757,15.6672692 100.149757,16.0160454 L100.149757,16.0160454 L100.149757,18.7888162 L100.801502,18.7888162 L100.801502,15.8154991 C100.801502,14.9203068 100.355419,14.4727107 99.4632514,14.4727107 C99.1677935,14.4727107 98.8839222,14.5439191 98.6116374,14.6863361 C98.3393527,14.828753 98.1221042,14.995875 97.959892,15.1877019 L97.959892,15.1877019 L97.959892,12.972973 L97.3081466,12.972973 L97.3081466,18.7888162 L97.959892,18.7888162 Z M103.9994,18.8934491 C104.683008,18.8934491 105.239164,18.6783704 105.667868,18.2482131 L105.667868,18.2482131 L105.35503,17.8209622 C105.013226,18.1755514 104.581626,18.352846 104.060229,18.352846 C103.625732,18.352846 103.272341,18.2133355 103.000057,17.9343145 C102.727772,17.6552935 102.577146,17.3094238 102.54818,16.8967053 L102.54818,16.8967053 L105.945946,16.8967053 L105.945946,16.7310366 C105.945946,16.0799877 105.764906,15.5408378 105.402825,15.1135869 C105.040744,14.6863361 104.549762,14.4727107 103.92988,14.4727107 C103.338964,14.4727107 102.846534,14.6863361 102.45259,15.1135869 C102.058647,15.5408378 101.861675,16.0625489 101.861675,16.6787202 C101.861675,17.335582 102.061543,17.868919 102.46128,18.278731 C102.861018,18.6885431 103.373724,18.8934491 103.9994,18.8934491 Z M105.30289,16.417138 L102.54818,16.417138 C102.56556,16.050923 102.69446,15.7253985 102.934882,15.4405646 C103.175304,15.1557307 103.504073,15.0133138 103.92119,15.0133138 C104.36148,15.0133138 104.700388,15.157184 104.937913,15.4449243 C105.175438,15.7326647 105.297097,16.0567359 105.30289,16.417138 L105.30289,16.417138 Z M42.8727885,31.4715874 L43.3373052,30.2175784 L46.5004431,30.2175784 L46.9538999,31.4715874 L48.7456073,31.4715874 L45.9032072,24.0696051 L43.9345411,24.0696051 L41.0810811,31.4715874 L42.8727885,31.4715874 Z M46.0691061,28.8304003 L43.7686422,28.8304003 L44.9188742,25.6454394 L46.0691061,28.8304003 Z M50.8027529,33.5135135 L50.8027529,30.783547 C51.2304032,31.33102 51.7797127,31.6047565 52.4506813,31.6047565 C53.1511431,31.6047565 53.7207291,31.3532148 54.1594393,30.8501316 C54.5981496,30.3470483 54.8175047,29.659008 54.8175047,28.7860106 C54.8175047,27.9130132 54.5981496,27.2268224 54.1594393,26.7274383 C53.7207291,26.2280542 53.1511431,25.9783621 52.4506813,25.9783621 C51.7723394,25.9783621 51.2230299,26.2483994 50.8027529,26.7884741 L50.8027529,26.7884741 L50.8027529,26.1115312 L49.3981427,26.1115312 L49.3981427,33.5135135 L50.8027529,33.5135135 Z M52.0082844,30.3507475 C51.787086,30.3507475 51.5603576,30.2915612 51.3280992,30.1731887 C51.0958408,30.0548161 50.9207254,29.9105496 50.8027529,29.7403891 L50.8027529,29.7403891 L50.8027529,27.8427295 C50.9207254,27.672569 51.0939975,27.5283024 51.3225692,27.4099299 C51.5511409,27.2915574 51.7797127,27.2323711 52.0082844,27.2323711 C52.4138149,27.2323711 52.7400826,27.3766376 52.9870875,27.6651707 C53.2340925,27.9537037 53.3575949,28.327317 53.3575949,28.7860106 C53.3575949,29.2521024 53.2340925,29.6294149 52.9870875,29.9179479 C52.7400826,30.2064809 52.4138149,30.3507475 52.0082844,30.3507475 Z M57.2506876,33.5135135 L57.2506876,30.783547 C57.678338,31.33102 58.2276474,31.6047565 58.8986161,31.6047565 C59.5990778,31.6047565 60.1686638,31.3532148 60.6073741,30.8501316 C61.0460843,30.3470483 61.2654395,29.659008 61.2654395,28.7860106 C61.2654395,27.9130132 61.0460843,27.2268224 60.6073741,26.7274383 C60.1686638,26.2280542 59.5990778,25.9783621 58.8986161,25.9783621 C58.2202742,25.9783621 57.6709647,26.2483994 57.2506876,26.7884741 L57.2506876,26.7884741 L57.2506876,26.1115312 L55.8460775,26.1115312 L55.8460775,33.5135135 L57.2506876,33.5135135 Z M58.4562192,30.3507475 C58.2350207,30.3507475 58.0082923,30.2915612 57.7760339,30.1731887 C57.5437756,30.0548161 57.3686601,29.9105496 57.2506876,29.7403891 L57.2506876,29.7403891 L57.2506876,27.8427295 C57.3686601,27.672569 57.5419322,27.5283024 57.770504,27.4099299 C57.9990757,27.2915574 58.2276474,27.2323711 58.4562192,27.2323711 C58.8617497,27.2323711 59.1880174,27.3766376 59.4350223,27.6651707 C59.6820272,27.9537037 59.8055297,28.327317 59.8055297,28.7860106 C59.8055297,29.2521024 59.6820272,29.6294149 59.4350223,29.9179479 C59.1880174,30.2064809 58.8617497,30.3507475 58.4562192,30.3507475 Z M67.7797337,31.6047565 C68.7382604,31.6047565 69.4700586,31.3865071 69.9751283,30.9500084 C70.4801981,30.5135097 70.732733,29.9401427 70.732733,29.2299076 C70.732733,28.8008071 70.6276638,28.4327425 70.4175252,28.1257138 C70.2073867,27.818685 69.9456352,27.5930374 69.6322707,27.4487709 C69.3189063,27.3045044 68.9797353,27.1750344 68.6147579,27.060361 C68.2497804,26.9456876 67.9106095,26.8587578 67.597245,26.7995715 C67.2838806,26.7403853 67.0221291,26.6497563 66.8119905,26.5276846 C66.601852,26.405613 66.4967827,26.2557977 66.4967827,26.0782389 C66.4967827,25.8488922 66.5889488,25.6676342 66.7732808,25.5344651 C66.9576128,25.401296 67.2156777,25.3347115 67.5474754,25.3347115 C68.3954028,25.3347115 69.1106111,25.6047488 69.6931003,26.1448235 L69.6931003,26.1448235 L70.5668342,24.9906913 C69.8221327,24.302651 68.8636061,23.9586308 67.6912544,23.9586308 C66.843327,23.9586308 66.1649851,24.1750306 65.6562286,24.6078302 C65.1474722,25.0406297 64.893094,25.5751557 64.893094,26.211408 C64.893094,26.6479067 64.9981633,27.0178209 65.2083018,27.3211505 C65.4184403,27.6244801 65.6801918,27.8464286 65.9935563,27.986996 C66.3069207,28.1275634 66.647935,28.2533342 67.0165991,28.3643084 C67.3852632,28.4752827 67.7262775,28.5603629 68.0396419,28.6195492 C68.3530064,28.6787355 68.6147579,28.7749131 68.8248964,28.9080822 C69.0350349,29.0412513 69.1401042,29.2077127 69.1401042,29.4074664 C69.1401042,29.6368131 69.0276617,29.8310181 68.8027766,29.9900812 C68.5778915,30.1491442 68.2626837,30.2286758 67.8571532,30.2286758 C66.9281197,30.2286758 66.1465519,29.895753 65.5124497,29.2299076 L65.5124497,29.2299076 L64.6608356,30.4284294 C65.4276569,31.2126474 66.4672896,31.6047565 67.7797337,31.6047565 Z M73.5530132,31.6047565 C74.0765162,31.6047565 74.4673002,31.4900831 74.725365,31.2607363 L74.725365,31.2607363 L74.4267471,30.1953835 C74.3235212,30.2989595 74.161309,30.3507475 73.9401105,30.3507475 C73.7926449,30.3507475 73.6746724,30.2952603 73.586193,30.1842861 C73.4977136,30.0733118 73.4534739,29.9327445 73.4534739,29.7625839 L73.4534739,29.7625839 L73.4534739,27.3433454 L74.5373463,27.3433454 L74.5373463,26.1115312 L73.4534739,26.1115312 L73.4534739,24.6466711 L72.0378039,24.6466711 L72.0378039,26.1115312 L71.1530101,26.1115312 L71.1530101,27.3433454 L72.0378039,27.3433454 L72.0378039,30.1398964 C72.0378039,30.6133865 72.1668363,30.9759024 72.4249012,31.227444 C72.682966,31.4789856 73.0590034,31.6047565 73.5530132,31.6047565 Z M77.9769822,31.6047565 C78.8322829,31.6047565 79.517998,31.3347191 80.0341278,30.7946444 C80.5502575,30.2471715 80.8083223,29.5776269 80.8083223,28.7860106 C80.8083223,27.9943943 80.5502575,27.3285488 80.0341278,26.7884741 C79.517998,26.2483994 78.8322829,25.9783621 77.9769822,25.9783621 C77.1216815,25.9783621 76.4378097,26.2483994 75.9253666,26.7884741 C75.4129235,27.3285488 75.156702,27.9943943 75.156702,28.7860106 C75.156702,29.5776269 75.4129235,30.2453219 75.9253666,30.7890957 C76.4378097,31.3328695 77.1216815,31.6047565 77.9769822,31.6047565 Z M77.9769822,30.3507475 C77.5567051,30.3507475 77.2249075,30.2027818 76.9815892,29.9068505 C76.7382709,29.6035209 76.6166117,29.2299076 76.6166117,28.7860106 C76.6166117,28.3495119 76.7382709,27.9814473 76.9815892,27.6818168 C77.2249075,27.3821863 77.5567051,27.2323711 77.9769822,27.2323711 C78.3972592,27.2323711 78.7309002,27.3821863 78.9779052,27.6818168 C79.2249101,27.9814473 79.3484126,28.3495119 79.3484126,28.7860106 C79.3484126,29.2299076 79.2249101,29.6016713 78.9779052,29.9013018 C78.7309002,30.2009322 78.3972592,30.3507475 77.9769822,30.3507475 Z M83.2525652,31.4715874 L83.2525652,27.9315089 C83.3631644,27.7613484 83.5511831,27.6170818 83.8166212,27.4987093 C84.0820594,27.3803368 84.3327509,27.3211505 84.5686959,27.3211505 C84.7309081,27.3211505 84.8599406,27.3322479 84.9557932,27.3544428 L84.9557932,27.3544428 L84.9557932,25.9783621 C84.6387421,25.9783621 84.3253777,26.0597432 84.0156998,26.2225055 C83.706022,26.3852677 83.4516438,26.5924196 83.2525652,26.8439612 L83.2525652,26.8439612 L83.2525652,26.1115312 L81.847955,26.1115312 L81.847955,31.4715874 L83.2525652,31.4715874 Z M88.3401295,31.6047565 C89.269163,31.6047565 90.0028045,31.356914 90.541054,30.861229 L90.541054,30.861229 L89.9216984,29.9512402 C89.7594862,30.1140024 89.5401311,30.2434724 89.263633,30.33965 C88.9871349,30.4358277 88.7309134,30.4839166 88.4949684,30.4839166 C88.0599448,30.4839166 87.7060273,30.365544 87.4332158,30.128799 C87.1604044,29.8920539 87.0018789,29.5961226 86.9576392,29.241005 L86.9576392,29.241005 L90.9281513,29.241005 L90.9281513,28.9302771 C90.9281513,28.0498814 90.6811464,27.3377966 90.1871365,26.7940228 C89.6931267,26.250249 89.0479645,25.9783621 88.2516501,25.9783621 C87.4479624,25.9783621 86.7862104,26.2483994 86.266394,26.7884741 C85.7465777,27.3285488 85.4866695,27.9943943 85.4866695,28.7860106 C85.4866695,29.6294149 85.7557943,30.3100569 86.2940438,30.8279367 C86.8322934,31.3458165 87.5143219,31.6047565 88.3401295,31.6047565 Z M89.5677809,28.2866265 L86.9355193,28.2866265 C86.9723857,27.9758986 87.1014182,27.7003125 87.3226166,27.4598683 C87.5438151,27.2194241 87.8534929,27.099202 88.2516501,27.099202 C88.6719272,27.099202 88.9908216,27.2212737 89.2083334,27.465417 C89.4258452,27.7095604 89.545661,27.9832968 89.5677809,28.2866265 L89.5677809,28.2866265 Z" id="DownloadontheAppStore" fill="#FFFFFF"></path>
            </g>
        </g>
    </g>
</svg>