<?xml version="1.0" encoding="UTF-8"?>
<svg width="18px" height="21px" viewBox="0 0 18 21" version="1.1" xmlns="http://www.w3.org/2000/svg" xmlns:xlink="http://www.w3.org/1999/xlink">
    <title>flight_land_24dp_5F6368_FILL0_wght400_GRAD0_opsz24</title>
    <g id="Page-1" stroke="none" stroke-width="1" fill="none" fill-rule="evenodd">
        <g id="01_Homepage-Version-3" transform="translate(-342, -549)" fill="#FFFFFF" fill-rule="nonzero">
            <g id="Group-16" transform="translate(310, 549)">
                <g id="flight_land_24dp_5F6368_FILL0_wght400_GRAD0_opsz24" transform="translate(32, 0)">
                    <path d="M0,20.2 L0,18.2 L18,18.2 L18,20.2 L0,20.2 Z M15.55,15.15 L0,10.725 L0,3.45 L2.4,4.125 L3.6,7.6 L7.05,8.575 L6.175,0 L9.05,0.85 L12.25,10.075 L16.55,11.3 C16.9666667,11.4333333 17.3125,11.675 17.5875,12.025 C17.8625,12.375 18,12.775 18,13.225 C18,13.8083333 17.7625,14.3208333 17.2875,14.7625 C16.8125,15.2041667 16.2333333,15.3333333 15.55,15.15 Z" id="Shape"></path>
                </g>
            </g>
        </g>
    </g>
</svg>