<?xml version="1.0" encoding="UTF-8"?>
<svg width="20px" height="20px" viewBox="0 0 20 20" version="1.1" xmlns="http://www.w3.org/2000/svg" xmlns:xlink="http://www.w3.org/1999/xlink">
    <title>call</title>
    <g id="Homepage-Final" stroke="none" stroke-width="1" fill="none" fill-rule="evenodd">
        <g id="call">
            <rect id="Rectangle" x="0" y="0" width="20" height="20"></rect>
            <g id="phone-(15)" transform="translate(3, 3)" fill="#FFFFFF" fill-rule="nonzero">
                <g id="Path-2">
                    <path d="M2.81555556,6.05888889 C3.93555556,8.26 5.74,10.0644444 7.94111111,11.1844444 L9.65222222,9.47333333 C9.87,9.25555556 10.1733333,9.19333333 10.4455556,9.27888889 C11.3166667,9.56666667 12.25,9.72222222 13.2222222,9.72222222 C13.651777,9.72222222 14,10.0704452 14,10.5 L14,13.2222222 C14,13.651777 13.651777,14 13.2222222,14 C5.91979053,14 0,8.08020947 0,0.777777778 C0,0.571498286 0.0819442092,0.373667465 0.227805837,0.227805837 C0.373667465,0.0819442092 0.571498286,0 0.777777778,0 L3.5,0 C3.92955481,0 4.27777778,0.348222972 4.27777778,0.777777778 C4.27777778,1.75 4.43333333,2.68333333 4.72111111,3.55444444 C4.80666667,3.82666667 4.74444444,4.13 4.52666667,4.34777778 L2.81555556,6.05888889 Z" id="Path"></path>
                </g>
            </g>
        </g>
    </g>
</svg>