<?xml version="1.0" encoding="UTF-8"?>
<svg width="14px" height="14px" viewBox="0 0 14 14" version="1.1" xmlns="http://www.w3.org/2000/svg" xmlns:xlink="http://www.w3.org/1999/xlink">
    <title>Path</title>
    <g id="Homepage-Final" stroke="none" stroke-width="1" fill="none" fill-rule="evenodd">
        <g id="02_Homepage_Menu_Option_1" transform="translate(-1180, -66)" fill="#424242" fill-rule="nonzero">
            <g id="Group-5" transform="translate(0, 36)">
                <path d="M1182.81556,36.0588889 C1183.93556,38.26 1185.74,40.0644444 1187.94111,41.1844444 L1189.65222,39.4733333 C1189.87,39.2555556 1190.17333,39.1933333 1190.44556,39.2788889 C1191.31667,39.5666667 1192.25,39.7222222 1193.22222,39.7222222 C1193.65178,39.7222222 1194,40.0704452 1194,40.5 L1194,43.2222222 C1194,43.651777 1193.65178,44 1193.22222,44 C1185.91979,44 1180,38.0802095 1180,30.7777778 C1180,30.5714983 1180.08194,30.3736675 1180.22781,30.2278058 C1180.37367,30.0819442 1180.5715,30 1180.77778,30 L1183.5,30 C1183.92955,30 1184.27778,30.348223 1184.27778,30.7777778 C1184.27778,31.75 1184.43333,32.6833333 1184.72111,33.5544444 C1184.80667,33.8266667 1184.74444,34.13 1184.52667,34.3477778 L1182.81556,36.0588889 Z" id="Path"></path>
            </g>
        </g>
    </g>
</svg>