<?xml version="1.0" encoding="UTF-8"?>
<svg width="15px" height="17px" viewBox="0 0 15 17" version="1.1" xmlns="http://www.w3.org/2000/svg" xmlns:xlink="http://www.w3.org/1999/xlink">
    <title>noun-dark-theme-2856481</title>
    <g id="Homepage-Final" stroke="none" stroke-width="1" fill="none" fill-rule="evenodd">
        <g id="07_Font_Change-Copy" transform="translate(-1175, -209)" fill="#424242" fill-rule="nonzero">
            <g id="Group-5" transform="translate(1, 36)">
                <g id="Group-34" transform="translate(1172.1244, 27)">
                    <g id="noun-dark-theme-2856481" transform="translate(2, 146)">
                        <path d="M13.9489677,13.4805989 C13.8495252,13.2747744 13.632082,13.1530063 13.4046302,13.1757699 C10.9427318,13.5259875 8.47678401,12.5643791 6.90187942,10.6399904 C5.32697484,8.71560168 4.87205775,6.10818161 5.70225448,3.7641744 C6.08191349,2.68993891 6.7170727,1.72412328 7.55300201,0.949949493 C7.73411157,0.787826745 7.78578249,0.525275293 7.67961217,0.306614999 C7.57344186,0.0879547046 7.33516514,-0.0338129268 7.0957585,0.00824560564 C3.58258933,0.487105491 0.774701105,3.16891573 0.135062276,6.65639714 C-0.504576553,10.1438786 1.16882324,13.6476016 4.2833854,15.3420535 C7.39794755,17.0365053 11.2486569,16.5381282 13.8292135,14.106587 C14,13.9455477 14.0481481,13.693262 13.9489677,13.4805989 Z" id="Path"></path>
                    </g>
                </g>
            </g>
        </g>
    </g>
</svg>