<?xml version="1.0" encoding="UTF-8"?>
<svg width="20px" height="18px" viewBox="0 0 20 18" version="1.1" xmlns="http://www.w3.org/2000/svg" xmlns:xlink="http://www.w3.org/1999/xlink">
    <title>Shape</title>
    <g id="Homepage-Final" stroke="none" stroke-width="1" fill="none" fill-rule="evenodd">
        <g id="02_Homepage_Menu_Option_1" transform="translate(-1215, -64)" fill="#424242" fill-rule="nonzero">
            <g id="Group-5" transform="translate(0, 36)">
                <path d="M1225,32.0909091 C1223.49377,32.0909091 1222.27273,33.3119507 1222.27273,34.8181818 C1222.27273,36.324413 1223.49377,37.5454545 1225,37.5454545 C1226.50623,37.5454545 1227.72727,36.324413 1227.72727,34.8181818 C1227.72727,33.3119507 1226.50623,32.0909091 1225,32.0909091 M1225,39.3636364 C1222.48961,39.3636364 1220.45455,37.328567 1220.45455,34.8181818 C1220.45455,32.3077966 1222.48961,30.2727273 1225,30.2727273 C1227.51039,30.2727273 1229.54545,32.3077966 1229.54545,34.8181818 C1229.54545,37.328567 1227.51039,39.3636364 1225,39.3636364 M1225,28 C1220.58182,28 1216.61818,30.7272727 1215,34.8181818 C1217.17273,40.3454545 1223.40909,43.0545455 1228.93636,40.8818182 C1231.70909,39.7909091 1233.90909,37.6 1235,34.8181818 C1233.38182,30.7272727 1229.41818,28 1225,28 M1220.45455,43.9090909 L1222.27273,43.9090909 L1222.27273,45.7272727 L1220.45455,45.7272727 L1220.45455,43.9090909 M1224.09091,43.9090909 L1225.90909,43.9090909 L1225.90909,45.7272727 L1224.09091,45.7272727 L1224.09091,43.9090909 M1227.72727,43.9090909 L1229.54545,43.9090909 L1229.54545,45.7272727 L1227.72727,45.7272727 L1227.72727,43.9090909 Z" id="Shape"></path>
            </g>
        </g>
    </g>
</svg>