<?xml version="1.0" encoding="UTF-8"?>
<svg width="20px" height="20px" viewBox="0 0 20 20" version="1.1" xmlns="http://www.w3.org/2000/svg" xmlns:xlink="http://www.w3.org/1999/xlink">
    <title>eye</title>
    <g id="Homepage-Final" stroke="none" stroke-width="1" fill="none" fill-rule="evenodd">
        <g id="eye">
            <rect id="Rectangle-Copy-37" x="0" y="0" width="20" height="20"></rect>
            <path d="M10,5.09090909 C8.49376886,5.09090909 7.27272727,6.31195068 7.27272727,7.81818182 C7.27272727,9.32441295 8.49376886,10.5454545 10,10.5454545 C11.5062311,10.5454545 12.7272727,9.32441295 12.7272727,7.81818182 C12.7272727,6.31195068 11.5062311,5.09090909 10,5.09090909 M10,12.3636364 C7.48961477,12.3636364 5.45454545,10.328567 5.45454545,7.81818182 C5.45454545,5.30779659 7.48961477,3.27272727 10,3.27272727 C12.5103852,3.27272727 14.5454545,5.30779659 14.5454545,7.81818182 C14.5454545,10.328567 12.5103852,12.3636364 10,12.3636364 M10,1 C5.58181818,1 1.61818182,3.72727273 0,7.81818182 C2.17272727,13.3454545 8.40909091,16.0545455 13.9363636,13.8818182 C16.7090909,12.7909091 18.9090909,10.6 20,7.81818182 C18.3818182,3.72727273 14.4181818,1 10,1 M5.45454545,16.9090909 L7.27272727,16.9090909 L7.27272727,18.7272727 L5.45454545,18.7272727 L5.45454545,16.9090909 M9.09090909,16.9090909 L10.9090909,16.9090909 L10.9090909,18.7272727 L9.09090909,18.7272727 L9.09090909,16.9090909 M12.7272727,16.9090909 L14.5454545,16.9090909 L14.5454545,18.7272727 L12.7272727,18.7272727 L12.7272727,16.9090909 Z" id="Shape" fill="#FFFFFF" fill-rule="nonzero"></path>
        </g>
    </g>
</svg>