<?xml version="1.0" encoding="UTF-8"?>
<svg width="9px" height="16px" viewBox="0 0 9 16" version="1.1" xmlns="http://www.w3.org/2000/svg" xmlns:xlink="http://www.w3.org/1999/xlink">
    <title>facebook-svgrepo-com</title>
    <g id="Page-1" stroke="none" stroke-width="1" fill="none" fill-rule="evenodd">
        <g id="facebook-svgrepo-com" fill="#212121" fill-rule="nonzero">
            <path d="M0.25809375,8.52159375 L2.0119375,8.52159375 L2.0119375,15.7419375 C2.0119375,15.8845 2.1274375,16 2.27,16 L5.24371875,16 C5.38628125,16 5.50178125,15.8845 5.50178125,15.7419375 L5.50178125,8.555625 L7.518,8.555625 C7.64909375,8.555625 7.75940625,8.45725 7.774375,8.32703125 L8.08059375,5.668875 C8.089,5.59575 8.06584375,5.5225 8.01690625,5.467625 C7.9679375,5.41271875 7.89784375,5.38128125 7.82428125,5.38128125 L5.50190625,5.38128125 L5.50190625,3.715 C5.50190625,3.21271875 5.77234375,2.958 6.30584375,2.958 C6.381875,2.958 7.82428125,2.958 7.82428125,2.958 C7.96684375,2.958 8.08234375,2.8424375 8.08234375,2.6999375 L8.08234375,0.25996875 C8.08234375,0.11740625 7.96684375,0.00190625 7.82428125,0.00190625 L5.731625,0.00190625 C5.716875,0.0011875 5.68409375,0 5.63578125,0 C5.2726875,0 4.01059375,0.07128125 3.013625,0.9884375 C1.909,2.0048125 2.0625625,3.22171875 2.09925,3.43271875 L2.09925,5.38121875 L0.2580625,5.38121875 C0.1155,5.38121875 0,5.49671875 0,5.63928125 L0,8.2635 C0,8.40603125 0.11553125,8.52159375 0.25809375,8.52159375 Z" id="Path"></path>
        </g>
    </g>
</svg>