<?xml version="1.0" encoding="UTF-8"?>
<svg width="24px" height="24px" viewBox="0 0 24 24" version="1.1" xmlns="http://www.w3.org/2000/svg" xmlns:xlink="http://www.w3.org/1999/xlink">
    <title>Feedback-icon</title>
    <g id="Homepage-Final" stroke="none" stroke-width="1" fill="none" fill-rule="evenodd">
        <g id="01_Homepage-Version-3-Copy" transform="translate(-1406, -344)">
            <g id="Feedback-icon" transform="translate(1406, 344)">
                <rect id="Rectangle" x="0" y="0" width="24" height="24"></rect>
                <g id="Group-41" transform="translate(3, 0)" fill="#FFFFFF" fill-rule="nonzero">
                    <path d="M3.71741716,22.3043708 L0.413046352,22.3043708 C0.165218541,22.3043708 0,22.1391523 0,21.8913245 L0,12.8043047 C0,12.5564769 0.165218541,12.3912584 0.413046352,12.3912584 L3.71741716,12.3912584 C3.96524498,12.3912584 4.13046352,12.5564769 4.13046352,12.8043047 L4.13046352,21.8913245 C4.13046352,22.1391523 3.96524498,22.3043708 3.71741716,22.3043708 Z M19,21.4782781 C19,22.3869801 18.2565166,23.1304635 17.3478146,23.1304635 L9.12812611,23.1304635 C8.59117907,23.1304635 8.09552345,23.0065496 7.59986783,22.8000264 L4.95637117,21.6434967 L4.95637117,13.1346096 L6.36072877,12.8041726 C7.72376851,12.5150269 8.67378834,11.3172057 8.67378834,9.95421881 L8.67378834,7.43464928 C8.67378834,6.2781195 9.58249031,5.36941753 10.7390201,5.36941753 C11.8955499,5.36941753 12.8042519,6.2781195 12.8042519,7.43464928 L12.8042519,11.9782913 C12.8042519,12.2261191 12.9694704,12.3913377 13.2172982,12.3913377 L17.3477617,12.3913377 C18.2564637,12.3913377 19,13.1348211 19,14.0435231 L19,21.4782781 Z" id="Shape"></path>
                    <path d="M10.3673973,3.88263571 C10.4500066,4.00654961 10.5739205,4.13046352 10.7391258,4.13046352 C10.9043312,4.13046352 11.0282715,4.04785425 11.1108543,3.88263571 L12.0195563,2.06523176 C12.2260795,1.61086755 12.2260795,1.11521193 11.936947,0.660874163 C11.6891192,0.247827811 11.2347815,0 10.697808,0 C10.1608345,0 9.74778816,0.247827811 9.45866893,0.660874163 C9.21084112,1.07392051 9.16952327,1.61089399 9.37605966,2.06523176 L10.3673973,3.88263571 Z" id="Path"></path>
                    <path d="M14.2914038,7.06302653 C14.1261852,7.1456358 14.043576,7.2695497 14.043576,7.43475502 C14.043576,7.59996035 14.1261852,7.72390069 14.2914038,7.80648352 L16.1088077,8.7151855 C16.3153309,8.79779477 16.5218541,8.88040404 16.7696819,8.88040404 C17.0175097,8.88040404 17.3066289,8.79779477 17.5131653,8.67388086 C17.9262117,8.42605305 18.1740395,7.97171528 18.1740395,7.43474181 C18.1740395,6.89776833 17.9262117,6.48472198 17.5131653,6.19560275 C17.100119,5.94777494 16.5631455,5.90645709 16.1088077,6.11299348 L14.2914038,7.06302653 Z" id="Path"></path>
                    <path d="M3.9651128,8.67397338 C4.21294061,8.79788729 4.46076842,8.88049656 4.70859623,8.88049656 C4.91511941,8.88049656 5.16296044,8.83919192 5.3694704,8.71527802 L7.18687434,7.80657605 C7.31078825,7.72396678 7.43470215,7.60005287 7.43470215,7.43484755 C7.43470215,7.26964222 7.35209288,7.14570188 7.18687434,7.06311905 L5.3694704,6.15441707 C4.91510619,5.9478939 4.41945057,5.9478939 3.9651128,6.23702634 C3.55206645,6.48485416 3.30423864,6.93919192 3.30423864,7.4761654 C3.30423864,8.01313887 3.55206645,8.38486737 3.9651128,8.6739866 L3.9651128,8.67397338 Z" id="Path"></path>
                    <path d="M13.382834,5.20438403 C13.4241386,5.20438403 13.4654432,5.20438403 13.5067479,5.1630794 L15.4480789,4.50220523 C15.9437346,4.33698669 16.2741716,3.96525819 16.3980988,3.46960257 C16.5220259,2.97394695 16.3567941,2.47829133 16.0263703,2.10656283 C15.6546418,1.73483433 15.1589861,1.61090721 14.6633305,1.73483433 C14.1676749,1.85876145 13.7959464,2.18919853 13.6307279,2.68485416 L12.9698537,4.62618523 C12.9285491,4.79140377 12.9698537,4.95662231 13.052463,5.03923158 C13.1350722,5.16314548 13.2589861,5.20445012 13.3829001,5.20445012 L13.382834,5.20438403 Z" id="Path"></path>
                    <path d="M6.03047673,4.54350987 L7.9718078,5.20438403 C8.01311244,5.20438403 8.05441707,5.24568867 8.09572171,5.24568867 C8.21963561,5.24568867 8.30224489,5.20438403 8.38486737,5.12177476 C8.50878128,4.99786085 8.55008591,4.8326291 8.46747664,4.70872841 L7.8478939,2.72610592 C7.68267536,2.27174172 7.31094686,1.90001322 6.81529124,1.77608609 C6.31963561,1.65215897 5.82397999,1.81739073 5.45225149,2.14781459 C5.08052299,2.51954309 4.95659587,3.01519871 5.08052299,3.51085434 C5.20445012,4.00650996 5.57617862,4.37823846 6.03054282,4.543457 L6.03047673,4.54350987 Z" id="Path"></path>
                </g>
            </g>
        </g>
    </g>
</svg>