<?xml version="1.0" encoding="UTF-8"?>
<svg width="14px" height="12px" viewBox="0 0 14 12" version="1.1" xmlns="http://www.w3.org/2000/svg" xmlns:xlink="http://www.w3.org/1999/xlink">
    <title>Path</title>
    <g id="Homepage-Final" stroke="none" stroke-width="1" fill="none" fill-rule="evenodd">
        <g id="10_Feedback_Expand" transform="translate(-1414, -351)" fill="#FFFFFF" fill-rule="nonzero">
            <g id="Group-3" transform="translate(1381, 358) rotate(90) translate(-1381, -358)translate(1373, 311)">
                <path d="M12.8147116,5.392 C12.7167116,5.493 12.5867116,5.543 12.4577116,5.543 C12.3317116,5.543 12.2057116,5.496 12.1077116,5.401 L8.06471156,1.453 C7.89971156,1.286 7.70671156,1.165 7.50071156,1.091 L7.50071156,13.5 C7.50071156,13.776 7.27671156,14 7.00071156,14 C6.72471156,14 6.50071156,13.776 6.50071156,13.5 L6.50071156,1.083 C6.29571156,1.154 6.10271156,1.27 5.93771156,1.433 L1.84671156,5.361 C1.64771156,5.551 1.32971156,5.548 1.13971156,5.346 C0.948711555,5.147 0.953711555,4.83 1.15371156,4.639 L5.23971156,0.716 C5.71271156,0.25 6.36271156,1.7218534e-13 7.00071156,1.7218534e-13 C7.62471156,0.016 8.29771156,0.265 8.77071156,0.744 L12.8077116,4.685 C13.0047116,4.878 13.0087116,5.195 12.8157116,5.392 L12.8147116,5.392 Z" id="Path"></path>
            </g>
        </g>
    </g>
</svg>