<?xml version="1.0" encoding="UTF-8"?>
<svg width="17px" height="16px" viewBox="0 0 17 16" version="1.1" xmlns="http://www.w3.org/2000/svg" xmlns:xlink="http://www.w3.org/1999/xlink">
    <title>instagram-svgrepo-com</title>
    <g id="Page-1" stroke="none" stroke-width="1" fill="none" fill-rule="evenodd">
        <g id="instagram-svgrepo-com" transform="translate(0.0823, 0)" fill="#0F0F0F">
            <path d="M8,12.3636364 C10.4099636,12.3636364 12.3636364,10.4099636 12.3636364,8 C12.3636364,5.59002909 10.4099636,3.63636364 8,3.63636364 C5.59002909,3.63636364 3.63636364,5.59002909 3.63636364,8 C3.63636364,10.4099636 5.59002909,12.3636364 8,12.3636364 Z M8,10.9090909 C9.60661818,10.9090909 10.9090909,9.60661818 10.9090909,8 C10.9090909,6.39335273 9.60661818,5.09090909 8,5.09090909 C6.39335273,5.09090909 5.09090909,6.39335273 5.09090909,8 C5.09090909,9.60661818 6.39335273,10.9090909 8,10.9090909 Z" id="Shape"></path>
            <path d="M12.3636364,2.90909091 C11.9619636,2.90909091 11.6363636,3.23470545 11.6363636,3.63636364 C11.6363636,4.03802182 11.9619636,4.36363636 12.3636364,4.36363636 C12.7653091,4.36363636 13.0909091,4.03802182 13.0909091,3.63636364 C13.0909091,3.23470545 12.7653091,2.90909091 12.3636364,2.90909091 Z" id="Path" fill-rule="nonzero"></path>
            <path d="M0.475607273,2.38258909 C0,3.31602182 0,4.53795636 0,6.98181818 L0,9.01818182 C0,11.4620364 0,12.684 0.475607273,13.6173818 C0.893963636,14.4384727 1.56151273,15.1060364 2.38258909,15.5243636 C3.31602182,16 4.53795636,16 6.98181818,16 L9.01818182,16 C11.4620364,16 12.684,16 13.6173818,15.5243636 C14.4384727,15.1060364 15.1060364,14.4384727 15.5243636,13.6173818 C16,12.684 16,11.4620364 16,9.01818182 L16,6.98181818 C16,4.53795636 16,3.31602182 15.5243636,2.38258909 C15.1060364,1.56151273 14.4384727,0.893963636 13.6173818,0.475607273 C12.684,0 11.4620364,0 9.01818182,0 L6.98181818,0 C4.53795636,0 3.31602182,0 2.38258909,0.475607273 C1.56151273,0.893963636 0.893963636,1.56151273 0.475607273,2.38258909 Z M9.01818182,1.45454545 L6.98181818,1.45454545 C5.73588364,1.45454545 4.88890909,1.45568 4.23424,1.50916364 C3.59653818,1.56126545 3.27042909,1.65570182 3.04293818,1.77161455 C2.49555636,2.05052364 2.05052364,2.49555636 1.77161455,3.04293818 C1.65570182,3.27042909 1.56126545,3.59653818 1.50916364,4.23424 C1.45568,4.88890909 1.45454545,5.73588364 1.45454545,6.98181818 L1.45454545,9.01818182 C1.45454545,10.2641455 1.45568,11.1110545 1.50916364,11.7657455 C1.56126545,12.4034909 1.65570182,12.7296 1.77161455,12.9570909 C2.05052364,13.5044364 2.49555636,13.9494545 3.04293818,14.2283636 C3.27042909,14.3442909 3.59653818,14.4387636 4.23424,14.4908364 C4.88890909,14.5442909 5.73588364,14.5454545 6.98181818,14.5454545 L9.01818182,14.5454545 C10.2641455,14.5454545 11.1110545,14.5442909 11.7657455,14.4908364 C12.4034909,14.4387636 12.7296,14.3442909 12.9570909,14.2283636 C13.5044364,13.9494545 13.9494545,13.5044364 14.2283636,12.9570909 C14.3442909,12.7296 14.4387636,12.4034909 14.4908364,11.7657455 C14.5442909,11.1110545 14.5454545,10.2641455 14.5454545,9.01818182 L14.5454545,6.98181818 C14.5454545,5.73588364 14.5442909,4.88890909 14.4908364,4.23424 C14.4387636,3.59653818 14.3442909,3.27042909 14.2283636,3.04293818 C13.9494545,2.49555636 13.5044364,2.05052364 12.9570909,1.77161455 C12.7296,1.65570182 12.4034909,1.56126545 11.7657455,1.50916364 C11.1110545,1.45568 10.2641455,1.45454545 9.01818182,1.45454545 Z" id="Shape"></path>
        </g>
    </g>
</svg>