<?xml version="1.0" encoding="UTF-8"?>
<svg width="20px" height="20px" viewBox="0 0 20 20" version="1.1" xmlns="http://www.w3.org/2000/svg" xmlns:xlink="http://www.w3.org/1999/xlink">
    <title>noun-light-theme-2856492</title>
    <g id="Homepage-Final" stroke="none" stroke-width="1" fill="none" fill-rule="evenodd">
        <g id="07_Font_Change-Copy" transform="translate(-1172, -167)" fill="#424242" fill-rule="nonzero">
            <g id="Group-5" transform="translate(1, 36)">
                <g id="noun-light-theme-2856492" transform="translate(1171, 131)">
                    <circle id="Oval" cx="10" cy="10" r="4.66666667"></circle>
                    <path d="M10,4.66666667 C10.3681898,4.66666667 10.6666667,4.36818983 10.6666667,4 L10.6666667,0.666666667 C10.6666667,0.298476833 10.3681898,0 10,0 C9.63181017,0 9.33333333,0.298476833 9.33333333,0.666666667 L9.33333333,4 C9.33333333,4.36818983 9.63181017,4.66666667 10,4.66666667 Z" id="Path"></path>
                    <path d="M5.28666667,6.22666667 C5.44959325,6.41691744 5.70541226,6.49978796 5.94894598,6.44120676 C6.1924797,6.38262555 6.38262555,6.1924797 6.44120676,5.94894598 C6.49978796,5.70541226 6.41691744,5.44959325 6.22666667,5.28666667 L3.87333333,2.92666667 C3.61191855,2.66525189 3.18808145,2.66525189 2.92666667,2.92666667 C2.66525189,3.18808145 2.66525189,3.61191855 2.92666667,3.87333333 L5.28666667,6.22666667 Z" id="Path"></path>
                    <path d="M4.66666667,10 C4.66666667,9.63181017 4.36818983,9.33333333 4,9.33333333 L0.666666667,9.33333333 C0.298476833,9.33333333 0,9.63181017 0,10 C0,10.3681898 0.298476833,10.6666667 0.666666667,10.6666667 L4,10.6666667 C4.36818983,10.6666667 4.66666667,10.3681898 4.66666667,10 Z" id="Path"></path>
                    <path d="M5.28666667,13.7733333 L2.92666667,16.1266667 C2.73641589,16.2895933 2.65354537,16.5454123 2.71212658,16.788946 C2.77070778,17.0324797 2.96085363,17.2226256 3.20438735,17.2812068 C3.44792107,17.339788 3.70374008,17.2569174 3.86666667,17.0666667 L6.22666667,14.7066667 C6.45318453,14.4421598 6.43795485,14.0478706 6.19170881,13.8016245 C5.94546278,13.5553785 5.55117352,13.5401488 5.28666667,13.7666667 L5.28666667,13.7733333 Z" id="Path"></path>
                    <path d="M10,15.3333333 C9.63181017,15.3333333 9.33333333,15.6318102 9.33333333,16 L9.33333333,19.3333333 C9.33333333,19.7015232 9.63181017,20 10,20 C10.3681898,20 10.6666667,19.7015232 10.6666667,19.3333333 L10.6666667,16 C10.6666667,15.6318102 10.3681898,15.3333333 10,15.3333333 Z" id="Path"></path>
                    <path d="M14.7133333,13.7733333 C14.4488265,13.5468155 14.0545372,13.5620452 13.8082912,13.8082912 C13.5620452,14.0545372 13.5468155,14.4488265 13.7733333,14.7133333 L16.1333333,17.0733333 C16.3978402,17.2998512 16.7921294,17.2846215 17.0383755,17.0383755 C17.2846215,16.7921294 17.2998512,16.3978402 17.0733333,16.1333333 L14.7133333,13.7733333 Z" id="Path"></path>
                    <path d="M19.3333333,9.33333333 L16,9.33333333 C15.6318102,9.33333333 15.3333333,9.63181017 15.3333333,10 C15.3333333,10.3681898 15.6318102,10.6666667 16,10.6666667 L19.3333333,10.6666667 C19.7015232,10.6666667 20,10.3681898 20,10 C20,9.63181017 19.7015232,9.33333333 19.3333333,9.33333333 Z" id="Path"></path>
                    <path d="M14.24,6.42667802 C14.417202,6.42769117 14.5875208,6.35812434 14.7133333,6.23333333 L17.0733333,3.87333333 C17.2998512,3.60882648 17.2846215,3.21453722 17.0383755,2.96829119 C16.7921294,2.72204515 16.3978402,2.70681547 16.1333333,2.93333333 L13.7733333,5.28666667 C13.5810267,5.47739364 13.5232254,5.76551119 13.627086,6.01565434 C13.7309466,6.26579748 13.9758233,6.42824175 14.2466667,6.42667802 L14.24,6.42667802 Z" id="Path"></path>
                </g>
            </g>
        </g>
    </g>
</svg>