<?xml version="1.0" encoding="UTF-8"?>
<svg width="17px" height="16px" viewBox="0 0 17 16" version="1.1" xmlns="http://www.w3.org/2000/svg" xmlns:xlink="http://www.w3.org/1999/xlink">
    <title>linkedin-svgrepo-com</title>
    <g id="Page-1" stroke="none" stroke-width="1" fill="none" fill-rule="evenodd">
        <g id="linkedin-svgrepo-com" transform="translate(0.0823, 0)" fill="#000000" fill-rule="nonzero">
            <path d="M3.63222629,15.293619 L3.63222629,4.97453811 L0.202740123,4.97453811 L0.202740123,15.293619 L3.63222629,15.293619 L3.63222629,15.293619 Z M1.91784328,3.56619093 C3.11339944,3.56619093 3.85813671,2.77310915 3.85813671,1.78289194 C3.83553001,0.770662956 3.11339944,0 1.94026211,0 C0.766936922,0 0,0.770694268 0,1.78292325 C0,2.77314046 0.744330224,3.56619093 1.8952679,3.56619093 L1.91784328,3.56619093 L1.91784328,3.56619093 Z M5.53031219,15.2936503 C5.53031219,15.2936503 5.57530641,5.94274353 5.53031219,4.97456942 L8.96033065,4.97456942 L8.96033065,6.47105767 L8.93756739,6.47105767 C9.38857415,5.76686843 10.2011002,4.73225192 12.0511547,4.73225192 C14.3082237,4.73225192 16,6.20710412 16,9.37673851 L16,15.2936503 L12.5705451,15.2936503 L12.5705451,9.77323243 C12.5705451,8.38611426 12.074325,7.4395762 10.8328666,7.4395762 C9.88557708,7.4395762 9.32103585,8.07769878 9.07311365,8.69452973 C8.98240505,8.91408398 8.96033065,9.22246815 8.96033065,9.53088362 L8.96033065,15.2936503 L5.53031219,15.2936503 L5.53031219,15.2936503 Z" id="Shape"></path>
        </g>
    </g>
</svg>