<?xml version="1.0" encoding="UTF-8"?>
<svg width="24px" height="24px" viewBox="0 0 24 24" version="1.1" xmlns="http://www.w3.org/2000/svg" xmlns:xlink="http://www.w3.org/1999/xlink">
    <title>lost-and-found-icon</title>
    <g id="Homepage-Final" stroke="none" stroke-width="1" fill="none" fill-rule="evenodd">
        <g id="01_Homepage-Version-3-Copy" transform="translate(-1406, -416)">
            <g id="lost-and-found-icon" transform="translate(1406, 416)">
                <rect id="Rectangle" x="0" y="0" width="24" height="24"></rect>
                <g id="Shape-3" transform="translate(0, 2)" fill="#FFFFFF" fill-rule="nonzero">
                    <path d="M19.0589548,3.83892994 L16.1855389,3.83892994 L16.1855389,2.93523356 C16.1855389,1.31660524 14.8689348,0 13.2503064,0 L10.0453487,0 C8.42672038,0 7.11011514,1.31660524 7.11011514,2.93523356 L7.11011514,3.83892994 L4.23669871,3.83892994 C1.89683448,3.83892994 0,5.73576442 0,8.07562865 L0,15.5994312 C0,17.9392955 1.89683448,19.83613 4.23669871,19.83613 L19.0589553,19.83613 C21.3988195,19.83613 23.295654,17.9392955 23.295654,15.5994312 L23.295654,8.07562862 C23.295654,5.73576442 21.398819,3.83892994 19.0589548,3.83892994 Z M8.27060906,2.93523356 C8.27060906,1.95663349 9.06674865,1.16049389 10.0453487,1.16049389 L13.2503065,1.16049389 C14.2289065,1.16049389 15.0250461,1.95663349 15.0250461,2.93523356 L15.0250461,3.83892994 L8.27060906,3.83892994 L8.27060906,2.93523356 Z M11.6478276,16.8158461 C11.2631094,16.8158461 10.9512408,16.5039775 10.9512408,16.1192771 C10.9512408,15.7345589 11.2631094,15.4226904 11.6478276,15.4226904 C12.0325458,15.4226904 12.3444143,15.7345589 12.3444143,16.1192771 C12.3444143,16.5039776 12.0325458,16.8158461 11.6478276,16.8158461 Z M13.3089545,11.1337716 C13.1630427,11.2952661 13.0264807,11.4340947 12.9001183,11.5624403 C12.3391374,12.1316377 12.0830128,12.3914455 12.0830128,13.6825516 L11.2126424,13.6825516 C11.2126424,12.1112384 11.5985293,11.6431876 12.2802061,10.9513111 C12.3983521,10.8314652 12.5261311,10.7019863 12.6624098,10.5509747 C12.9579164,10.2231692 13.0743624,9.78118423 12.9819989,9.33834928 C12.8751859,8.82581669 12.4589833,8.40961417 11.9464508,8.30280116 C11.5257151,8.2149708 11.1129124,8.31215085 10.7870902,8.57677517 C10.4660844,8.83771631 10.2822073,9.22416982 10.2822073,9.63697247 L9.41183692,9.63697247 C9.41183692,8.96096212 9.71301,8.32830028 10.2380088,7.90160563 C10.7630076,7.47464597 11.4497843,7.31031824 12.1240947,7.45056346 C12.9703826,7.62707411 13.6577259,8.31441744 13.8342366,9.16042201 C13.9838315,9.87836422 13.7923047,10.5974398 13.3089545,11.1337716 Z" id="Shape"></path>
                </g>
            </g>
        </g>
    </g>
</svg>