<?xml version="1.0" encoding="UTF-8"?>
<svg width="18px" height="18px" viewBox="0 0 18 18" version="1.1" xmlns="http://www.w3.org/2000/svg" xmlns:xlink="http://www.w3.org/1999/xlink">
    <title>map (1)</title>
    <g id="Homepage-Final" stroke="none" stroke-width="1" fill="none" fill-rule="evenodd" opacity="0.8">
        <g id="OnePlus-Ace-2-Pro" transform="translate(-31, -3251)" fill="#FFFFFF" fill-rule="nonzero">
            <g id="Group-18" transform="translate(0, 3236)">
                <g id="map-(1)" transform="translate(31, 15)">
                    <path d="M12,16 L6,13.89 L6,2 L12,4.11 M17.5,0 C17.44,0 17.39,0 17.34,0 L12,2.1 L6,0 L0.36,1.9 C0.15,1.97 0,2.15 0,2.38 L0,17.5 C0,17.7761424 0.223857625,18 0.5,18 C0.55,18 0.61,18 0.66,17.97 L6,15.9 L12,18 L17.64,16.1 C17.85,16 18,15.85 18,15.62 L18,0.5 C18,0.223857625 17.7761424,0 17.5,0 Z" id="Shape"></path>
                </g>
            </g>
        </g>
    </g>
</svg>