<?xml version="1.0" encoding="UTF-8"?>
<svg width="20px" height="20px" viewBox="0 0 20 20" version="1.1" xmlns="http://www.w3.org/2000/svg" xmlns:xlink="http://www.w3.org/1999/xlink">
    <title>Shape Copy</title>
    <g id="Homepage-Final" stroke="none" stroke-width="1" fill="none" fill-rule="evenodd">
        <g id="04_Search_Bar" transform="translate(-364, -136)" fill="#424242" fill-rule="nonzero">
            <path d="M371.428571,136 C375.531258,136 378.857143,139.325885 378.857143,143.428571 C378.857143,145.268571 378.182857,146.96 377.074286,148.262857 L377.382857,148.571429 L378.285714,148.571429 L384,154.285714 L382.285714,156 L376.571429,150.285714 L376.571429,149.382857 L376.262857,149.074286 C374.96,150.182857 373.268571,150.857143 371.428571,150.857143 C367.325885,150.857143 364,147.531258 364,143.428571 C364,139.325885 367.325885,136 371.428571,136 M371.428571,138.285714 C368.571429,138.285714 366.285714,140.571429 366.285714,143.428571 C366.285714,146.285714 368.571429,148.571429 371.428571,148.571429 C374.285714,148.571429 376.571429,146.285714 376.571429,143.428571 C376.571429,140.571429 374.285714,138.285714 371.428571,138.285714 Z" id="Shape-Copy"></path>
        </g>
    </g>
</svg>