<?xml version="1.0" encoding="UTF-8"?>
<svg width="20px" height="20px" viewBox="0 0 20 20" version="1.1" xmlns="http://www.w3.org/2000/svg" xmlns:xlink="http://www.w3.org/1999/xlink">
    <title>Search</title>
    <g id="Homepage-Final" stroke="none" stroke-width="1" fill="none" fill-rule="evenodd">
        <g id="Search">
            <rect id="Rectangle-Copy-39" x="0" y="0" width="20" height="20"></rect>
            <g id="magnify-(3)" transform="translate(1, 1)" fill="#424242" fill-rule="nonzero">
                <g id="Shape-2" transform="translate(0, -0)">
                    <path d="M6.5,0 C10.0898509,0 13,2.91014913 13,6.5 C13,8.11 12.41,9.59 11.44,10.73 L11.71,11 L12.5,11 L17.5,16 L16,17.5 L11,12.5 L11,11.71 L10.73,11.44 C9.59,12.41 8.11,13 6.5,13 C2.91014913,13 0,10.0898509 0,6.5 C0,2.91014913 2.91014913,0 6.5,0 M6.5,2 C4,2 2,4 2,6.5 C2,9 4,11 6.5,11 C9,11 11,9 11,6.5 C11,4 9,2 6.5,2 Z" id="Shape"></path>
                </g>
            </g>
        </g>
    </g>
</svg>