<?xml version="1.0" encoding="UTF-8"?>
<svg width="20px" height="20px" viewBox="0 0 20 20" version="1.1" xmlns="http://www.w3.org/2000/svg" xmlns:xlink="http://www.w3.org/1999/xlink">
    <title>Shape Copy</title>
    <g id="Homepage-Final" stroke="none" stroke-width="1" fill="none" fill-rule="evenodd">
        <g id="03_Search" transform="translate(-1020, -157)" fill="#424242" fill-rule="nonzero">
            <g id="Group-5" transform="translate(0, 36)">
                <g id="Group-8" transform="translate(380, 107)">
                    <path d="M647.428571,14 C651.531258,14 654.857143,17.3258847 654.857143,21.4285714 C654.857143,23.2685714 654.182857,24.96 653.074286,26.2628571 L653.382857,26.5714286 L654.285714,26.5714286 L660,32.2857143 L658.285714,34 L652.571429,28.2857143 L652.571429,27.3828571 L652.262857,27.0742857 C650.96,28.1828571 649.268571,28.8571429 647.428571,28.8571429 C643.325885,28.8571429 640,25.5312581 640,21.4285714 C640,17.3258847 643.325885,14 647.428571,14 M647.428571,16.2857143 C644.571429,16.2857143 642.285714,18.5714286 642.285714,21.4285714 C642.285714,24.2857143 644.571429,26.5714286 647.428571,26.5714286 C650.285714,26.5714286 652.571429,24.2857143 652.571429,21.4285714 C652.571429,18.5714286 650.285714,16.2857143 647.428571,16.2857143 Z" id="Shape-Copy"></path>
                </g>
            </g>
        </g>
    </g>
</svg>