<?xml version="1.0" encoding="UTF-8"?>
<svg width="18px" height="18px" viewBox="0 0 18 18" version="1.1" xmlns="http://www.w3.org/2000/svg" xmlns:xlink="http://www.w3.org/1999/xlink">
    <title>Shape Copy</title>
    <g id="Homepage-Final" stroke="none" stroke-width="1" fill="none" fill-rule="evenodd">
        <g id="OnePlus-Ace-2-Pro" transform="translate(-363, -383)" fill="#8E278F" fill-rule="nonzero">
            <g id="Group-3" transform="translate(16, 323)">
                <path d="M353.5,60 C357.089851,60 360,62.9101491 360,66.5 C360,68.11 359.41,69.59 358.44,70.73 L358.71,71 L359.5,71 L364.5,76 L363,77.5 L358,72.5 L358,71.71 L357.73,71.44 C356.59,72.41 355.11,73 353.5,73 C349.910149,73 347,70.0898509 347,66.5 C347,62.9101491 349.910149,60 353.5,60 M353.5,62 C351,62 349,64 349,66.5 C349,69 351,71 353.5,71 C356,71 358,69 358,66.5 C358,64 356,62 353.5,62 Z" id="Shape-Copy"></path>
            </g>
        </g>
    </g>
</svg>