<?xml version="1.0" encoding="UTF-8"?>
<svg width="16px" height="14px" viewBox="0 0 16 14" version="1.1" xmlns="http://www.w3.org/2000/svg" xmlns:xlink="http://www.w3.org/1999/xlink">
    <title>Shape</title>
    <g id="Homepage-Final" stroke="none" stroke-width="1" fill="none" fill-rule="evenodd">
        <g id="01_Homepage-Version-3-Copy" transform="translate(-907, -10)" fill="#FFFFFF" fill-rule="nonzero">
            <path d="M920.090136,12.6366669 L918.116607,12.6366669 L918.116607,12.0159871 C918.116607,10.9042753 917.212332,10 916.10062,10 L913.89938,10 C912.787669,10 911.883393,10.9042753 911.883393,12.0159871 L911.883393,12.6366669 L909.909864,12.6366669 C908.30279,12.6366669 907,13.9394572 907,15.5465306 L907,20.7140542 C907,22.3211277 908.30279,23.623918 909.909864,23.623918 L920.090136,23.623918 C921.69721,23.623918 923,22.3211277 923,20.7140542 L923,15.5465306 C923,13.9394572 921.697209,12.6366669 920.090136,12.6366669 Z M912.680448,12.0159871 C912.680448,11.3438616 913.227255,10.7970543 913.89938,10.7970543 L916.10062,10.7970543 C916.772746,10.7970543 917.319553,11.3438616 917.319553,12.0159871 L917.319553,12.6366669 L912.680448,12.6366669 L912.680448,12.0159871 Z M915,21.5495164 C914.735767,21.5495164 914.521568,21.3353178 914.521568,21.0710965 C914.521568,20.8068631 914.735767,20.5926644 915,20.5926644 C915.264234,20.5926644 915.478432,20.8068631 915.478432,21.0710965 C915.478432,21.3353178 915.264234,21.5495164 915,21.5495164 Z M916.140901,17.6469347 C916.040686,17.7578529 915.946892,17.8532036 915.860103,17.9413544 C915.474808,18.3322925 915.298896,18.5107346 915.298896,19.3974965 L914.701105,19.3974965 C914.701105,18.3182818 914.966141,17.9968135 915.434333,17.5216166 C915.515478,17.4393036 915.60324,17.3503745 915.696839,17.2466562 C915.8998,17.0215117 915.979778,16.7179461 915.91634,16.4137967 C915.842979,16.0617773 915.557121,15.7759197 915.205102,15.702558 C914.916131,15.6422341 914.632608,15.7089796 914.408826,15.8907298 C914.188352,16.0699503 914.06206,16.3353756 914.06206,16.6188981 L913.46427,16.6188981 C913.46427,16.1545984 913.671122,15.7200714 914.031704,15.4270138 C914.392285,15.1337617 914.86398,15.0208975 915.327112,15.1172212 C915.908362,15.2384529 916.380446,15.7105364 916.501677,16.2915921 C916.604423,16.7846916 916.472877,17.2785695 916.140901,17.6469347 Z" id="Shape"></path>
        </g>
    </g>
</svg>