<?xml version="1.0" encoding="UTF-8"?>
<svg width="21px" height="14px" viewBox="0 0 21 14" version="1.1" xmlns="http://www.w3.org/2000/svg" xmlns:xlink="http://www.w3.org/1999/xlink">
    <title>youtube-168-svgrepo-com</title>
    <g id="Page-1" stroke="none" stroke-width="1" fill="none" fill-rule="evenodd">
        <g id="youtube-168-svgrepo-com" transform="translate(0.0823, 0)" fill="#000000" fill-rule="nonzero">
            <path d="M7.98843203,9.58587886 L7.98843203,3.97424887 C9.98063802,4.91167887 11.523602,5.81719887 13.348463,6.79352887 C11.843351,7.62823887 9.98063802,8.56467886 7.98843203,9.58587886 M19.090998,1.18288888 C18.747343,0.73012888 18.161634,0.378088881 17.538073,0.261408881 C15.705243,-0.086641118 4.27097404,-0.087631118 2.43914104,0.261408881 C1.93909704,0.355148881 1.49383904,0.581528881 1.11133504,0.93356888 C-0.500359955,2.42946888 0.00466404444,10.4515089 0.393145044,11.7509589 C0.556505043,12.3134189 0.767679043,12.7193089 1.03363904,12.9855789 C1.37629804,13.3376089 1.84546304,13.5799489 2.38435504,13.6886489 C3.89345104,14.0007989 11.668037,14.1753189 17.506198,13.7355189 C18.044094,13.6417789 18.520231,13.3914689 18.895762,13.0244689 C20.385932,11.5345489 20.28433,3.06173888 19.090998,1.18288888" id="youtube-[#168]"></path>
        </g>
    </g>
</svg>